<?xml version="1.0" encoding="UTF-8"?>
<svg id="Layer_1" data-name="Layer 1" xmlns="http://www.w3.org/2000/svg" width="1075.64" height="365.82" xmlns:xlink="http://www.w3.org/1999/xlink" viewBox="0 0 1075.64 365.82">
  <defs>
    <linearGradient id="linear-gradient" x1="122.35" y1="251.01" x2="122.35" y2="203.66" gradientUnits="userSpaceOnUse">
      <stop offset=".42" stop-color="#9da8c4"/>
      <stop offset=".66" stop-color="#4f5669"/>
      <stop offset=".84" stop-color="#1a1a1a"/>
    </linearGradient>
    <linearGradient id="linear-gradient-2" x1="84.18" y1="163.2" x2="260.01" y2="290.27" gradientUnits="userSpaceOnUse">
      <stop offset="0" stop-color="#9da8c4"/>
      <stop offset=".57" stop-color="#4f5669"/>
      <stop offset="1" stop-color="#444b5c"/>
    </linearGradient>
    <linearGradient id="linear-gradient-3" x1="154.12" y1="213.77" x2="89.81" y2="162.2" gradientUnits="userSpaceOnUse">
      <stop offset=".12" stop-color="#525a6a"/>
      <stop offset=".29" stop-color="#586071"/>
      <stop offset=".55" stop-color="#687286"/>
      <stop offset=".66" stop-color="#727c92"/>
    </linearGradient>
    <linearGradient id="linear-gradient-4" x1="-1839.75" y1="3243.04" x2="-1839.92" y2="3254.52" gradientTransform="translate(1962.2 -3026.08)" xlink:href="#linear-gradient"/>
    <linearGradient id="linear-gradient-5" x1="122.35" y1="221.63" x2="122.35" y2="132.78" gradientUnits="userSpaceOnUse">
      <stop offset=".12" stop-color="#1c2538"/>
      <stop offset=".34" stop-color="#1d293f"/>
      <stop offset=".66" stop-color="#223654"/>
    </linearGradient>
    <linearGradient id="linear-gradient-6" x1="974.46" y1="251.01" x2="974.46" y2="203.66" xlink:href="#linear-gradient"/>
    <linearGradient id="linear-gradient-7" x1="936.29" y1="163.2" x2="1112.12" y2="290.27" xlink:href="#linear-gradient-2"/>
    <linearGradient id="linear-gradient-8" x1="1006.23" x2="941.92" y2="162.2" xlink:href="#linear-gradient-3"/>
    <linearGradient id="linear-gradient-9" x1="-2691.86" y1="3243.04" x2="-2692.03" y2="3254.52" gradientTransform="translate(3666.42 -3026.08)" xlink:href="#linear-gradient"/>
    <linearGradient id="linear-gradient-10" x1="974.46" x2="974.46" xlink:href="#linear-gradient-5"/>
    <linearGradient id="linear-gradient-11" x1="253.71" y1="187.53" x2="347.89" y2="187.53" gradientTransform="translate(225.33 -114.03)" gradientUnits="userSpaceOnUse">
      <stop offset="0" stop-color="#1c2538"/>
      <stop offset=".46" stop-color="#1e2b42"/>
      <stop offset="1" stop-color="#223654"/>
    </linearGradient>
    <linearGradient id="linear-gradient-12" x1="253.73" y1="165.51" x2="356.53" y2="165.51" gradientTransform="translate(225.64 -114.58) rotate(.1)" gradientUnits="userSpaceOnUse">
      <stop offset="0" stop-color="#223654"/>
      <stop offset=".17" stop-color="#22395e"/>
      <stop offset=".45" stop-color="#244279"/>
      <stop offset=".82" stop-color="#2851a6"/>
      <stop offset="1" stop-color="#2a59be"/>
    </linearGradient>
    <linearGradient id="linear-gradient-13" x1="686.88" y1="194.55" x2="690.42" y2="202.18" gradientTransform="translate(-215.53 -3.56) rotate(-12.06)" gradientUnits="userSpaceOnUse">
      <stop offset="0" stop-color="#2a59be"/>
      <stop offset=".89" stop-color="#1c2538"/>
    </linearGradient>
    <linearGradient id="linear-gradient-14" x1="738.12" y1="208.83" x2="737.81" y2="215" gradientTransform="translate(-215.53 -3.56) rotate(-12.06)" gradientUnits="userSpaceOnUse">
      <stop offset="0" stop-color="#2a59be"/>
      <stop offset=".83" stop-color="#1c2538"/>
    </linearGradient>
    <linearGradient id="linear-gradient-15" x1="706.98" y1="221.49" x2="713.8" y2="224.59" gradientTransform="translate(-215.53 -3.56) rotate(-12.06)" gradientUnits="userSpaceOnUse">
      <stop offset="0" stop-color="#2a59be"/>
      <stop offset=".89" stop-color="#1c2538"/>
    </linearGradient>
    <linearGradient id="linear-gradient-16" x1="714.52" y1="193.02" x2="720.99" y2="193.94" xlink:href="#linear-gradient-13"/>
    <linearGradient id="linear-gradient-17" y1="436.97" y2="436.97" xlink:href="#linear-gradient-11"/>
    <linearGradient id="linear-gradient-18" y1="414.95" y2="414.95" gradientTransform="translate(226.09 -114.58) rotate(.1)" xlink:href="#linear-gradient-12"/>
    <linearGradient id="linear-gradient-19" x1="634.75" y1="438.48" x2="638.29" y2="446.11" xlink:href="#linear-gradient-13"/>
    <linearGradient id="linear-gradient-20" x1="685.99" y1="452.76" x2="685.68" y2="458.93" xlink:href="#linear-gradient-14"/>
    <linearGradient id="linear-gradient-21" x1="654.85" y1="465.42" x2="661.67" y2="468.52" xlink:href="#linear-gradient-15"/>
    <linearGradient id="linear-gradient-22" x1="662.39" y1="436.95" x2="668.86" y2="437.87" xlink:href="#linear-gradient-13"/>
    <linearGradient id="linear-gradient-23" x1="70.12" y1="308.03" x2="164.29" y2="308.03" xlink:href="#linear-gradient-11"/>
    <linearGradient id="linear-gradient-24" x1="70.13" y1="286" x2="172.93" y2="286" gradientTransform="translate(225.86 -114.24) rotate(.1)" xlink:href="#linear-gradient-12"/>
    <linearGradient id="linear-gradient-25" x1="482.15" y1="274.01" x2="485.7" y2="281.64" xlink:href="#linear-gradient-13"/>
    <linearGradient id="linear-gradient-26" x1="533.4" y1="288.29" x2="533.09" y2="294.46" xlink:href="#linear-gradient-14"/>
    <linearGradient id="linear-gradient-27" x1="502.25" y1="300.95" x2="509.08" y2="304.05" xlink:href="#linear-gradient-15"/>
    <linearGradient id="linear-gradient-28" x1="509.8" y1="272.48" x2="516.27" y2="273.41" xlink:href="#linear-gradient-13"/>
    <linearGradient id="linear-gradient-29" x1="442.43" y1="308.03" x2="536.6" y2="308.03" xlink:href="#linear-gradient-11"/>
    <linearGradient id="linear-gradient-30" x1="442.44" y1="286" x2="545.24" y2="286" gradientTransform="translate(225.86 -114.92) rotate(.1)" xlink:href="#linear-gradient-12"/>
    <linearGradient id="linear-gradient-31" x1="846.24" y1="351.83" x2="849.79" y2="359.45" xlink:href="#linear-gradient-13"/>
    <linearGradient id="linear-gradient-32" x1="897.48" y1="366.1" x2="897.18" y2="372.28" xlink:href="#linear-gradient-14"/>
    <linearGradient id="linear-gradient-33" x1="866.34" y1="378.77" x2="873.16" y2="381.87" xlink:href="#linear-gradient-15"/>
    <linearGradient id="linear-gradient-34" x1="873.88" y1="350.3" x2="880.36" y2="351.22" xlink:href="#linear-gradient-13"/>
  </defs>
  <line x1="345.2" y1="173.19" x2="523.94" y2="46.62" style="fill: none; stroke: #a3ea2a; stroke-miterlimit: 10; stroke-width: 5px;"/>
  <line x1="523.49" y1="303.93" x2="345.2" y2="173.19" style="fill: none; stroke: #a3ea2a; stroke-miterlimit: 10; stroke-width: 5px;"/>
  <line x1="717.51" y1="173.19" x2="523.49" y2="303.93" style="fill: none; stroke: #a3ea2a; stroke-miterlimit: 10; stroke-width: 5px;"/>
  <line x1="526.13" y1="51.48" x2="717.51" y2="173.19" style="fill: none; stroke: #a3ea2a; stroke-miterlimit: 10; stroke-width: 5px;"/>
  <line x1="121.73" y1="184.06" x2="303.54" y2="184.06" style="fill: none; stroke: #a3ea2a; stroke-miterlimit: 10; stroke-width: 5px;"/>
  <line x1="746.77" y1="184.06" x2="928.58" y2="184.06" style="fill: none; stroke: #a3ea2a; stroke-miterlimit: 10; stroke-width: 5px;"/>
  <rect x="15.35" y="255.03" width="236.24" height="37.96" rx="7.26" ry="7.26" style="fill: #223654;"/>
  <g>
    <path d="m80.9,281.03c-2.42,0-4.26-.67-5.53-2.02-1.27-1.34-1.9-3.26-1.9-5.73,0-1.23.19-2.33.58-3.29.39-.97.92-1.78,1.59-2.45.67-.67,1.47-1.17,2.41-1.51.93-.34,1.94-.51,3.03-.51.63,0,1.2.05,1.72.14.52.09.97.2,1.35.32.39.12.71.25.96.38.26.13.44.23.56.3l-.97,2.71c-.46-.24-.99-.45-1.6-.62-.61-.17-1.3-.26-2.07-.26-.52,0-1.02.09-1.51.26-.49.17-.93.45-1.31.83s-.68.87-.91,1.47c-.23.6-.34,1.33-.34,2.19,0,.69.08,1.33.23,1.92.15.59.39,1.11.73,1.54.34.43.78.77,1.32,1.02.54.25,1.2.38,1.98.38.49,0,.92-.03,1.31-.09.39-.06.73-.12,1.03-.2.3-.08.56-.17.79-.27.23-.1.44-.19.62-.28l.92,2.68c-.47.29-1.14.54-2,.77-.86.23-1.85.34-2.98.34Z" style="fill: #a3ea2a;"/>
    <path d="m98.12,275.06c0,.89-.13,1.7-.39,2.44-.26.74-.63,1.37-1.12,1.89s-1.07.93-1.75,1.21c-.68.29-1.44.43-2.29.43s-1.59-.14-2.27-.43-1.26-.69-1.75-1.21-.87-1.15-1.14-1.89c-.27-.74-.41-1.55-.41-2.44s.14-1.7.42-2.43c.28-.73.67-1.35,1.16-1.87.49-.52,1.08-.92,1.76-1.2s1.42-.43,2.22-.43,1.56.14,2.24.43c.68.29,1.26.69,1.75,1.2s.87,1.14,1.14,1.87c.27.73.41,1.54.41,2.43Zm-3.26,0c0-.99-.2-1.76-.59-2.33-.39-.57-.96-.85-1.69-.85s-1.3.28-1.7.85c-.4.57-.6,1.34-.6,2.33s.2,1.77.6,2.35c.4.58.97.87,1.7.87s1.29-.29,1.69-.87c.39-.58.59-1.36.59-2.35Z" style="fill: #a3ea2a;"/>
    <path d="m106.79,274.74c0-1.03-.13-1.76-.4-2.19-.26-.43-.72-.64-1.36-.64-.2,0-.41.01-.62.03-.21.02-.42.05-.62.08v8.72h-3.2v-10.91c.27-.07.59-.15.96-.23s.75-.15,1.16-.21.83-.11,1.26-.15c.43-.04.85-.05,1.27-.05.82,0,1.48.1,1.99.31s.93.45,1.26.74c.46-.33.98-.59,1.58-.77.59-.19,1.14-.28,1.64-.28.9,0,1.64.13,2.22.38s1.04.6,1.38,1.06c.34.46.58,1,.71,1.63.13.63.19,1.33.19,2.1v6.38h-3.2v-5.99c0-1.03-.13-1.76-.4-2.19-.27-.43-.72-.64-1.36-.64-.17,0-.41.04-.72.13-.31.09-.56.19-.76.32.1.33.17.68.19,1.04s.04.75.04,1.17v6.16h-3.2v-5.99Z" style="fill: #a3ea2a;"/>
    <path d="m129.59,275.08c0,.87-.11,1.67-.32,2.38-.21.72-.53,1.33-.95,1.85-.42.52-.93.92-1.54,1.2-.62.29-1.32.43-2.13.43-.44,0-.86-.04-1.25-.13s-.76-.21-1.12-.37v4.25h-3.2v-14.88c.29-.09.62-.17.99-.25s.76-.15,1.17-.2c.41-.06.82-.1,1.25-.14.42-.04.83-.05,1.21-.05.93,0,1.76.14,2.49.42s1.35.67,1.85,1.18c.5.51.88,1.13,1.15,1.86.26.73.4,1.55.4,2.45Zm-3.26.09c0-.99-.22-1.78-.67-2.37s-1.1-.89-1.97-.89c-.29,0-.55.01-.79.03-.24.02-.44.05-.6.08v5.78c.2.13.46.24.78.32.32.09.65.13.98.13,1.52,0,2.28-1.02,2.28-3.07Z" style="fill: #a3ea2a;"/>
    <path d="m141.7,280.34c-.54.16-1.24.3-2.1.44-.86.14-1.76.2-2.71.2s-1.76-.13-2.39-.39-1.14-.62-1.51-1.08-.64-1.02-.79-1.66c-.16-.64-.24-1.35-.24-2.13v-6.29h3.2v5.9c0,1.03.13,1.77.41,2.23.27.46.78.69,1.52.69.23,0,.47-.01.73-.03.26-.02.49-.05.69-.08v-8.72h3.2v10.91Z" style="fill: #a3ea2a;"/>
    <path d="m144.6,266.62l3.2-.52v3.33h3.84v2.66h-3.84v3.97c0,.67.12,1.21.35,1.61.24.4.71.6,1.43.6.34,0,.7-.03,1.06-.1.36-.06.7-.15,1-.27l.45,2.49c-.39.16-.82.29-1.29.41s-1.05.17-1.74.17c-.87,0-1.6-.12-2.17-.35-.57-.24-1.03-.57-1.37-.99s-.58-.93-.72-1.54c-.14-.6-.21-1.27-.21-2v-9.49Z" style="fill: #a3ea2a;"/>
    <path d="m153.27,275.17c0-1,.15-1.88.46-2.63.31-.75.71-1.38,1.21-1.88s1.08-.88,1.73-1.14,1.32-.39,2.01-.39c1.6,0,2.87.49,3.8,1.47.93.98,1.4,2.42,1.4,4.33,0,.19,0,.39-.02.61s-.03.42-.04.59h-7.26c.07.66.38,1.18.92,1.57.54.39,1.27.58,2.19.58.59,0,1.16-.05,1.73-.16.56-.11,1.03-.24,1.38-.4l.43,2.6c-.17.09-.4.17-.69.26-.29.09-.61.16-.96.23-.35.06-.73.12-1.13.16-.4.04-.8.06-1.2.06-1.02,0-1.9-.15-2.65-.45s-1.37-.71-1.87-1.23-.86-1.14-1.09-1.86c-.24-.71-.35-1.49-.35-2.32Zm7.51-1.22c-.01-.27-.06-.54-.14-.79s-.2-.49-.37-.69-.37-.37-.62-.49c-.25-.13-.56-.19-.93-.19s-.67.06-.92.18c-.26.12-.47.28-.64.48s-.3.43-.4.7c-.09.27-.16.53-.2.81h4.23Z" style="fill: #a3ea2a;"/>
    <path d="m173.15,272.27c-.29-.07-.62-.15-1.01-.23-.39-.08-.8-.12-1.25-.12-.2,0-.44.02-.72.05-.28.04-.49.08-.63.12v8.63h-3.2v-10.69c.57-.2,1.25-.39,2.03-.57.78-.18,1.65-.27,2.61-.27.17,0,.38.01.62.03.24.02.49.05.73.09.24.04.49.08.73.13.24.05.45.11.62.18l-.54,2.64Z" style="fill: #a3ea2a;"/>
    <path d="m190.76,280.73c-.17-.52-.34-1.05-.53-1.59s-.38-1.09-.57-1.63h-5.81c-.19.54-.38,1.09-.56,1.63-.19.55-.37,1.08-.53,1.59h-3.48c.56-1.6,1.09-3.08,1.59-4.44.5-1.36.99-2.64,1.47-3.84s.96-2.34,1.42-3.42c.47-1.08.95-2.14,1.45-3.17h3.18c.49,1.03.97,2.09,1.44,3.17.47,1.08.95,2.22,1.43,3.42s.97,2.48,1.48,3.84c.5,1.36,1.04,2.84,1.6,4.44h-3.59Zm-4.02-11.51c-.08.22-.18.51-.33.88-.14.37-.31.8-.49,1.29s-.39,1.02-.62,1.61-.46,1.2-.69,1.84h4.25c-.23-.64-.45-1.26-.66-1.85-.21-.59-.42-1.12-.61-1.61-.19-.49-.36-.92-.5-1.29-.15-.37-.26-.66-.35-.87Z" style="fill: #a3ea2a;"/>
  </g>
  <rect x="828.41" y="246.52" width="236.24" height="37.96" rx="7.26" ry="7.26" style="fill: #223654;"/>
  <g>
    <path d="m893.96,272.52c-2.42,0-4.26-.67-5.53-2.02-1.27-1.34-1.9-3.26-1.9-5.73,0-1.23.19-2.33.58-3.29.39-.97.92-1.78,1.59-2.45.67-.67,1.47-1.17,2.4-1.51.93-.34,1.94-.51,3.03-.51.63,0,1.2.05,1.72.14.52.09.97.2,1.35.32.39.12.71.25.97.38.26.13.44.23.56.3l-.97,2.71c-.46-.24-.99-.45-1.6-.62-.61-.17-1.3-.26-2.07-.26-.51,0-1.02.09-1.51.26-.49.17-.93.45-1.31.83s-.68.87-.91,1.47c-.23.6-.34,1.33-.34,2.19,0,.69.08,1.33.23,1.92s.39,1.11.73,1.54c.34.43.78.77,1.32,1.02.54.25,1.2.38,1.98.38.49,0,.92-.03,1.31-.09.39-.06.73-.12,1.03-.2.3-.08.57-.17.79-.27.23-.1.44-.19.62-.28l.92,2.68c-.47.29-1.14.54-2,.77-.86.23-1.85.34-2.98.34Z" style="fill: #a3ea2a;"/>
    <path d="m911.18,266.55c0,.89-.13,1.7-.39,2.44-.26.74-.63,1.37-1.12,1.89s-1.07.93-1.75,1.21c-.68.29-1.44.43-2.29.43s-1.58-.14-2.26-.43c-.68-.29-1.26-.69-1.75-1.21s-.87-1.15-1.14-1.89c-.27-.74-.41-1.55-.41-2.44s.14-1.7.42-2.43c.28-.73.67-1.35,1.16-1.87s1.08-.92,1.76-1.2c.68-.29,1.42-.43,2.22-.43s1.56.14,2.24.43c.68.29,1.26.69,1.75,1.2s.87,1.14,1.14,1.87c.27.73.41,1.54.41,2.43Zm-3.26,0c0-.99-.2-1.76-.59-2.33s-.96-.85-1.69-.85-1.29.28-1.7.85c-.4.57-.6,1.34-.6,2.33s.2,1.77.6,2.35c.4.58.97.87,1.7.87s1.29-.29,1.69-.87c.39-.58.59-1.36.59-2.35Z" style="fill: #a3ea2a;"/>
    <path d="m919.85,266.23c0-1.03-.13-1.76-.4-2.19-.26-.43-.72-.64-1.36-.64-.2,0-.41.01-.62.03-.21.02-.42.05-.62.08v8.72h-3.2v-10.91c.27-.07.59-.15.96-.23.36-.08.75-.15,1.16-.21.41-.06.83-.11,1.26-.15.43-.04.85-.05,1.27-.05.82,0,1.48.1,1.99.31.51.21.93.45,1.26.74.46-.33.98-.59,1.58-.77.59-.19,1.14-.28,1.64-.28.9,0,1.64.13,2.22.38.58.25,1.04.6,1.38,1.06s.58,1,.71,1.63c.13.63.19,1.33.19,2.1v6.38h-3.2v-5.99c0-1.03-.13-1.76-.4-2.19-.27-.43-.72-.64-1.36-.64-.17,0-.41.04-.72.13s-.56.19-.76.32c.1.33.16.68.19,1.04.03.37.04.75.04,1.17v6.16h-3.2v-5.99Z" style="fill: #a3ea2a;"/>
    <path d="m942.66,266.57c0,.87-.11,1.67-.32,2.38-.21.72-.53,1.33-.95,1.85s-.93.92-1.55,1.2-1.32.43-2.12.43c-.44,0-.86-.04-1.25-.13-.39-.09-.76-.21-1.12-.37v4.25h-3.2v-14.88c.29-.09.62-.17.99-.25s.76-.15,1.17-.2c.41-.06.82-.1,1.25-.14.42-.04.83-.05,1.21-.05.93,0,1.76.14,2.49.42.73.28,1.34.67,1.85,1.18s.88,1.13,1.15,1.86c.26.73.4,1.55.4,2.45Zm-3.26.09c0-.99-.22-1.78-.67-2.37s-1.1-.89-1.98-.89c-.29,0-.55.01-.79.03s-.44.05-.6.08v5.78c.2.13.46.24.78.32s.65.13.98.13c1.52,0,2.28-1.02,2.28-3.07Z" style="fill: #a3ea2a;"/>
    <path d="m954.76,271.83c-.54.16-1.25.3-2.1.44s-1.76.2-2.71.2-1.76-.13-2.39-.39-1.14-.62-1.51-1.08c-.37-.46-.64-1.02-.79-1.66s-.24-1.35-.24-2.13v-6.29h3.2v5.9c0,1.03.14,1.77.41,2.23.27.46.78.69,1.52.69.23,0,.47-.01.73-.03s.49-.05.69-.08v-8.72h3.2v10.91Z" style="fill: #a3ea2a;"/>
    <path d="m957.66,258.11l3.2-.52v3.33h3.84v2.66h-3.84v3.97c0,.67.12,1.21.35,1.61.24.4.71.6,1.43.6.34,0,.7-.03,1.06-.1s.7-.15,1-.27l.45,2.49c-.39.16-.82.29-1.29.41s-1.05.17-1.74.17c-.87,0-1.6-.12-2.17-.35-.57-.24-1.03-.57-1.37-.99-.34-.42-.58-.93-.72-1.54-.14-.6-.2-1.27-.2-2v-9.49Z" style="fill: #a3ea2a;"/>
    <path d="m966.34,266.66c0-1,.15-1.88.46-2.63.31-.75.71-1.38,1.21-1.88s1.08-.88,1.73-1.14c.65-.26,1.32-.39,2.01-.39,1.6,0,2.87.49,3.8,1.47.93.98,1.4,2.42,1.4,4.33,0,.19,0,.39-.02.61-.01.22-.03.42-.04.59h-7.26c.07.66.38,1.18.92,1.57s1.27.58,2.19.58c.59,0,1.16-.05,1.73-.16s1.03-.24,1.38-.4l.43,2.6c-.17.09-.4.17-.69.26-.29.09-.61.16-.96.23s-.73.12-1.13.16-.8.06-1.2.06c-1.02,0-1.9-.15-2.65-.45-.75-.3-1.37-.71-1.87-1.23s-.86-1.14-1.09-1.86c-.24-.71-.35-1.49-.35-2.32Zm7.51-1.22c-.01-.27-.06-.54-.14-.79-.08-.26-.2-.49-.37-.69s-.37-.37-.62-.49c-.25-.13-.56-.19-.93-.19s-.67.06-.92.18c-.26.12-.47.28-.64.48s-.3.43-.4.7c-.09.27-.16.53-.2.81h4.23Z" style="fill: #a3ea2a;"/>
    <path d="m986.22,263.76c-.29-.07-.62-.15-1.01-.23-.39-.08-.8-.12-1.25-.12-.2,0-.44.02-.72.05-.28.04-.49.08-.63.12v8.63h-3.2v-10.69c.57-.2,1.25-.39,2.03-.57s1.65-.27,2.61-.27c.17,0,.38.01.62.03s.49.05.73.09c.24.04.49.08.73.13s.45.11.62.18l-.54,2.64Z" style="fill: #a3ea2a;"/>
    <path d="m998.8,272.41c-.82,0-1.63-.03-2.44-.08-.81-.05-1.65-.17-2.52-.35v-14.43c.69-.13,1.44-.23,2.25-.29.82-.06,1.57-.1,2.28-.1.95,0,1.81.07,2.61.2.79.14,1.48.37,2.05.7s1.02.76,1.34,1.3.48,1.2.48,1.99c0,1.19-.57,2.12-1.72,2.81.94.36,1.59.84,1.93,1.46.34.62.51,1.31.51,2.08,0,1.56-.57,2.73-1.71,3.52-1.14.79-2.83,1.18-5.08,1.18Zm-1.7-9.23h1.63c1.03,0,1.77-.13,2.21-.4.44-.26.67-.69.67-1.28s-.23-1.02-.69-1.27c-.46-.24-1.13-.36-2.02-.36-.29,0-.59,0-.92.01-.33,0-.62.02-.88.05v3.24Zm0,2.56v3.84c.24.03.51.05.79.06.29.01.6.02.94.02,1,0,1.81-.14,2.43-.43s.92-.82.92-1.59c0-.69-.26-1.18-.77-1.47-.51-.29-1.25-.44-2.21-.44h-2.1Z" style="fill: #a3ea2a;"/>
  </g>
  <g id="Desktop_variation" data-name="Desktop variation">
    <g>
      <g id="Desktop_Computer" data-name="Desktop Computer">
        <g>
          <path d="m121.58,152.11v62c0,2.07-1.43,3.86-3.45,4.31l-8.56,1.93-17.3,3.9c.54-.17,2.15-1.03,2.19-5.39.02-2.33-.26-18.67-.57-36.09-.32-17.89-.69-36.91-.8-43.05-.02-.85-.26-1.66-.7-2.36-.38-.61-.9-1.13-1.53-1.52-.09-.06-.19-.11-.28-.16-.34-.19-.69-.34-1.05-.44l.8-.03,2.57-.11c2.39-.1,4.76.49,6.82,1.7l19.68,11.5c1.36.79,2.19,2.25,2.19,3.82Z" style="fill: #525a6a;"/>
          <path d="m109.55,220.36l-17.3,3.9c.54-.17,2.15-1.03,2.19-5.39.02-2.33-.26-18.67-.57-36.09,1.03,5.4,6.53,31.94,15.69,37.59Z" style="fill: #525a6a;"/>
          <path d="m121.58,152.11v4.74c-3.93-8.48-21.75-17.97-24.56-18.57-1.89-.4-3.61-.72-4.64-.91-.64-.11-1.02-.18-1.02-.18l-.8-1.51-.58-.94,2.37.07c2.76.09,5.45.86,7.83,2.25l19.22,11.22c1.36.79,2.19,2.25,2.19,3.82Z" style="fill: #525a6a;"/>
          <path d="m92.24,224.25c-.11.03-.17.04-.17.04l.17-.04Z" style="fill: #2c2c2c;"/>
          <path d="m63.32,136.88l26.01-2.04c2.16-.17,4.02,1.4,4.05,3.41l1.04,82.88c.03,2.02-1.81,3.63-3.98,3.49l-27.05-1.64c-1.96-.12-3.49-1.63-3.49-3.45v-79.19c0-1.8,1.49-3.3,3.42-3.45Z" style="fill: #89bd27;"/>
          <path d="m92.89,220.23c.03,1.99-1.7,3.57-3.76,3.45l-25.58-1.62c-1.86-.12-3.3-1.61-3.3-3.4v-78.14c0-1.77,1.41-3.26,3.24-3.41l6.48-.53,18.16-1.48c2.05-.17,3.81,1.38,3.83,3.36l.35,36.77.53,41.71.04,3.3Z" style="fill: #727c92;"/>
          <path d="m92.89,220.18c.03,1.99-1.7,3.57-3.76,3.45l-25.58-1.62c-1.86-.12-3.3-1.61-3.3-3.4v-78.04c0-1.77,1.41-3.25,3.24-3.4l6.47-.53,22.89,80.25.04,3.3Z" style="fill: #525a6a; opacity: .65;"/>
          <path d="m61.31,141.34v4.6c0,.6.52,1.07,1.14,1.02l26.95-1.89c.56-.04.99-.49.99-1.02v-5.07c0-.6-.54-1.08-1.16-1.02l-26.95,2.37c-.55.05-.97.49-.97,1.02Z" style="fill: #d4d8df;"/>
          <path d="m61.31,150.55v4.6c0,.59.51,1.06,1.12,1.03l26.95-1.42c.56-.03,1-.48,1-1.03v-5.07c0-.6-.52-1.07-1.14-1.02l-26.95,1.89c-.56.04-.99.49-.99,1.02Z" style="fill: #d4d8df;"/>
          <path d="m61.31,159.77v4.6c0,.58.5,1.05,1.1,1.03l26.95-.95c.57-.02,1.02-.47,1.02-1.03v-5.08c0-.59-.51-1.06-1.12-1.03l-26.95,1.42c-.56.03-1,.48-1,1.03Z" style="fill: #d4d8df;"/>
          <polygon points="85.81 182.99 85.81 184.4 66.42 184.4 66.42 174.18 67.13 174.16 67.13 182.99 85.81 182.99" style="fill: #1c2538;"/>
          <polygon points="85.81 173.69 85.81 182.99 67.13 182.99 67.13 174.18 85.81 173.69" style="fill: #d4d8df;"/>
          <polyline points="69.59 213.47 69.59 215.06 72.59 215.06 72.59 213.47 69.59 213.47" style="fill: #d4d8df;"/>
          <polyline points="76.82 213.65 76.82 215.24 80.34 215.24 80.34 213.65 76.82 213.65" style="fill: #d4d8df;"/>
          <polygon points="85.81 178.7 67.3 178.85 67.3 179.77 85.81 179.77 85.81 178.7" style="fill: #1c2538;"/>
          <path d="m92.87,220.19c.03,1.98-1.7,3.57-3.75,3.44l-25.56-1.62c-1.86-.12-3.3-1.61-3.3-3.4v-36.07c.49,5.86.06,31.38,4.3,35.9,3.44,3.66,18.81,3.53,23.67,2.42,4.78-1.09,3.94-31.7,4.1-45.58l.54,44.92Z" style="fill: #1c2538;"/>
          <polygon points="118.4 157.95 118.63 213.23 116.82 213.66 116.37 156.65 118.4 157.95" style="fill: #727c92; opacity: .65;"/>
          <path d="m64.58,218.46l-3.21,2.16-.32.15s.41.79,1.67,1.14l2.97-2.57s-1.01-.65-1.1-.88Z" style="fill: #e8e8e8; opacity: .26;"/>
          <path d="m60.88,221.69s2.12,1.14,3.13,1.21l24.21,1.57c1.1.07,2.27-.11,3.2-.7l1.89-1.64-.1-.02-1.52.97c-1.21.78-2.73,1.05-4.17.96l-23.26-1.41c-1.08-.07-3.39-.92-3.39-.92h0Z" style="fill: #64930a;"/>
          <path d="m64.31,220.85s5.26,1.45,11.91,1.64c6.65.19,12.73-.43,14.41-.91,0,0-10.75.67-14.41.53-3.66-.14-12.15-1.35-12.15-1.35" style="fill: #e8e8e8; opacity: .26;"/>
          <path d="m91.3,135.65s1.17.98,1.18,2.25.39,29.7.39,29.7c0,0,.88-27.55.53-29.41-.34-1.86-2.1-2.54-2.1-2.54Z" style="fill: #a3ea2a; opacity: .36;"/>
        </g>
      </g>
      <rect x="114.74" y="211.84" width="15.23" height="12.27" style="fill: url(#linear-gradient);"/>
      <rect x="78.31" y="164.32" width="88.08" height="52.93" rx="1.48" ry="1.48" style="fill: url(#linear-gradient-2);"/>
      <path d="m166.39,165.81v45.69h-88.08v-45.69c0-.82.66-1.48,1.48-1.48h85.12c.82,0,1.48.66,1.48,1.48Z" style="fill: url(#linear-gradient-3);"/>
      <path d="m109.06,222.98h26.59v1.14c0,.65-.52,1.17-1.17,1.17h-24.25c-.65,0-1.17-.52-1.17-1.17v-1.14h0Z" transform="translate(244.71 448.27) rotate(180)" style="fill: url(#linear-gradient-4);"/>
      <circle cx="122.35" cy="215" r="1.52" style="fill: #1c2538;"/>
      <path d="m81.56,207.86v-40.01c0-.54.43-.97.97-.97h79.64c.54,0,.97.43.97.97v40.01c0,.73-.62,1.33-1.38,1.33h-78.83c-.76,0-1.38-.6-1.38-1.33Z" style="fill: url(#linear-gradient-5);"/>
      <rect x="93.86" y="175.16" width="39.45" height="1.28" style="fill: #a3ea2a;"/>
      <rect x="93.88" y="178.4" width="51.1" height="1.28" style="fill: #a3ea2a;"/>
      <rect x="93.88" y="181.63" width="55.71" height="1.28" style="fill: #a3ea2a;"/>
      <rect x="93.86" y="188.99" width="39.45" height="1.28" style="fill: #a3ea2a;"/>
      <rect x="93.88" y="192.23" width="51.1" height="1.28" style="fill: #a3ea2a;"/>
      <rect x="93.88" y="195.46" width="55.71" height="1.28" style="fill: #a3ea2a;"/>
    </g>
  </g>
  <g id="Desktop_variation-2" data-name="Desktop variation">
    <g>
      <g id="Desktop_Computer-2" data-name="Desktop Computer">
        <g>
          <path d="m973.68,152.11v62c0,2.07-1.43,3.86-3.45,4.31l-8.56,1.93-17.3,3.9c.54-.17,2.15-1.03,2.19-5.39.02-2.33-.26-18.67-.57-36.09-.32-17.89-.69-36.91-.8-43.05-.02-.85-.26-1.66-.7-2.36-.38-.61-.9-1.13-1.53-1.52-.09-.06-.19-.11-.28-.16-.34-.19-.69-.34-1.05-.44l.8-.03,2.57-.11c2.39-.1,4.76.49,6.82,1.7l19.68,11.5c1.36.79,2.19,2.25,2.19,3.82Z" style="fill: #525a6a;"/>
          <path d="m961.65,220.36l-17.3,3.9c.54-.17,2.15-1.03,2.19-5.39.02-2.33-.26-18.67-.57-36.09,1.03,5.4,6.53,31.94,15.69,37.59Z" style="fill: #525a6a;"/>
          <path d="m973.68,152.11v4.74c-3.93-8.48-21.75-17.97-24.56-18.57-1.89-.4-3.61-.72-4.64-.91-.64-.11-1.02-.18-1.02-.18l-.8-1.51-.58-.94,2.37.07c2.76.09,5.45.86,7.83,2.25l19.22,11.22c1.36.79,2.19,2.25,2.19,3.82Z" style="fill: #525a6a;"/>
          <path d="m944.35,224.25c-.11.03-.17.04-.17.04l.17-.04Z" style="fill: #2c2c2c;"/>
          <path d="m915.43,136.88l26.01-2.04c2.16-.17,4.02,1.4,4.05,3.41l1.04,82.88c.03,2.02-1.81,3.63-3.98,3.49l-27.05-1.64c-1.96-.12-3.49-1.63-3.49-3.45v-79.19c0-1.8,1.49-3.3,3.42-3.45Z" style="fill: #89bd27;"/>
          <path d="m945,220.23c.03,1.99-1.7,3.57-3.76,3.45l-25.58-1.62c-1.86-.12-3.3-1.61-3.3-3.4v-78.14c0-1.77,1.41-3.26,3.24-3.41l6.48-.53,18.16-1.48c2.05-.17,3.81,1.38,3.83,3.36l.35,36.77.53,41.71.04,3.3Z" style="fill: #727c92;"/>
          <path d="m945,220.18c.03,1.99-1.7,3.57-3.76,3.45l-25.58-1.62c-1.86-.12-3.3-1.61-3.3-3.4v-78.04c0-1.77,1.41-3.25,3.24-3.4l6.47-.53,22.89,80.25.04,3.3Z" style="fill: #525a6a; opacity: .65;"/>
          <path d="m913.42,141.34v4.6c0,.6.52,1.07,1.14,1.02l26.95-1.89c.56-.04.99-.49.99-1.02v-5.07c0-.6-.54-1.08-1.16-1.02l-26.95,2.37c-.55.05-.97.49-.97,1.02Z" style="fill: #d4d8df;"/>
          <path d="m913.42,150.55v4.6c0,.59.51,1.06,1.12,1.03l26.95-1.42c.56-.03,1-.48,1-1.03v-5.07c0-.6-.52-1.07-1.14-1.02l-26.95,1.89c-.56.04-.99.49-.99,1.02Z" style="fill: #d4d8df;"/>
          <path d="m913.42,159.77v4.6c0,.58.5,1.05,1.1,1.03l26.95-.95c.57-.02,1.02-.47,1.02-1.03v-5.08c0-.59-.51-1.06-1.12-1.03l-26.95,1.42c-.56.03-1,.48-1,1.03Z" style="fill: #d4d8df;"/>
          <polygon points="937.91 182.99 937.91 184.4 918.53 184.4 918.53 174.18 919.24 174.16 919.24 182.99 937.91 182.99" style="fill: #1c2538;"/>
          <polygon points="937.91 173.69 937.91 182.99 919.24 182.99 919.24 174.18 937.91 173.69" style="fill: #d4d8df;"/>
          <polyline points="921.7 213.47 921.7 215.06 924.7 215.06 924.7 213.47 921.7 213.47" style="fill: #d4d8df;"/>
          <polyline points="928.93 213.65 928.93 215.24 932.45 215.24 932.45 213.65 928.93 213.65" style="fill: #d4d8df;"/>
          <polygon points="937.91 178.7 919.41 178.85 919.41 179.77 937.91 179.77 937.91 178.7" style="fill: #1c2538;"/>
          <path d="m944.97,220.19c.03,1.98-1.7,3.57-3.75,3.44l-25.56-1.62c-1.86-.12-3.3-1.61-3.3-3.4v-36.07c.49,5.86.06,31.38,4.3,35.9,3.44,3.66,18.81,3.53,23.67,2.42,4.78-1.09,3.94-31.7,4.1-45.58l.54,44.92Z" style="fill: #1c2538;"/>
          <polygon points="970.51 157.95 970.74 213.23 968.93 213.66 968.48 156.65 970.51 157.95" style="fill: #727c92; opacity: .65;"/>
          <path d="m916.69,218.46l-3.21,2.16-.32.15s.41.79,1.67,1.14l2.97-2.57s-1.01-.65-1.1-.88Z" style="fill: #e8e8e8; opacity: .26;"/>
          <path d="m912.99,221.69s2.12,1.14,3.13,1.21l24.21,1.57c1.1.07,2.27-.11,3.2-.7l1.89-1.64-.1-.02-1.52.97c-1.21.78-2.73,1.05-4.17.96l-23.26-1.41c-1.08-.07-3.39-.92-3.39-.92h0Z" style="fill: #64930a;"/>
          <path d="m916.42,220.85s5.26,1.45,11.91,1.64c6.65.19,12.73-.43,14.41-.91,0,0-10.75.67-14.41.53-3.66-.14-12.15-1.35-12.15-1.35" style="fill: #e8e8e8; opacity: .26;"/>
          <path d="m943.41,135.65s1.17.98,1.18,2.25c0,1.28.39,29.7.39,29.7,0,0,.88-27.55.53-29.41-.34-1.86-2.1-2.54-2.1-2.54Z" style="fill: #a3ea2a; opacity: .36;"/>
        </g>
      </g>
      <rect x="966.85" y="211.84" width="15.23" height="12.27" style="fill: url(#linear-gradient-6);"/>
      <rect x="930.42" y="164.32" width="88.08" height="52.93" rx="1.48" ry="1.48" style="fill: url(#linear-gradient-7);"/>
      <path d="m1018.5,165.81v45.69h-88.08v-45.69c0-.82.66-1.48,1.48-1.48h85.12c.82,0,1.48.66,1.48,1.48Z" style="fill: url(#linear-gradient-8);"/>
      <path d="m961.17,222.98h26.59v1.14c0,.65-.52,1.17-1.17,1.17h-24.25c-.65,0-1.17-.52-1.17-1.17v-1.14h0Z" transform="translate(1948.92 448.27) rotate(180)" style="fill: url(#linear-gradient-9);"/>
      <circle cx="974.46" cy="215" r="1.52" style="fill: #1c2538;"/>
      <path d="m933.67,207.86v-40.01c0-.54.43-.97.97-.97h79.64c.54,0,.97.43.97.97v40.01c0,.73-.62,1.33-1.38,1.33h-78.83c-.76,0-1.38-.6-1.38-1.33Z" style="fill: url(#linear-gradient-10);"/>
      <rect x="945.97" y="175.16" width="39.45" height="1.28" style="fill: #a3ea2a;"/>
      <rect x="945.99" y="178.4" width="51.1" height="1.28" style="fill: #a3ea2a;"/>
      <rect x="945.99" y="181.63" width="55.71" height="1.28" style="fill: #a3ea2a;"/>
      <rect x="945.97" y="188.99" width="39.45" height="1.28" style="fill: #a3ea2a;"/>
      <rect x="945.99" y="192.23" width="51.1" height="1.28" style="fill: #a3ea2a;"/>
      <rect x="945.99" y="195.46" width="55.71" height="1.28" style="fill: #a3ea2a;"/>
    </g>
  </g>
  <g id="Router">
    <g>
      <path d="m573.21,67.52c-.01,15.47-21.1,28.03-47.11,28.05-26,.02-47.07-12.5-47.06-27.97v-16.08s94.18-.08,94.18-.08v16.08Z" style="fill: url(#linear-gradient-11);"/>
      <ellipse cx="526.14" cy="51.48" rx="47.08" ry="28.01" transform="translate(-.09 .96) rotate(-.1)" style="fill: url(#linear-gradient-12);"/>
      <polygon points="515.78 47.92 499.85 47.93 499.85 43.27 487.14 50.59 499.84 57.89 499.84 53.22 515.78 53.21 515.78 47.92" style="fill: url(#linear-gradient-13);"/>
      <polygon points="536.51 53.19 552.44 53.18 552.44 57.84 565.15 50.52 552.45 43.22 552.45 47.89 536.51 47.9 536.51 53.19" style="fill: url(#linear-gradient-14);"/>
      <polygon points="523.49 54.49 523.48 64.67 523.48 65.74 518.79 65.74 526.12 78.39 533.47 65.73 528.79 65.73 528.79 64.66 528.8 54.49 523.49 54.49" style="fill: url(#linear-gradient-15);"/>
      <polygon points="528.36 46.62 528.37 36.01 528.37 35.12 532.27 35.12 526.17 24.57 520.04 35.13 523.95 35.12 523.94 36.01 523.94 46.62 528.36 46.62" style="fill: url(#linear-gradient-16);"/>
    </g>
  </g>
  <g id="Router-2" data-name="Router">
    <g>
      <path d="m573.21,316.96c-.01,15.47-21.1,28.03-47.11,28.05-26,.02-47.07-12.5-47.06-27.97v-16.08s94.18-.08,94.18-.08v16.08Z" style="fill: url(#linear-gradient-17);"/>
      <ellipse cx="526.14" cy="300.92" rx="47.08" ry="28.01" transform="translate(-.55 .96) rotate(-.1)" style="fill: url(#linear-gradient-18);"/>
      <polygon points="515.78 297.36 499.85 297.37 499.85 292.71 487.14 300.03 499.84 307.33 499.84 302.66 515.78 302.65 515.78 297.36" style="fill: url(#linear-gradient-19);"/>
      <polygon points="536.51 302.63 552.44 302.62 552.44 307.28 565.15 299.96 552.45 292.66 552.45 297.33 536.51 297.34 536.51 302.63" style="fill: url(#linear-gradient-20);"/>
      <polygon points="523.49 303.93 523.48 314.11 523.48 315.17 518.79 315.18 526.12 327.83 533.47 315.17 528.79 315.17 528.79 314.1 528.8 303.93 523.49 303.93" style="fill: url(#linear-gradient-21);"/>
      <polygon points="528.36 296.06 528.37 285.45 528.37 284.56 532.27 284.55 526.17 274.01 520.04 284.56 523.95 284.56 523.94 285.45 523.94 296.06 528.36 296.06" style="fill: url(#linear-gradient-22);"/>
    </g>
  </g>
  <g id="Router-3" data-name="Router">
    <g>
      <path d="m389.61,188.01c-.01,15.47-21.1,28.03-47.11,28.05-26,.02-47.07-12.5-47.06-27.97v-16.08s94.18-.08,94.18-.08c0,0,0,6.72-.01,16.08Z" style="fill: url(#linear-gradient-23);"/>
      <ellipse cx="342.55" cy="171.98" rx="47.08" ry="28.01" transform="translate(-.31 .63) rotate(-.1)" style="fill: url(#linear-gradient-24);"/>
      <polygon points="332.19 168.42 316.25 168.43 316.25 163.76 303.54 171.09 316.24 178.38 316.25 173.72 332.18 173.71 332.19 168.42" style="fill: url(#linear-gradient-25);"/>
      <polygon points="352.91 173.69 368.84 173.67 368.84 178.34 381.55 171.02 368.85 163.72 368.85 168.38 352.91 168.4 352.91 173.69" style="fill: url(#linear-gradient-26);"/>
      <polygon points="339.89 174.99 339.88 185.17 339.88 186.23 335.2 186.24 342.52 198.88 349.87 186.22 345.19 186.23 345.19 185.16 345.2 174.99 339.89 174.99" style="fill: url(#linear-gradient-27);"/>
      <polygon points="344.76 167.11 344.77 156.5 344.77 155.61 348.68 155.61 342.57 145.07 336.45 155.62 340.35 155.62 340.35 156.51 340.34 167.12 344.76 167.11" style="fill: url(#linear-gradient-28);"/>
    </g>
  </g>
  <g id="Router-4" data-name="Router">
    <g>
      <path d="m761.92,188.01c-.01,15.47-21.1,28.03-47.11,28.05-26,.02-47.07-12.5-47.06-27.97v-16.08s94.18-.08,94.18-.08c0,0,0,6.72-.01,16.08Z" style="fill: url(#linear-gradient-29);"/>
      <ellipse cx="714.86" cy="171.98" rx="47.08" ry="28.01" transform="translate(-.31 1.31) rotate(-.1)" style="fill: url(#linear-gradient-30);"/>
      <polygon points="704.5 168.42 688.56 168.43 688.57 163.76 675.85 171.09 688.55 178.38 688.56 173.72 704.49 173.71 704.5 168.42" style="fill: url(#linear-gradient-31);"/>
      <polygon points="725.22 173.69 741.16 173.67 741.15 178.34 753.86 171.02 741.16 163.72 741.16 168.38 725.23 168.4 725.22 173.69" style="fill: url(#linear-gradient-32);"/>
      <polygon points="712.2 174.99 712.19 185.17 712.19 186.23 707.51 186.24 714.83 198.88 722.18 186.22 717.5 186.23 717.5 185.16 717.51 174.99 712.2 174.99" style="fill: url(#linear-gradient-33);"/>
      <polygon points="717.07 167.11 717.08 156.5 717.08 155.61 720.99 155.61 714.88 145.07 708.76 155.62 712.66 155.62 712.66 156.51 712.65 167.12 717.07 167.11" style="fill: url(#linear-gradient-34);"/>
    </g>
  </g>
</svg>