<?xml version="1.0" encoding="UTF-8"?>
<svg id="Layer_1" data-name="Layer 1" xmlns="http://www.w3.org/2000/svg" width="1040" height="696.65" xmlns:xlink="http://www.w3.org/1999/xlink" viewBox="0 0 1040 696.65">
  <defs>
    <linearGradient id="linear-gradient" x1="91.54" y1="376.95" x2="91.54" y2="347.35" gradientUnits="userSpaceOnUse">
      <stop offset=".42" stop-color="#9da8c4"/>
      <stop offset=".66" stop-color="#4f5669"/>
      <stop offset=".84" stop-color="#1a1a1a"/>
    </linearGradient>
    <linearGradient id="linear-gradient-2" x1="67.68" y1="322.07" x2="177.58" y2="401.49" gradientUnits="userSpaceOnUse">
      <stop offset="0" stop-color="#9da8c4"/>
      <stop offset=".57" stop-color="#4f5669"/>
      <stop offset="1" stop-color="#444b5c"/>
    </linearGradient>
    <linearGradient id="linear-gradient-3" x1="111.4" y1="353.67" x2="71.2" y2="321.44" gradientUnits="userSpaceOnUse">
      <stop offset=".12" stop-color="#525a6a"/>
      <stop offset=".29" stop-color="#586071"/>
      <stop offset=".55" stop-color="#687286"/>
      <stop offset=".66" stop-color="#727c92"/>
    </linearGradient>
    <linearGradient id="linear-gradient-4" x1="335.68" y1="3132.42" x2="335.57" y2="3139.59" gradientTransform="translate(-244.08 -2776.75)" xlink:href="#linear-gradient"/>
    <linearGradient id="linear-gradient-5" x1="91.54" y1="358.58" x2="91.54" y2="303.06" gradientUnits="userSpaceOnUse">
      <stop offset=".12" stop-color="#1c2538"/>
      <stop offset=".34" stop-color="#1d293f"/>
      <stop offset=".66" stop-color="#223654"/>
    </linearGradient>
    <linearGradient id="linear-gradient-6" x1="531.99" y1="126.32" x2="531.99" y2="23.18" gradientUnits="userSpaceOnUse">
      <stop offset="0" stop-color="#2a59be"/>
      <stop offset=".54" stop-color="#02adef"/>
      <stop offset=".6" stop-color="#06aeef"/>
      <stop offset=".65" stop-color="#12b2f0"/>
      <stop offset=".71" stop-color="#27b9f1"/>
      <stop offset=".77" stop-color="#44c2f3"/>
      <stop offset=".83" stop-color="#6acef5"/>
      <stop offset=".89" stop-color="#98ddf8"/>
      <stop offset=".95" stop-color="#cdeffb"/>
      <stop offset="1" stop-color="#fff"/>
    </linearGradient>
    <linearGradient id="linear-gradient-7" x1="533.32" y1="126.91" x2="533.32" y2="24.87" gradientUnits="userSpaceOnUse">
      <stop offset="0" stop-color="#2a59be"/>
      <stop offset=".44" stop-color="#099ee7"/>
      <stop offset=".5" stop-color="#07a0e8"/>
      <stop offset=".53" stop-color="#03a8ec"/>
      <stop offset=".54" stop-color="#02adef"/>
      <stop offset=".6" stop-color="#06aeef"/>
      <stop offset=".65" stop-color="#12b2f0"/>
      <stop offset=".71" stop-color="#27b9f1"/>
      <stop offset=".77" stop-color="#44c2f3"/>
      <stop offset=".83" stop-color="#6acef5"/>
      <stop offset=".89" stop-color="#98ddf8"/>
      <stop offset=".95" stop-color="#cdeffb"/>
      <stop offset="1" stop-color="#fff"/>
    </linearGradient>
    <linearGradient id="linear-gradient-8" x1="534.66" y1="127.51" x2="534.66" y2="26.55" gradientUnits="userSpaceOnUse">
      <stop offset="0" stop-color="#2a59be"/>
      <stop offset=".44" stop-color="#09a0e8"/>
      <stop offset=".5" stop-color="#07a2e9"/>
      <stop offset=".54" stop-color="#03aaed"/>
      <stop offset=".54" stop-color="#02adef"/>
      <stop offset=".6" stop-color="#06aeef"/>
      <stop offset=".65" stop-color="#12b2f0"/>
      <stop offset=".71" stop-color="#27b9f1"/>
      <stop offset=".77" stop-color="#44c2f3"/>
      <stop offset=".83" stop-color="#6acef5"/>
      <stop offset=".89" stop-color="#98ddf8"/>
      <stop offset=".95" stop-color="#cdeffb"/>
      <stop offset="1" stop-color="#fff"/>
    </linearGradient>
    <linearGradient id="linear-gradient-9" x1="536" y1="128.11" x2="536" y2="28.24" gradientUnits="userSpaceOnUse">
      <stop offset="0" stop-color="#2a59be"/>
      <stop offset=".44" stop-color="#08a1e8"/>
      <stop offset=".5" stop-color="#06a3e9"/>
      <stop offset=".54" stop-color="#02abee"/>
      <stop offset=".54" stop-color="#02adef"/>
      <stop offset=".6" stop-color="#06aeef"/>
      <stop offset=".65" stop-color="#12b2f0"/>
      <stop offset=".71" stop-color="#27b9f1"/>
      <stop offset=".77" stop-color="#44c2f3"/>
      <stop offset=".83" stop-color="#6acef5"/>
      <stop offset=".89" stop-color="#98ddf8"/>
      <stop offset=".95" stop-color="#cdeffb"/>
      <stop offset="1" stop-color="#fff"/>
    </linearGradient>
    <linearGradient id="linear-gradient-10" x1="537.34" y1="128.7" x2="537.34" y2="29.93" gradientUnits="userSpaceOnUse">
      <stop offset="0" stop-color="#2a59be"/>
      <stop offset=".44" stop-color="#07a3e9"/>
      <stop offset=".51" stop-color="#05a5ea"/>
      <stop offset=".54" stop-color="#02adef"/>
      <stop offset=".6" stop-color="#06aeef"/>
      <stop offset=".65" stop-color="#12b2f0"/>
      <stop offset=".71" stop-color="#27b9f1"/>
      <stop offset=".77" stop-color="#44c2f3"/>
      <stop offset=".83" stop-color="#6acef5"/>
      <stop offset=".89" stop-color="#98ddf8"/>
      <stop offset=".95" stop-color="#cdeffb"/>
      <stop offset="1" stop-color="#fff"/>
    </linearGradient>
    <linearGradient id="linear-gradient-11" x1="538.67" y1="129.3" x2="538.67" y2="31.61" gradientUnits="userSpaceOnUse">
      <stop offset="0" stop-color="#2a59be"/>
      <stop offset=".44" stop-color="#06a4ea"/>
      <stop offset=".51" stop-color="#04a6eb"/>
      <stop offset=".54" stop-color="#02adef"/>
      <stop offset=".6" stop-color="#06aeef"/>
      <stop offset=".65" stop-color="#12b2f0"/>
      <stop offset=".71" stop-color="#27b9f1"/>
      <stop offset=".77" stop-color="#44c2f3"/>
      <stop offset=".83" stop-color="#6acef5"/>
      <stop offset=".89" stop-color="#98ddf8"/>
      <stop offset=".95" stop-color="#cdeffb"/>
      <stop offset="1" stop-color="#fff"/>
    </linearGradient>
    <linearGradient id="linear-gradient-12" x1="540.01" y1="129.9" x2="540.01" y2="33.3" gradientUnits="userSpaceOnUse">
      <stop offset="0" stop-color="#2a59be"/>
      <stop offset=".44" stop-color="#06a6eb"/>
      <stop offset=".51" stop-color="#04a8ec"/>
      <stop offset=".54" stop-color="#03adef"/>
      <stop offset=".6" stop-color="#07aeef"/>
      <stop offset=".65" stop-color="#13b2f0"/>
      <stop offset=".71" stop-color="#28b9f1"/>
      <stop offset=".77" stop-color="#45c2f3"/>
      <stop offset=".83" stop-color="#6bcef5"/>
      <stop offset=".89" stop-color="#99ddf8"/>
      <stop offset=".95" stop-color="#ceeffb"/>
      <stop offset="1" stop-color="#fff"/>
    </linearGradient>
    <linearGradient id="linear-gradient-13" x1="541.35" y1="130.49" x2="541.35" y2="34.99" gradientUnits="userSpaceOnUse">
      <stop offset="0" stop-color="#2a59be"/>
      <stop offset=".44" stop-color="#05a7ec"/>
      <stop offset=".52" stop-color="#04a9ed"/>
      <stop offset=".54" stop-color="#03adef"/>
      <stop offset=".6" stop-color="#07aeef"/>
      <stop offset=".65" stop-color="#13b2f0"/>
      <stop offset=".71" stop-color="#28b9f1"/>
      <stop offset=".77" stop-color="#45c2f3"/>
      <stop offset=".83" stop-color="#6bcef5"/>
      <stop offset=".89" stop-color="#99ddf8"/>
      <stop offset=".95" stop-color="#ceeffb"/>
      <stop offset="1" stop-color="#fff"/>
    </linearGradient>
    <linearGradient id="linear-gradient-14" x1="542.69" y1="131.09" x2="542.69" y2="36.67" gradientUnits="userSpaceOnUse">
      <stop offset="0" stop-color="#2a59be"/>
      <stop offset=".44" stop-color="#04a9ed"/>
      <stop offset=".53" stop-color="#03abee"/>
      <stop offset=".54" stop-color="#03adef"/>
      <stop offset=".6" stop-color="#07aeef"/>
      <stop offset=".65" stop-color="#13b2f0"/>
      <stop offset=".71" stop-color="#28b9f1"/>
      <stop offset=".77" stop-color="#45c2f3"/>
      <stop offset=".83" stop-color="#6bcef5"/>
      <stop offset=".89" stop-color="#99ddf8"/>
      <stop offset=".95" stop-color="#ceeffb"/>
      <stop offset="1" stop-color="#fff"/>
    </linearGradient>
    <linearGradient id="linear-gradient-15" x1="544.02" y1="131.69" x2="544.02" y2="38.36" gradientUnits="userSpaceOnUse">
      <stop offset="0" stop-color="#2a59be"/>
      <stop offset=".44" stop-color="#03aaed"/>
      <stop offset=".54" stop-color="#03acee"/>
      <stop offset=".54" stop-color="#03adef"/>
      <stop offset=".6" stop-color="#07aeef"/>
      <stop offset=".65" stop-color="#13b2f0"/>
      <stop offset=".71" stop-color="#28b9f1"/>
      <stop offset=".77" stop-color="#45c2f3"/>
      <stop offset=".83" stop-color="#6bcef5"/>
      <stop offset=".89" stop-color="#99ddf8"/>
      <stop offset=".95" stop-color="#ceeffb"/>
      <stop offset="1" stop-color="#fff"/>
    </linearGradient>
    <linearGradient id="linear-gradient-16" x1="545.36" y1="132.28" x2="545.36" y2="40.05" gradientUnits="userSpaceOnUse">
      <stop offset="0" stop-color="#2a59be"/>
      <stop offset=".44" stop-color="#03acee"/>
      <stop offset=".54" stop-color="#03adef"/>
      <stop offset=".6" stop-color="#07aeef"/>
      <stop offset=".65" stop-color="#13b2f0"/>
      <stop offset=".71" stop-color="#28b9f1"/>
      <stop offset=".77" stop-color="#45c2f3"/>
      <stop offset=".83" stop-color="#6bcef5"/>
      <stop offset=".89" stop-color="#99ddf8"/>
      <stop offset=".95" stop-color="#ceeffb"/>
      <stop offset="1" stop-color="#fff"/>
    </linearGradient>
    <linearGradient id="linear-gradient-17" x1="546.7" y1="132.88" x2="546.7" y2="41.73" gradientUnits="userSpaceOnUse">
      <stop offset="0" stop-color="#2a59be"/>
      <stop offset=".44" stop-color="#02adef"/>
      <stop offset=".57" stop-color="#04adef"/>
      <stop offset=".64" stop-color="#0cb0ef"/>
      <stop offset=".71" stop-color="#1bb5f0"/>
      <stop offset=".76" stop-color="#2fbbf1"/>
      <stop offset=".81" stop-color="#4ac4f3"/>
      <stop offset=".86" stop-color="#6acef5"/>
      <stop offset=".91" stop-color="#90dbf8"/>
      <stop offset=".95" stop-color="#bde9fa"/>
      <stop offset=".99" stop-color="#eef9fd"/>
      <stop offset="1" stop-color="#fff"/>
    </linearGradient>
    <linearGradient id="linear-gradient-18" x1="604.69" y1="72.15" x2="464.61" y2="102.33" gradientUnits="userSpaceOnUse">
      <stop offset="0" stop-color="#02adef"/>
      <stop offset=".09" stop-color="#0cb0ef"/>
      <stop offset=".23" stop-color="#27b9f1"/>
      <stop offset=".43" stop-color="#54c7f4"/>
      <stop offset=".65" stop-color="#93dcf8"/>
      <stop offset=".91" stop-color="#e1f5fd"/>
      <stop offset="1" stop-color="#fff"/>
    </linearGradient>
    <radialGradient id="radial-gradient" cx="552.75" cy="101.87" fx="552.75" fy="101.87" r="26.99" gradientUnits="userSpaceOnUse">
      <stop offset="0" stop-color="#1c2538"/>
      <stop offset="1" stop-color="#2a59be"/>
    </radialGradient>
    <linearGradient id="linear-gradient-19" x1="214.26" x2="214.26" xlink:href="#linear-gradient"/>
    <linearGradient id="linear-gradient-20" x1="190.4" y1="322.07" x2="300.3" y2="401.49" xlink:href="#linear-gradient-2"/>
    <linearGradient id="linear-gradient-21" x1="234.12" y1="353.67" x2="193.92" y2="321.44" xlink:href="#linear-gradient-3"/>
    <linearGradient id="linear-gradient-22" x1="212.96" y1="3132.42" x2="212.85" y2="3139.59" gradientTransform="translate(1.36 -2776.75)" xlink:href="#linear-gradient"/>
    <linearGradient id="linear-gradient-23" x1="214.26" x2="214.26" xlink:href="#linear-gradient-5"/>
    <linearGradient id="linear-gradient-24" x1="347.35" y1="376.95" x2="347.35" y2="347.35" xlink:href="#linear-gradient"/>
    <linearGradient id="linear-gradient-25" x1="323.49" y1="322.07" x2="433.39" y2="401.49" xlink:href="#linear-gradient-2"/>
    <linearGradient id="linear-gradient-26" x1="367.21" y1="353.67" x2="327.01" y2="321.44" xlink:href="#linear-gradient-3"/>
    <linearGradient id="linear-gradient-27" x1="79.87" y1="3132.42" x2="79.76" y2="3139.59" gradientTransform="translate(267.55 -2776.75)" xlink:href="#linear-gradient"/>
    <linearGradient id="linear-gradient-28" x1="347.35" y1="358.58" x2="347.35" y2="303.06" xlink:href="#linear-gradient-5"/>
    <linearGradient id="linear-gradient-29" x1="-33.68" y1="341.77" x2="53.02" y2="341.77" gradientTransform="translate(225.33 -114.03)" gradientUnits="userSpaceOnUse">
      <stop offset="0" stop-color="#1c2538"/>
      <stop offset=".46" stop-color="#1e2b42"/>
      <stop offset="1" stop-color="#223654"/>
    </linearGradient>
    <linearGradient id="linear-gradient-30" x1="-33.66" y1="321.5" x2="60.97" y2="321.5" gradientTransform="translate(225.92 -114.04) rotate(.1)" gradientUnits="userSpaceOnUse">
      <stop offset="0" stop-color="#223654"/>
      <stop offset=".17" stop-color="#22395e"/>
      <stop offset=".45" stop-color="#244279"/>
      <stop offset=".82" stop-color="#2851a6"/>
      <stop offset="1" stop-color="#2a59be"/>
    </linearGradient>
    <linearGradient id="linear-gradient-31" x1="397.77" y1="63.51" x2="401.03" y2="70.53" gradientTransform="translate(-194.22 220.81) rotate(-12.06)" gradientUnits="userSpaceOnUse">
      <stop offset="0" stop-color="#2a59be"/>
      <stop offset=".89" stop-color="#1c2538"/>
    </linearGradient>
    <linearGradient id="linear-gradient-32" x1="444.94" y1="76.65" x2="444.66" y2="82.33" gradientTransform="translate(-194.22 220.81) rotate(-12.06)" gradientUnits="userSpaceOnUse">
      <stop offset="0" stop-color="#2a59be"/>
      <stop offset=".83" stop-color="#1c2538"/>
    </linearGradient>
    <linearGradient id="linear-gradient-33" x1="416.27" y1="88.31" x2="422.56" y2="91.16" gradientTransform="translate(-194.22 220.81) rotate(-12.06)" gradientUnits="userSpaceOnUse">
      <stop offset="0" stop-color="#2a59be"/>
      <stop offset=".89" stop-color="#1c2538"/>
    </linearGradient>
    <linearGradient id="linear-gradient-34" x1="423.22" y1="62.1" x2="429.18" y2="62.95" xlink:href="#linear-gradient-31"/>
    <linearGradient id="linear-gradient-35" x1="709.9" x2="709.9" xlink:href="#linear-gradient"/>
    <linearGradient id="linear-gradient-36" x1="686.04" x2="795.94" y2="401.49" xlink:href="#linear-gradient-2"/>
    <linearGradient id="linear-gradient-37" x1="729.76" y1="353.67" x2="689.56" y2="321.44" xlink:href="#linear-gradient-3"/>
    <linearGradient id="linear-gradient-38" x1="-282.68" y1="3132.42" x2="-282.79" y2="3139.59" gradientTransform="translate(992.65 -2776.75)" xlink:href="#linear-gradient"/>
    <linearGradient id="linear-gradient-39" x1="709.9" x2="709.9" xlink:href="#linear-gradient-5"/>
    <linearGradient id="linear-gradient-40" x1="822.91" y1="376.95" x2="822.91" y2="347.35" xlink:href="#linear-gradient"/>
    <linearGradient id="linear-gradient-41" x1="799.05" y1="322.07" x2="908.95" y2="401.49" xlink:href="#linear-gradient-2"/>
    <linearGradient id="linear-gradient-42" x1="842.77" y1="353.67" x2="802.58" y2="321.44" xlink:href="#linear-gradient-3"/>
    <linearGradient id="linear-gradient-43" x1="-395.69" y1="3132.42" x2="-395.8" y2="3139.59" gradientTransform="translate(1218.67 -2776.75)" xlink:href="#linear-gradient"/>
    <linearGradient id="linear-gradient-44" x1="822.91" y1="358.58" x2="822.91" y2="303.06" xlink:href="#linear-gradient-5"/>
    <linearGradient id="linear-gradient-45" x1="929.27" y1="376.95" x2="929.27" y2="347.35" xlink:href="#linear-gradient"/>
    <linearGradient id="linear-gradient-46" x1="905.41" x2="1015.31" y2="401.49" xlink:href="#linear-gradient-2"/>
    <linearGradient id="linear-gradient-47" x1="949.12" y1="353.67" x2="908.93" y2="321.44" xlink:href="#linear-gradient-3"/>
    <linearGradient id="linear-gradient-48" x1="-502.05" y1="3132.42" x2="-502.16" y2="3139.59" gradientTransform="translate(1431.38 -2776.75)" xlink:href="#linear-gradient"/>
    <linearGradient id="linear-gradient-49" x1="929.27" y1="358.58" x2="929.27" y2="303.06" xlink:href="#linear-gradient-5"/>
    <linearGradient id="linear-gradient-50" x1="561.24" x2="647.94" xlink:href="#linear-gradient-29"/>
    <linearGradient id="linear-gradient-51" x1="561.25" x2="655.89" gradientTransform="translate(225.92 -115.13) rotate(.1)" xlink:href="#linear-gradient-30"/>
    <linearGradient id="linear-gradient-52" x1="979.55" y1="187.85" x2="982.81" y2="194.87" xlink:href="#linear-gradient-31"/>
    <linearGradient id="linear-gradient-53" x1="1026.72" y1="200.99" x2="1026.44" y2="206.67" xlink:href="#linear-gradient-32"/>
    <linearGradient id="linear-gradient-54" x1="998.05" y1="212.65" x2="1004.33" y2="215.5" xlink:href="#linear-gradient-33"/>
    <linearGradient id="linear-gradient-55" x1="1005" y1="186.44" x2="1010.95" y2="187.29" xlink:href="#linear-gradient-31"/>
  </defs>
  <rect x="84.13" y="182.7" width="210.73" height="185.41" style="fill: #727c92;"/>
  <rect x="747.29" y="182.7" width="210.73" height="185.41" style="fill: #9f00ff;"/>
  <line x1="544.79" y1="80.07" x2="244.55" y2="209.04" style="fill: none; stroke: #a3ea2a; stroke-miterlimit: 10; stroke-width: 5px;"/>
  <line x1="564.71" y1="91.03" x2="827.48" y2="210.24" style="fill: none; stroke: #a3ea2a; stroke-miterlimit: 10; stroke-width: 5px;"/>
  <g>
    <line x1="232.56" y1="219.61" x2="230.01" y2="221.19" style="fill: none; stroke: #a3ea2a; stroke-miterlimit: 10; stroke-width: 5px;"/>
    <line x1="224.94" y1="224.32" x2="95.77" y2="304.18" style="fill: none; stroke: #a3ea2a; stroke-dasharray: 0 0 5.96 5.96; stroke-miterlimit: 10; stroke-width: 5px;"/>
    <line x1="93.24" y1="305.75" x2="90.68" y2="307.32" style="fill: none; stroke: #a3ea2a; stroke-miterlimit: 10; stroke-width: 5px;"/>
  </g>
  <rect x="294.86" y="277.67" width="93.48" height="90.44" style="fill: #02adef;"/>
  <rect x="654.77" y="277.67" width="93.48" height="90.44" style="fill: #02adef;"/>
  <rect x="159.07" y="423.25" width="148.9" height="37.96" rx="5.76" ry="5.76" style="fill: #223654;"/>
  <g>
    <path d="m179.98,448.95c-.96-1.7-2-3.38-3.11-5.04-1.12-1.66-2.3-3.23-3.56-4.7v9.75h-3.31v-14.88h2.73c.47.47.99,1.05,1.57,1.74.57.69,1.16,1.42,1.75,2.2s1.18,1.59,1.77,2.43,1.14,1.64,1.65,2.42v-8.78h3.33v14.88h-2.81Z" style="fill: #a3ea2a;"/>
    <path d="m185.48,443.39c0-1,.15-1.88.46-2.63.31-.75.71-1.38,1.21-1.88s1.08-.88,1.73-1.14,1.32-.39,2.01-.39c1.6,0,2.87.49,3.8,1.47s1.4,2.42,1.4,4.33c0,.19,0,.39-.02.61s-.03.42-.04.59h-7.26c.07.66.38,1.18.92,1.57.54.39,1.27.58,2.19.58.59,0,1.16-.05,1.73-.16s1.03-.24,1.38-.4l.43,2.6c-.17.09-.4.17-.69.26s-.6.16-.96.23c-.35.06-.73.12-1.13.16-.4.04-.8.06-1.2.06-1.02,0-1.9-.15-2.65-.45-.75-.3-1.37-.71-1.87-1.23-.49-.52-.86-1.14-1.1-1.86-.24-.71-.35-1.49-.35-2.32Zm7.51-1.22c-.01-.27-.06-.54-.14-.79-.08-.26-.2-.49-.36-.69-.17-.2-.37-.37-.62-.49s-.56-.19-.93-.19-.67.06-.92.18c-.26.12-.47.28-.64.48s-.3.43-.4.7c-.09.27-.16.53-.2.81h4.23Z" style="fill: #a3ea2a;"/>
    <path d="m198.45,434.84l3.2-.52v3.33h3.84v2.66h-3.84v3.97c0,.67.12,1.21.35,1.61.24.4.71.6,1.43.6.34,0,.7-.03,1.06-.1.36-.06.7-.15,1-.27l.45,2.49c-.39.16-.82.29-1.29.41-.47.11-1.05.17-1.74.17-.87,0-1.6-.12-2.17-.35s-1.03-.57-1.37-.99-.58-.93-.72-1.54c-.14-.6-.2-1.27-.2-2v-9.49Z" style="fill: #a3ea2a;"/>
    <path d="m215.18,442.47c-.29,1.09-.59,2.17-.91,3.24-.32,1.07-.66,2.15-1.02,3.24h-2.49c-.26-.6-.54-1.32-.84-2.15-.3-.83-.61-1.74-.94-2.72-.32-.98-.65-2.02-.99-3.11-.34-1.1-.66-2.2-.98-3.32h3.37c.12.52.24,1.08.38,1.69.14.61.28,1.23.43,1.88.15.64.31,1.29.48,1.94.17.65.33,1.28.51,1.88.19-.63.37-1.27.55-1.93s.35-1.31.52-1.94c.16-.64.32-1.25.47-1.85.15-.59.28-1.15.4-1.66h2.32c.11.52.24,1.07.39,1.66.14.59.29,1.21.45,1.85.16.64.32,1.29.49,1.94.17.66.35,1.3.54,1.93.17-.6.35-1.23.52-1.88s.33-1.3.49-1.94c.15-.64.29-1.27.43-1.88s.26-1.17.38-1.69h3.33c-.32,1.12-.64,2.22-.98,3.32-.34,1.09-.67,2.13-.99,3.11-.32.98-.64,1.89-.95,2.72s-.59,1.54-.85,2.15h-2.49c-.36-1.09-.71-2.17-1.05-3.24-.34-1.07-.66-2.15-.95-3.24Z" style="fill: #a3ea2a;"/>
    <path d="m235.44,443.28c0,.89-.13,1.7-.39,2.44-.26.74-.63,1.37-1.12,1.89s-1.07.93-1.75,1.21c-.68.29-1.44.43-2.29.43s-1.58-.14-2.26-.43c-.68-.29-1.26-.69-1.75-1.21s-.87-1.15-1.14-1.89c-.27-.74-.41-1.55-.41-2.44s.14-1.7.42-2.43c.28-.73.67-1.35,1.16-1.87s1.08-.92,1.76-1.2c.68-.29,1.42-.43,2.22-.43s1.56.14,2.24.43c.68.29,1.26.69,1.75,1.2s.87,1.14,1.14,1.87c.27.73.41,1.54.41,2.43Zm-3.26,0c0-.99-.2-1.76-.59-2.33s-.96-.85-1.69-.85-1.29.28-1.7.85c-.4.57-.6,1.34-.6,2.33s.2,1.77.6,2.35c.4.58.97.87,1.7.87s1.29-.29,1.69-.87c.39-.58.59-1.36.59-2.35Z" style="fill: #a3ea2a;"/>
    <path d="m244.71,440.49c-.29-.07-.62-.15-1.01-.23-.39-.08-.8-.12-1.25-.12-.2,0-.44.02-.72.05-.28.04-.49.08-.63.12v8.63h-3.2v-10.69c.57-.2,1.25-.39,2.03-.57.78-.18,1.65-.27,2.61-.27.17,0,.38.01.62.03.24.02.49.05.73.09.24.04.49.08.73.13.24.05.45.11.62.18l-.54,2.64Z" style="fill: #a3ea2a;"/>
    <path d="m250.17,441.71c.31-.34.64-.7.98-1.07s.66-.74.98-1.1c.31-.36.61-.71.89-1.04.28-.33.52-.61.72-.85h3.8c-.76.87-1.5,1.7-2.22,2.5-.72.79-1.51,1.61-2.37,2.45.43.39.87.85,1.33,1.39.46.54.9,1.09,1.33,1.67.43.57.82,1.15,1.18,1.72.36.57.66,1.1.9,1.57h-3.68c-.23-.37-.49-.79-.78-1.24s-.6-.9-.93-1.36c-.33-.45-.67-.89-1.04-1.3s-.73-.77-1.08-1.05v4.95h-3.2v-16.15l3.2-.51v9.42Z" style="fill: #a3ea2a;"/>
    <path d="m270.03,437.72h2.49l.7-3.65h2.79l-.7,3.65h1.56v2.47h-2.03l-.51,2.64h2.54v2.47h-3.01l-.7,3.65h-2.79l.7-3.65h-2.49l-.7,3.65h-2.79l.7-3.65h-1.56v-2.47h2.03l.51-2.64h-2.54v-2.47h3.01l.7-3.65h2.79l-.7,3.65Zm-.98,5.11h2.49l.51-2.64h-2.49l-.51,2.64Z" style="fill: #a3ea2a;"/>
    <path d="m279.56,437.16c.42-.17.85-.37,1.3-.59.45-.22.89-.46,1.32-.73.43-.26.84-.54,1.23-.84s.75-.6,1.06-.93h2.23v14.88h-3.2v-10.71c-.43.29-.91.55-1.44.78s-1.04.44-1.55.61l-.97-2.47Z" style="fill: #a3ea2a;"/>
  </g>
  <rect x="70.16" y="405.58" width="73.31" height="73.31" style="fill: #727c92;"/>
  <rect x="159.07" y="517.77" width="148.9" height="37.96" rx="5.76" ry="5.76" style="fill: #223654;"/>
  <g>
    <path d="m179.98,543.47c-.96-1.7-2-3.38-3.11-5.04-1.12-1.66-2.3-3.23-3.56-4.7v9.75h-3.31v-14.88h2.73c.47.47.99,1.05,1.57,1.74.57.69,1.16,1.42,1.75,2.2s1.18,1.59,1.77,2.43,1.14,1.64,1.65,2.42v-8.78h3.33v14.88h-2.81Z" style="fill: #a3ea2a;"/>
    <path d="m185.48,537.91c0-1,.15-1.88.46-2.63.31-.75.71-1.38,1.21-1.88s1.08-.88,1.73-1.14,1.32-.39,2.01-.39c1.6,0,2.87.49,3.8,1.47s1.4,2.42,1.4,4.33c0,.19,0,.39-.02.61s-.03.42-.04.59h-7.26c.07.66.38,1.18.92,1.57.54.39,1.27.58,2.19.58.59,0,1.16-.05,1.73-.16s1.03-.24,1.38-.4l.43,2.6c-.17.09-.4.17-.69.26s-.6.16-.96.23c-.35.06-.73.12-1.13.16-.4.04-.8.06-1.2.06-1.02,0-1.9-.15-2.65-.45-.75-.3-1.37-.71-1.87-1.23-.49-.52-.86-1.14-1.1-1.86-.24-.71-.35-1.49-.35-2.32Zm7.51-1.22c-.01-.27-.06-.54-.14-.79-.08-.26-.2-.49-.36-.69-.17-.2-.37-.37-.62-.49s-.56-.19-.93-.19-.67.06-.92.18c-.26.12-.47.28-.64.48s-.3.43-.4.7c-.09.27-.16.53-.2.81h4.23Z" style="fill: #a3ea2a;"/>
    <path d="m198.45,529.37l3.2-.52v3.33h3.84v2.66h-3.84v3.97c0,.67.12,1.21.35,1.61.24.4.71.6,1.43.6.34,0,.7-.03,1.06-.1.36-.06.7-.15,1-.27l.45,2.49c-.39.16-.82.29-1.29.41-.47.11-1.05.17-1.74.17-.87,0-1.6-.12-2.17-.35s-1.03-.57-1.37-.99-.58-.93-.72-1.54c-.14-.6-.2-1.27-.2-2v-9.49Z" style="fill: #a3ea2a;"/>
    <path d="m215.18,536.99c-.29,1.09-.59,2.17-.91,3.24-.32,1.07-.66,2.15-1.02,3.24h-2.49c-.26-.6-.54-1.32-.84-2.15-.3-.83-.61-1.74-.94-2.72-.32-.98-.65-2.02-.99-3.11-.34-1.1-.66-2.2-.98-3.32h3.37c.12.52.24,1.08.38,1.69.14.61.28,1.23.43,1.88.15.64.31,1.29.48,1.94.17.65.33,1.28.51,1.88.19-.63.37-1.27.55-1.93s.35-1.31.52-1.94c.16-.64.32-1.25.47-1.85.15-.59.28-1.15.4-1.66h2.32c.11.52.24,1.07.39,1.66.14.59.29,1.21.45,1.85.16.64.32,1.29.49,1.94.17.66.35,1.3.54,1.93.17-.6.35-1.23.52-1.88s.33-1.3.49-1.94c.15-.64.29-1.27.43-1.88s.26-1.17.38-1.69h3.33c-.32,1.12-.64,2.22-.98,3.32-.34,1.09-.67,2.13-.99,3.11-.32.98-.64,1.89-.95,2.72s-.59,1.54-.85,2.15h-2.49c-.36-1.09-.71-2.17-1.05-3.24-.34-1.07-.66-2.15-.95-3.24Z" style="fill: #a3ea2a;"/>
    <path d="m235.44,537.8c0,.89-.13,1.7-.39,2.44-.26.74-.63,1.37-1.12,1.89s-1.07.93-1.75,1.21c-.68.29-1.44.43-2.29.43s-1.58-.14-2.26-.43c-.68-.29-1.26-.69-1.75-1.21s-.87-1.15-1.14-1.89c-.27-.74-.41-1.55-.41-2.44s.14-1.7.42-2.43c.28-.73.67-1.35,1.16-1.87s1.08-.92,1.76-1.2c.68-.29,1.42-.43,2.22-.43s1.56.14,2.24.43c.68.29,1.26.69,1.75,1.2s.87,1.14,1.14,1.87c.27.73.41,1.54.41,2.43Zm-3.26,0c0-.99-.2-1.76-.59-2.33s-.96-.85-1.69-.85-1.29.28-1.7.85c-.4.57-.6,1.34-.6,2.33s.2,1.77.6,2.35c.4.58.97.87,1.7.87s1.29-.29,1.69-.87c.39-.58.59-1.36.59-2.35Z" style="fill: #a3ea2a;"/>
    <path d="m244.71,535.01c-.29-.07-.62-.15-1.01-.23-.39-.08-.8-.12-1.25-.12-.2,0-.44.02-.72.05-.28.04-.49.08-.63.12v8.63h-3.2v-10.69c.57-.2,1.25-.39,2.03-.57.78-.18,1.65-.27,2.61-.27.17,0,.38.01.62.03.24.02.49.05.73.09.24.04.49.08.73.13.24.05.45.11.62.18l-.54,2.64Z" style="fill: #a3ea2a;"/>
    <path d="m250.17,536.23c.31-.34.64-.7.98-1.07s.66-.74.98-1.1c.31-.36.61-.71.89-1.04.28-.33.52-.61.72-.85h3.8c-.76.87-1.5,1.7-2.22,2.5-.72.79-1.51,1.61-2.37,2.45.43.39.87.85,1.33,1.39.46.54.9,1.09,1.33,1.67.43.57.82,1.15,1.18,1.72.36.57.66,1.1.9,1.57h-3.68c-.23-.37-.49-.79-.78-1.24s-.6-.9-.93-1.36c-.33-.45-.67-.89-1.04-1.3s-.73-.77-1.08-1.05v4.95h-3.2v-16.15l3.2-.51v9.42Z" style="fill: #a3ea2a;"/>
    <path d="m270.03,532.24h2.49l.7-3.65h2.79l-.7,3.65h1.56v2.47h-2.03l-.51,2.64h2.54v2.47h-3.01l-.7,3.65h-2.79l.7-3.65h-2.49l-.7,3.65h-2.79l.7-3.65h-1.56v-2.47h2.03l.51-2.64h-2.54v-2.47h3.01l.7-3.65h2.79l-.7,3.65Zm-.98,5.11h2.49l.51-2.64h-2.49l-.51,2.64Z" style="fill: #a3ea2a;"/>
    <path d="m288.7,532.5c0,.54-.11,1.07-.32,1.57-.21.5-.49.98-.84,1.45-.34.46-.73.91-1.16,1.34-.43.43-.85.84-1.27,1.22-.21.2-.45.43-.7.68-.25.25-.49.5-.72.76-.23.26-.43.5-.61.72-.18.22-.29.41-.33.55h6.4v2.68h-9.92c-.03-.16-.04-.36-.04-.6v-.51c0-.69.11-1.32.33-1.89.22-.57.51-1.11.87-1.6.36-.49.76-.96,1.21-1.38.45-.43.9-.86,1.34-1.29.34-.33.67-.64.97-.93.3-.29.56-.58.79-.86.23-.28.41-.56.54-.84s.19-.56.19-.85c0-.63-.18-1.07-.54-1.33-.36-.26-.8-.39-1.33-.39-.39,0-.75.06-1.08.18-.34.12-.64.26-.92.43-.28.17-.52.33-.72.49-.2.17-.35.3-.45.4l-1.59-2.23c.63-.59,1.36-1.07,2.2-1.45.84-.38,1.74-.57,2.69-.57.87,0,1.62.1,2.25.3.63.2,1.15.48,1.56.85s.71.81.9,1.33c.19.52.29,1.11.29,1.77Z" style="fill: #a3ea2a;"/>
  </g>
  <rect x="159.07" y="612.3" width="208.79" height="37.96" rx="6.82" ry="6.82" style="fill: #223654;"/>
  <g>
    <path d="m179.98,637.99c-.96-1.7-2-3.38-3.11-5.04-1.12-1.66-2.3-3.23-3.56-4.7v9.75h-3.31v-14.88h2.73c.47.47.99,1.05,1.57,1.74.57.69,1.16,1.42,1.75,2.2s1.18,1.59,1.77,2.43,1.14,1.64,1.65,2.42v-8.78h3.33v14.88h-2.81Z" style="fill: #a3ea2a;"/>
    <path d="m185.48,632.43c0-1,.15-1.88.46-2.63.31-.75.71-1.38,1.21-1.88s1.08-.88,1.73-1.14,1.32-.39,2.01-.39c1.6,0,2.87.49,3.8,1.47s1.4,2.42,1.4,4.33c0,.19,0,.39-.02.61s-.03.42-.04.59h-7.26c.07.66.38,1.18.92,1.57.54.39,1.27.58,2.19.58.59,0,1.16-.05,1.73-.16s1.03-.24,1.38-.4l.43,2.6c-.17.09-.4.17-.69.26s-.6.16-.96.23c-.35.06-.73.12-1.13.16-.4.04-.8.06-1.2.06-1.02,0-1.9-.15-2.65-.45-.75-.3-1.37-.71-1.87-1.23-.49-.52-.86-1.14-1.1-1.86-.24-.71-.35-1.49-.35-2.32Zm7.51-1.22c-.01-.27-.06-.54-.14-.79-.08-.26-.2-.49-.36-.69-.17-.2-.37-.37-.62-.49s-.56-.19-.93-.19-.67.06-.92.18c-.26.12-.47.28-.64.48s-.3.43-.4.7c-.09.27-.16.53-.2.81h4.23Z" style="fill: #a3ea2a;"/>
    <path d="m198.45,623.89l3.2-.52v3.33h3.84v2.66h-3.84v3.97c0,.67.12,1.21.35,1.61.24.4.71.6,1.43.6.34,0,.7-.03,1.06-.1.36-.06.7-.15,1-.27l.45,2.49c-.39.16-.82.29-1.29.41-.47.11-1.05.17-1.74.17-.87,0-1.6-.12-2.17-.35s-1.03-.57-1.37-.99-.58-.93-.72-1.54c-.14-.6-.2-1.27-.2-2v-9.49Z" style="fill: #a3ea2a;"/>
    <path d="m215.18,631.51c-.29,1.09-.59,2.17-.91,3.24-.32,1.07-.66,2.15-1.02,3.24h-2.49c-.26-.6-.54-1.32-.84-2.15-.3-.83-.61-1.74-.94-2.72-.32-.98-.65-2.02-.99-3.11-.34-1.1-.66-2.2-.98-3.32h3.37c.12.52.24,1.08.38,1.69.14.61.28,1.23.43,1.88.15.64.31,1.29.48,1.94.17.65.33,1.28.51,1.88.19-.63.37-1.27.55-1.93s.35-1.31.52-1.94c.16-.64.32-1.25.47-1.85.15-.59.28-1.15.4-1.66h2.32c.11.52.24,1.07.39,1.66.14.59.29,1.21.45,1.85.16.64.32,1.29.49,1.94.17.66.35,1.3.54,1.93.17-.6.35-1.23.52-1.88s.33-1.3.49-1.94c.15-.64.29-1.27.43-1.88s.26-1.17.38-1.69h3.33c-.32,1.12-.64,2.22-.98,3.32-.34,1.09-.67,2.13-.99,3.11-.32.98-.64,1.89-.95,2.72s-.59,1.54-.85,2.15h-2.49c-.36-1.09-.71-2.17-1.05-3.24-.34-1.07-.66-2.15-.95-3.24Z" style="fill: #a3ea2a;"/>
    <path d="m235.44,632.32c0,.89-.13,1.7-.39,2.44-.26.74-.63,1.37-1.12,1.89s-1.07.93-1.75,1.21c-.68.29-1.44.43-2.29.43s-1.58-.14-2.26-.43c-.68-.29-1.26-.69-1.75-1.21s-.87-1.15-1.14-1.89c-.27-.74-.41-1.55-.41-2.44s.14-1.7.42-2.43c.28-.73.67-1.35,1.16-1.87s1.08-.92,1.76-1.2c.68-.29,1.42-.43,2.22-.43s1.56.14,2.24.43c.68.29,1.26.69,1.75,1.2s.87,1.14,1.14,1.87c.27.73.41,1.54.41,2.43Zm-3.26,0c0-.99-.2-1.76-.59-2.33s-.96-.85-1.69-.85-1.29.28-1.7.85c-.4.57-.6,1.34-.6,2.33s.2,1.77.6,2.35c.4.58.97.87,1.7.87s1.29-.29,1.69-.87c.39-.58.59-1.36.59-2.35Z" style="fill: #a3ea2a;"/>
    <path d="m244.71,629.53c-.29-.07-.62-.15-1.01-.23-.39-.08-.8-.12-1.25-.12-.2,0-.44.02-.72.05-.28.04-.49.08-.63.12v8.63h-3.2v-10.69c.57-.2,1.25-.39,2.03-.57.78-.18,1.65-.27,2.61-.27.17,0,.38.01.62.03.24.02.49.05.73.09.24.04.49.08.73.13.24.05.45.11.62.18l-.54,2.64Z" style="fill: #a3ea2a;"/>
    <path d="m250.17,630.76c.31-.34.64-.7.98-1.07s.66-.74.98-1.1c.31-.36.61-.71.89-1.04.28-.33.52-.61.72-.85h3.8c-.76.87-1.5,1.7-2.22,2.5-.72.79-1.51,1.61-2.37,2.45.43.39.87.85,1.33,1.39.46.54.9,1.09,1.33,1.67.43.57.82,1.15,1.18,1.72.36.57.66,1.1.9,1.57h-3.68c-.23-.37-.49-.79-.78-1.24s-.6-.9-.93-1.36c-.33-.45-.67-.89-1.04-1.3s-.73-.77-1.08-1.05v4.95h-3.2v-16.15l3.2-.51v9.42Z" style="fill: #a3ea2a;"/>
    <path d="m270.03,626.76h2.49l.7-3.65h2.79l-.7,3.65h1.56v2.47h-2.03l-.51,2.64h2.54v2.47h-3.01l-.7,3.65h-2.79l.7-3.65h-2.49l-.7,3.65h-2.79l.7-3.65h-1.56v-2.47h2.03l.51-2.64h-2.54v-2.47h3.01l.7-3.65h2.79l-.7,3.65Zm-.98,5.11h2.49l.51-2.64h-2.49l-.51,2.64Z" style="fill: #a3ea2a;"/>
    <path d="m282.95,638.32c-.39,0-.79-.03-1.22-.08-.43-.05-.84-.12-1.25-.2s-.77-.18-1.09-.28c-.33-.1-.59-.19-.77-.28l.62-2.66c.37.16.85.33,1.43.5s1.3.27,2.16.27c.99,0,1.71-.19,2.17-.56s.69-.87.69-1.5c0-.39-.08-.71-.25-.98-.17-.26-.39-.48-.68-.64-.29-.16-.63-.28-1.02-.34-.39-.06-.81-.1-1.26-.1h-1.25v-2.58h1.42c.31,0,.62-.03.91-.09.29-.06.55-.15.78-.29.23-.14.41-.32.55-.56s.2-.53.2-.89c0-.27-.06-.51-.17-.71-.12-.2-.26-.37-.44-.49-.18-.13-.39-.22-.62-.29s-.48-.1-.72-.1c-.62,0-1.18.09-1.71.28-.52.19-1,.42-1.43.69l-1.14-2.34c.23-.14.5-.29.81-.45.31-.16.65-.3,1.02-.43s.77-.24,1.19-.32c.42-.09.87-.13,1.34-.13.87,0,1.63.1,2.27.31.64.21,1.16.5,1.58.88s.72.82.92,1.33c.2.51.3,1.06.3,1.66s-.17,1.15-.49,1.71c-.33.55-.77.97-1.33,1.25.77.32,1.37.78,1.79,1.41.42.62.63,1.37.63,2.25,0,.69-.11,1.32-.34,1.9-.23.58-.59,1.08-1.07,1.5s-1.11.75-1.86.99c-.75.24-1.64.35-2.67.35Z" style="fill: #a3ea2a;"/>
    <path d="m300.06,631.57c0,1.69.26,3.3.79,4.83.53,1.53,1.22,2.91,2.08,4.12l-2.23,1.44c-1.22-1.42-2.16-3.01-2.81-4.77-.66-1.76-.99-3.64-.99-5.63s.33-3.86.99-5.62c.66-1.76,1.6-3.35,2.81-4.77l2.23,1.44c-.86,1.22-1.55,2.59-2.08,4.12-.53,1.53-.79,3.14-.79,4.83Z" style="fill: #a3ea2a;"/>
    <path d="m309.88,637.99c-.59-1.25-1.18-2.55-1.75-3.89s-1.12-2.67-1.64-3.99-1-2.58-1.43-3.78c-.43-1.2-.81-2.28-1.13-3.22h3.69c.28.86.59,1.79.93,2.78s.69,1.98,1.04,2.97.69,1.93,1.02,2.83c.32.9.63,1.68.93,2.34.28-.65.58-1.43.92-2.33.33-.9.67-1.85,1.03-2.83s.7-1.98,1.04-2.97.65-1.92.93-2.79h3.57c-.33.95-.72,2.02-1.15,3.22s-.91,2.46-1.42,3.78c-.51,1.32-1.06,2.65-1.63,3.99s-1.15,2.64-1.74,3.88h-3.19Z" style="fill: #a3ea2a;"/>
    <path d="m325.39,622.94c2.22,0,3.92.39,5.11,1.17,1.19.78,1.78,2.06,1.78,3.83s-.6,3.08-1.8,3.88c-1.2.79-2.92,1.19-5.15,1.19h-1.05v4.98h-3.35v-14.66c.73-.14,1.5-.24,2.32-.3.82-.06,1.53-.08,2.15-.08Zm.21,2.86c-.24,0-.48,0-.72.02-.24.01-.44.03-.61.04v4.29h1.05c1.16,0,2.03-.16,2.62-.47.59-.31.88-.9.88-1.76,0-.42-.08-.76-.23-1.03s-.37-.49-.64-.66c-.28-.16-.62-.28-1.02-.34-.4-.06-.84-.1-1.33-.1Z" style="fill: #a3ea2a;"/>
    <path d="m344.74,637.99c-.96-1.7-2-3.38-3.11-5.04-1.12-1.66-2.3-3.23-3.56-4.7v9.75h-3.31v-14.88h2.73c.47.47.99,1.05,1.57,1.74.57.69,1.16,1.42,1.75,2.2s1.18,1.59,1.77,2.43,1.14,1.64,1.65,2.42v-8.78h3.33v14.88h-2.81Z" style="fill: #a3ea2a;"/>
    <path d="m352.25,631.57c0-1.69-.27-3.3-.79-4.83s-1.22-2.91-2.08-4.12l2.23-1.44c1.22,1.42,2.15,3.01,2.81,4.77.66,1.76.99,3.64.99,5.62s-.33,3.87-.99,5.63c-.66,1.76-1.6,3.35-2.81,4.77l-2.23-1.44c.86-1.22,1.55-2.59,2.08-4.12.53-1.53.79-3.14.79-4.83Z" style="fill: #a3ea2a;"/>
  </g>
  <rect x="70.16" y="500.1" width="73.31" height="73.31" style="fill: #9f00ff;"/>
  <rect x="70.16" y="591.78" width="73.31" height="73.31" style="fill: #02adef;"/>
  <g id="Desktop_variation" data-name="Desktop variation">
    <g>
      <g id="Desktop_Computer" data-name="Desktop Computer">
        <g>
          <path d="m91.06,315.14v38.75c0,1.29-.9,2.41-2.16,2.7l-5.35,1.2-10.82,2.43c.34-.1,1.34-.65,1.37-3.37.01-1.46-.16-11.67-.36-22.56-.2-11.18-.43-23.07-.5-26.91-.01-.53-.16-1.04-.44-1.47-.24-.38-.56-.71-.96-.95-.06-.04-.12-.07-.18-.1-.21-.12-.43-.21-.66-.28l.5-.02,1.61-.07c1.49-.06,2.97.31,4.27,1.06l12.3,7.18c.85.5,1.37,1.4,1.37,2.39Z" style="fill: #525a6a;"/>
          <path d="m83.54,357.79l-10.82,2.43c.34-.1,1.34-.65,1.37-3.37.01-1.46-.16-11.67-.36-22.56.65,3.37,4.08,19.96,9.81,23.49Z" style="fill: #525a6a;"/>
          <path d="m91.06,315.14v2.96c-2.45-5.3-13.59-11.23-15.35-11.61-1.18-.25-2.25-.45-2.9-.57-.4-.07-.64-.11-.64-.11l-.5-.94-.37-.58,1.48.05c1.72.05,3.4.54,4.89,1.41l12.01,7.02c.85.5,1.37,1.4,1.37,2.39Z" style="fill: #525a6a;"/>
          <path d="m72.72,360.22c-.07.02-.11.02-.11.02l.11-.02Z" style="fill: #2c2c2c;"/>
          <path d="m54.65,305.62l16.26-1.28c1.35-.11,2.51.87,2.53,2.13l.65,51.8c.02,1.26-1.13,2.27-2.49,2.18l-16.91-1.03c-1.23-.07-2.18-1.02-2.18-2.16v-49.49c0-1.12.93-2.06,2.14-2.15Z" style="fill: #89bd27;"/>
          <path d="m73.13,357.71c.02,1.24-1.07,2.23-2.35,2.15l-15.99-1.01c-1.16-.07-2.06-1-2.06-2.13v-48.84c0-1.11.88-2.04,2.03-2.13l4.05-.33,11.35-.93c1.28-.11,2.38.86,2.4,2.1l.22,22.98.33,26.07.02,2.07Z" style="fill: #727c92;"/>
          <path d="m73.13,357.68c.02,1.24-1.07,2.23-2.35,2.15l-15.99-1.01c-1.16-.07-2.06-1-2.06-2.13v-48.78c0-1.11.88-2.03,2.02-2.12l4.04-.33,14.31,50.16.02,2.06Z" style="fill: #525a6a; opacity: .65;"/>
          <path d="m53.39,308.4v2.87c0,.37.33.67.71.64l16.84-1.18c.35-.02.62-.3.62-.64v-3.17c0-.38-.34-.67-.72-.64l-16.84,1.48c-.34.03-.6.31-.6.64Z" style="fill: #d4d8df;"/>
          <path d="m53.39,314.16v2.88c0,.37.32.66.7.64l16.84-.89c.35-.02.63-.3.63-.64v-3.17c0-.37-.33-.67-.71-.64l-16.84,1.18c-.35.02-.62.3-.62.64Z" style="fill: #d4d8df;"/>
          <path d="m53.39,319.92v2.88c0,.36.31.65.69.64l16.84-.59c.36-.01.64-.3.64-.64v-3.17c0-.37-.32-.66-.7-.64l-16.84.89c-.35.02-.63.3-.63.64Z" style="fill: #d4d8df;"/>
          <polygon points="68.7 334.44 68.7 335.32 56.58 335.32 56.58 328.93 57.03 328.92 57.03 334.44 68.7 334.44" style="fill: #1c2538;"/>
          <polygon points="68.7 328.62 68.7 334.44 57.03 334.44 57.03 328.93 68.7 328.62" style="fill: #d4d8df;"/>
          <polyline points="58.57 353.49 58.57 354.48 60.44 354.48 60.44 353.49 58.57 353.49" style="fill: #d4d8df;"/>
          <polyline points="63.08 353.6 63.08 354.59 65.28 354.59 65.28 353.6 63.08 353.6" style="fill: #d4d8df;"/>
          <polygon points="68.7 331.76 57.14 331.85 57.14 332.42 68.7 332.42 68.7 331.76" style="fill: #1c2538;"/>
          <path d="m73.11,357.68c.02,1.24-1.06,2.23-2.35,2.15l-15.97-1.01c-1.16-.07-2.06-1-2.06-2.13v-22.54c.31,3.66.04,19.61,2.69,22.44,2.15,2.29,11.76,2.2,14.8,1.51s2.46-19.81,2.56-28.49l.34,28.07Z" style="fill: #1c2538;"/>
          <polygon points="89.07 318.79 89.21 353.33 88.08 353.6 87.8 317.97 89.07 318.79" style="fill: #727c92; opacity: .65;"/>
          <path d="m55.43,356.61l-2.01,1.35-.2.09s.26.49,1.04.71l1.85-1.61s-.63-.41-.69-.55Z" style="fill: #e8e8e8; opacity: .26;"/>
          <path d="m53.12,358.62s1.32.71,1.96.76l15.13.98c.69.05,1.42-.07,2-.44l1.18-1.03-.06-.02-.95.61c-.76.49-1.71.66-2.6.6l-14.54-.88c-.67-.04-2.12-.58-2.12-.58h0Z" style="fill: #64930a;"/>
          <path d="m55.27,358.1s3.29.9,7.44,1.02c4.15.12,7.96-.27,9.01-.57,0,0-6.72.42-9.01.33-2.29-.09-7.59-.84-7.59-.84" style="fill: #e8e8e8; opacity: .26;"/>
          <path d="m72.13,304.85s.73.61.73,1.41.24,18.56.24,18.56c0,0,.55-17.22.33-18.38s-1.31-1.58-1.31-1.58Z" style="fill: #a3ea2a; opacity: .36;"/>
        </g>
      </g>
      <rect x="86.78" y="352.47" width="9.52" height="7.67" style="fill: url(#linear-gradient);"/>
      <path d="m64.94,322.77h53.2c.51,0,.93.42.93.93v31.23c0,.51-.42.93-.93.93h-53.2c-.51,0-.93-.42-.93-.93v-31.23c0-.51.42-.93.93-.93Z" style="fill: url(#linear-gradient-2);"/>
      <path d="m119.07,323.7v28.55h-55.05v-28.55c0-.51.41-.93.93-.93h53.2c.51,0,.93.41.93.93Z" style="fill: url(#linear-gradient-3);"/>
      <path d="m83.23,359.43h16.62v.71c0,.4-.33.73-.73.73h-15.16c-.4,0-.73-.33-.73-.73v-.71h0Z" transform="translate(183.08 720.3) rotate(180)" style="fill: url(#linear-gradient-4);"/>
      <circle cx="91.54" cy="354.44" r=".95" style="fill: #1c2538;"/>
      <path d="m66.05,349.98v-25.01c0-.33.27-.61.61-.61h49.78c.33,0,.61.27.61.61v25.01c0,.46-.38.83-.86.83h-49.27c-.47,0-.86-.37-.86-.83Z" style="fill: url(#linear-gradient-5);"/>
      <rect x="73.73" y="329.54" width="24.66" height=".8" style="fill: #a3ea2a;"/>
      <rect x="73.74" y="331.57" width="31.94" height=".8" style="fill: #a3ea2a;"/>
      <rect x="73.74" y="333.59" width="34.82" height=".8" style="fill: #a3ea2a;"/>
      <rect x="73.73" y="338.19" width="24.66" height=".8" style="fill: #a3ea2a;"/>
      <rect x="73.74" y="340.21" width="31.94" height=".8" style="fill: #a3ea2a;"/>
      <rect x="73.74" y="342.23" width="34.82" height=".8" style="fill: #a3ea2a;"/>
    </g>
  </g>
  <rect x="422.68" y="148.87" width="236.24" height="37.96" rx="7.26" ry="7.26" style="fill: #223654;"/>
  <g>
    <path d="m492.8,159.68v2.86h-4.49v12.02h-3.35v-12.02h-4.49v-2.86h12.32Z" style="fill: #a3ea2a;"/>
    <path d="m494.73,174.56v-16.15l3.2-.51v5.41c.21-.07.49-.14.83-.2.34-.06.66-.1.98-.1.92,0,1.68.13,2.29.38.61.25,1.09.6,1.46,1.06s.62,1,.77,1.63.22,1.33.22,2.1v6.38h-3.2v-5.99c0-1.03-.13-1.76-.4-2.19-.26-.43-.75-.64-1.47-.64-.29,0-.55.03-.8.08-.25.05-.48.1-.68.16v8.59h-3.2Z" style="fill: #a3ea2a;"/>
    <path d="m506.84,169c0-1,.15-1.88.46-2.63.31-.75.71-1.38,1.21-1.88.5-.5,1.08-.88,1.73-1.14.65-.26,1.32-.39,2.01-.39,1.6,0,2.87.49,3.8,1.47.93.98,1.4,2.42,1.4,4.33,0,.19,0,.39-.02.61-.02.22-.03.42-.04.59h-7.26c.07.66.38,1.18.92,1.57.54.39,1.27.58,2.19.58.59,0,1.16-.05,1.73-.16s1.03-.24,1.38-.4l.43,2.6c-.17.09-.4.17-.69.26-.29.09-.6.16-.96.23-.35.06-.73.12-1.13.16s-.8.06-1.2.06c-1.02,0-1.9-.15-2.65-.45-.75-.3-1.38-.71-1.87-1.23-.49-.52-.86-1.14-1.09-1.86-.24-.71-.35-1.49-.35-2.32Zm7.51-1.22c-.01-.27-.06-.54-.14-.79-.08-.26-.2-.49-.36-.69-.17-.2-.37-.37-.62-.49-.25-.13-.56-.19-.93-.19s-.67.06-.92.18c-.26.12-.47.28-.64.48s-.3.43-.4.7c-.09.27-.16.53-.21.81h4.23Z" style="fill: #a3ea2a;"/>
    <path d="m528.57,160.01c0,.59-.19,1.05-.57,1.38-.38.34-.83.5-1.34.5s-.96-.17-1.34-.5c-.38-.34-.57-.8-.57-1.38s.19-1.05.57-1.38c.38-.34.83-.5,1.34-.5s.96.17,1.34.5c.38.34.57.8.57,1.38Zm-.3,14.56h-3.2v-11.29h3.2v11.29Z" style="fill: #a3ea2a;"/>
    <path d="m531.27,163.66c.54-.16,1.24-.3,2.1-.44s1.76-.2,2.71-.2,1.76.13,2.39.38c.64.25,1.14.6,1.51,1.06.37.46.64,1,.79,1.63s.24,1.33.24,2.1v6.38h-3.2v-5.99c0-1.03-.14-1.76-.41-2.19-.27-.43-.78-.64-1.52-.64-.23,0-.47.01-.73.03-.26.02-.49.05-.69.08v8.72h-3.2v-10.91Z" style="fill: #a3ea2a;"/>
    <path d="m543.81,160.46l3.2-.52v3.33h3.84v2.66h-3.84v3.97c0,.67.12,1.21.35,1.61.24.4.71.6,1.43.6.34,0,.7-.03,1.06-.1.36-.06.7-.15,1-.27l.45,2.49c-.39.16-.82.29-1.29.41s-1.05.17-1.74.17c-.87,0-1.6-.12-2.17-.35-.57-.24-1.03-.57-1.37-.99s-.58-.93-.72-1.54c-.14-.6-.21-1.27-.21-2v-9.49Z" style="fill: #a3ea2a;"/>
    <path d="m552.48,169c0-1,.15-1.88.46-2.63.31-.75.71-1.38,1.21-1.88s1.08-.88,1.73-1.14,1.32-.39,2.01-.39c1.6,0,2.87.49,3.8,1.47.93.98,1.4,2.42,1.4,4.33,0,.19,0,.39-.02.61s-.03.42-.04.59h-7.26c.07.66.38,1.18.92,1.57.54.39,1.27.58,2.19.58.59,0,1.16-.05,1.73-.16.56-.11,1.03-.24,1.38-.4l.43,2.6c-.17.09-.4.17-.69.26-.29.09-.61.16-.96.23-.35.06-.73.12-1.13.16-.4.04-.8.06-1.2.06-1.02,0-1.9-.15-2.65-.45s-1.37-.71-1.87-1.23-.86-1.14-1.09-1.86c-.24-.71-.35-1.49-.35-2.32Zm7.51-1.22c-.01-.27-.06-.54-.14-.79s-.2-.49-.37-.69-.37-.37-.62-.49c-.25-.13-.56-.19-.93-.19s-.67.06-.92.18c-.26.12-.47.28-.64.48s-.3.43-.4.7c-.09.27-.16.53-.2.81h4.23Z" style="fill: #a3ea2a;"/>
    <path d="m572.36,166.1c-.29-.07-.62-.15-1.01-.23-.39-.08-.8-.12-1.25-.12-.2,0-.44.02-.72.05-.28.04-.49.08-.63.12v8.63h-3.2v-10.69c.57-.2,1.25-.39,2.03-.57.78-.18,1.65-.27,2.61-.27.17,0,.38.01.62.03.24.02.49.05.73.09.24.04.49.08.73.13.24.05.45.11.62.18l-.54,2.64Z" style="fill: #a3ea2a;"/>
    <path d="m574.62,163.66c.54-.16,1.25-.3,2.1-.44s1.76-.2,2.71-.2,1.76.13,2.39.38,1.14.6,1.51,1.06c.37.46.64,1,.79,1.63.16.63.24,1.33.24,2.1v6.38h-3.2v-5.99c0-1.03-.14-1.76-.41-2.19-.27-.43-.78-.64-1.52-.64-.23,0-.47.01-.73.03s-.49.05-.69.08v8.72h-3.2v-10.91Z" style="fill: #a3ea2a;"/>
    <path d="m586.73,169c0-1,.15-1.88.46-2.63.31-.75.71-1.38,1.21-1.88.5-.5,1.08-.88,1.73-1.14.65-.26,1.32-.39,2.01-.39,1.6,0,2.87.49,3.8,1.47.93.98,1.39,2.42,1.39,4.33,0,.19,0,.39-.02.61-.01.22-.03.42-.04.59h-7.26c.07.66.38,1.18.92,1.57s1.27.58,2.19.58c.59,0,1.16-.05,1.73-.16s1.03-.24,1.38-.4l.43,2.6c-.17.09-.4.17-.69.26-.29.09-.61.16-.96.23s-.73.12-1.13.16c-.4.04-.8.06-1.2.06-1.02,0-1.9-.15-2.65-.45-.75-.3-1.37-.71-1.87-1.23s-.86-1.14-1.1-1.86c-.24-.71-.35-1.49-.35-2.32Zm7.51-1.22c-.01-.27-.06-.54-.14-.79-.08-.26-.2-.49-.37-.69s-.37-.37-.62-.49-.56-.19-.93-.19-.67.06-.92.18c-.26.12-.47.28-.64.48s-.3.43-.4.7c-.09.27-.16.53-.2.81h4.23Z" style="fill: #a3ea2a;"/>
    <path d="m599.7,160.46l3.2-.52v3.33h3.84v2.66h-3.84v3.97c0,.67.12,1.21.35,1.61.24.4.71.6,1.43.6.34,0,.7-.03,1.06-.1s.7-.15,1-.27l.45,2.49c-.39.16-.82.29-1.29.41-.47.11-1.05.17-1.74.17-.87,0-1.6-.12-2.17-.35-.57-.24-1.03-.57-1.38-.99s-.58-.93-.72-1.54c-.14-.6-.2-1.27-.2-2v-9.49Z" style="fill: #a3ea2a;"/>
  </g>
  <g id="Cloud_internet" data-name="Cloud + internet">
    <g>
      <g>
        <g>
          <path d="m576.51,65.42l-2.59.6c-1.47-17.01-15.74-30.36-33.14-30.36s-31.87,13.53-33.17,30.71c-.25,0-.51-.01-.76-.01-11.65,0-21.19,9-22.06,20.42l-3.28.76c-8.93,0-16.17,7.24-16.17,16.17s7.28,17.01,16.17,16.17c30.43-2.87,83.81-8.76,95-10.22,12.12-1.57,22.13-9.91,22.13-22.13s-9.91-22.13-22.13-22.13Z" style="fill: url(#linear-gradient-6);"/>
          <path d="m466.67,104.31c0,8.93,7.28,17.01,16.17,16.17,30.43-2.87,83.81-8.76,95-10.22,12.12-1.57,22.13-9.91,22.13-22.13s-9.91-22.13-22.13-22.13l-2.59.6c-1.47-17.01-15.74-30.36-33.14-30.36s-31.87,13.53-33.17,30.71c-.25,0-.51-.01-.76-.01-11.65,0-21.19,9-22.06,20.42l-3.28.76c-8.93,0-16.17,7.24-16.17,16.17Z" style="fill: url(#linear-gradient-7);"/>
          <path d="m468.01,104.91c0,8.93,7.28,17.01,16.17,16.17,30.43-2.87,83.81-8.76,95-10.22,12.12-1.57,22.13-9.91,22.13-22.13s-9.91-22.13-22.13-22.13l-2.59.6c-1.47-17.01-15.74-30.36-33.14-30.36s-31.87,13.53-33.17,30.71c-.25,0-.51-.01-.76-.01-11.65,0-21.19,9-22.06,20.42l-3.28.76c-8.93,0-16.17,7.24-16.17,16.17Z" style="fill: url(#linear-gradient-8);"/>
          <path d="m469.35,105.51c0,8.93,7.28,17.01,16.17,16.17,30.43-2.87,83.81-8.76,95-10.22,12.12-1.57,22.13-9.91,22.13-22.13s-9.91-22.13-22.13-22.13l-2.59.6c-1.47-17.01-15.74-30.36-33.14-30.36s-31.87,13.53-33.17,30.71c-.25,0-.51-.01-.76-.01-11.65,0-21.19,9-22.06,20.42l-3.28.76c-8.93,0-16.17,7.24-16.17,16.17Z" style="fill: url(#linear-gradient-9);"/>
          <path d="m470.68,106.1c0,8.93,7.28,17.01,16.17,16.17,30.43-2.87,83.81-8.76,95-10.22,12.12-1.57,22.13-9.91,22.13-22.13s-9.91-22.13-22.13-22.13l-2.59.6c-1.47-17.01-15.74-30.36-33.14-30.36s-31.87,13.53-33.17,30.71c-.25,0-.51-.01-.76-.01-11.65,0-21.19,9-22.06,20.42l-3.28.76c-8.93,0-16.17,7.24-16.17,16.17Z" style="fill: url(#linear-gradient-10);"/>
          <path d="m472.02,106.7c0,8.93,7.28,17.01,16.17,16.17,30.43-2.87,83.81-8.76,95-10.22,12.12-1.57,22.13-9.91,22.13-22.13s-9.91-22.13-22.13-22.13l-2.59.6c-1.47-17.01-15.74-30.36-33.14-30.36s-31.87,13.53-33.17,30.71c-.25,0-.51-.01-.76-.01-11.65,0-21.19,9-22.06,20.42l-3.28.76c-8.93,0-16.17,7.24-16.17,16.17Z" style="fill: url(#linear-gradient-11);"/>
          <path d="m473.36,107.29c0,8.93,7.28,17.01,16.17,16.17,30.43-2.87,83.81-8.76,95-10.22,12.12-1.57,22.13-9.91,22.13-22.13s-9.91-22.13-22.13-22.13l-2.59.6c-1.47-17.01-15.74-30.36-33.14-30.36s-31.87,13.53-33.17,30.71c-.25,0-.51-.01-.76-.01-11.65,0-21.19,9-22.06,20.42l-3.28.76c-8.93,0-16.17,7.24-16.17,16.17Z" style="fill: url(#linear-gradient-12);"/>
          <path d="m474.7,107.89c0,8.93,7.28,17.01,16.17,16.17,30.43-2.87,83.81-8.76,95-10.22,12.12-1.57,22.13-9.91,22.13-22.13s-9.91-22.13-22.13-22.13l-2.59.6c-1.47-17.01-15.74-30.36-33.14-30.36s-31.87,13.53-33.17,30.71c-.25,0-.51-.01-.76-.01-11.65,0-21.19,9-22.06,20.42l-3.28.76c-8.93,0-16.17,7.24-16.17,16.17Z" style="fill: url(#linear-gradient-13);"/>
          <path d="m476.03,108.49c0,8.93,7.28,17.01,16.17,16.17,30.43-2.87,83.81-8.76,95-10.22,12.12-1.57,22.13-9.91,22.13-22.13s-9.91-22.13-22.13-22.13l-2.59.6c-1.47-17.01-15.74-30.36-33.14-30.36s-31.87,13.53-33.17,30.71c-.25,0-.51-.01-.76-.01-11.65,0-21.19,9-22.06,20.42l-3.28.76c-8.93,0-16.17,7.24-16.17,16.17Z" style="fill: url(#linear-gradient-14);"/>
          <path d="m477.37,109.08c0,8.93,7.28,17.01,16.17,16.17,30.43-2.87,83.81-8.76,95-10.22,12.12-1.57,22.13-9.91,22.13-22.13s-9.91-22.13-22.13-22.13l-2.59.6c-1.47-17.01-15.74-30.36-33.14-30.36s-31.87,13.53-33.17,30.71c-.25,0-.51-.01-.76-.01-11.65,0-21.19,9-22.06,20.42l-3.28.76c-8.93,0-16.17,7.24-16.17,16.17Z" style="fill: url(#linear-gradient-15);"/>
          <path d="m478.71,109.68c0,8.93,7.28,17.01,16.17,16.17,30.43-2.87,83.81-8.76,95-10.22,12.12-1.57,22.13-9.91,22.13-22.13s-9.91-22.13-22.13-22.13l-2.59.6c-1.47-17.01-15.74-30.36-33.14-30.36s-31.87,13.53-33.17,30.71c-.25,0-.51-.01-.76-.01-11.65,0-21.19,9-22.06,20.42l-3.28.76c-8.93,0-16.17,7.24-16.17,16.17Z" style="fill: url(#linear-gradient-16);"/>
          <path d="m591.22,71.98l-2.59.6c-1.47-17.01-15.74-30.36-33.14-30.36s-31.87,13.53-33.17,30.71c-.25,0-.51-.01-.76-.01-11.65,0-21.19,9-22.06,20.42l-3.28.76c-8.93,0-16.17,7.24-16.17,16.17s7.28,17.01,16.17,16.17c30.43-2.87,83.81-8.76,95-10.22,12.12-1.57,22.13-9.91,22.13-22.13s-9.91-22.13-22.13-22.13Z" style="fill: url(#linear-gradient-17);"/>
        </g>
        <path d="m591.22,71.98l-2.59.6c-1.47-17.01-15.74-30.36-33.14-30.36s-31.87,13.53-33.17,30.71c-.25,0-.51-.01-.76-.01-11.65,0-21.19,9-22.06,20.42l-3.28.76c-8.93,0-16.17,7.24-16.17,16.17s7.28,17.01,16.17,16.17c30.43-2.87,83.81-8.76,95-10.22,12.12-1.57,22.13-9.91,22.13-22.13s-9.91-22.13-22.13-22.13Z" style="fill: url(#linear-gradient-18);"/>
      </g>
      <g id="Artwork_24" data-name="Artwork 24">
        <path d="m552.75,74.94c-14.9.84-27.02,13.64-27.02,28.54s12.12,26.25,27.02,25.3,27.02-13.75,27.02-28.54-12.12-26.14-27.02-25.3Zm-24.7,29.53l8.61-.52c.08,3.11.46,6.06,1.12,8.77l-7.66.47c-1.21-2.65-1.92-5.6-2.06-8.72Zm25.83-15.09v-12.11c4.61.4,8.6,4.87,10.82,11.48l-10.82.63Zm11.48,1.58c.71,2.73,1.14,5.75,1.22,8.95l-12.71.76v-9.04l11.48-.67Zm-13.75-13.56v12.11l-10.82.63c2.23-6.89,6.21-11.81,10.82-12.74Zm0,14.36v9.04l-12.7.76c.08-3.22.51-6.3,1.22-9.13l11.48-.67Zm-14.96,9.93l-8.61.52c.14-3.23.9-6.33,2.17-9.19l7.62-.45c-.69,2.85-1.1,5.93-1.17,9.13Zm2.25,2.12l12.71-.76v8.82l-11.56.71c-.67-2.68-1.07-5.64-1.15-8.76Zm12.71,10.31v12.37c-4.68-.38-8.7-4.94-10.91-11.7l10.91-.67Zm2.26,12.23v-12.37l10.91-.67c-2.21,7.01-6.24,12.07-10.91,13.04Zm0-14.62v-8.82l12.71-.76c-.08,3.12-.47,6.12-1.15,8.87l-11.56.71Zm14.96-9.72l8.61-.52c-.14,3.12-.85,6.13-2.06,8.91l-7.66.47c.66-2.78,1.04-5.76,1.12-8.87Zm0-2.25c-.08-3.17-.49-6.19-1.17-8.95l7.62-.45c1.27,2.7,2.02,5.69,2.17,8.88l-8.61.52Zm5.27-11.57l-7.07.41c-1.44-4.48-3.64-8.14-6.32-10.54,5.67,1.6,10.42,5.24,13.4,10.13Zm-29.32-9.22c-2.69,2.71-4.89,6.64-6.32,11.3l-7.07.41c2.98-5.26,7.72-9.47,13.4-11.71Zm-13.53,36.4l7.13-.44c1.42,4.57,3.63,8.3,6.33,10.74-5.73-1.61-10.5-5.31-13.46-10.3Zm29.53,9.28c2.7-2.77,4.91-6.76,6.33-11.49l7.13-.44c-2.97,5.33-7.74,9.61-13.46,11.93Z" style="fill: url(#radial-gradient);"/>
      </g>
    </g>
  </g>
  <path d="m225.07,342.23h-5v-5.7h5v5.7Zm0-11.7h-5v-6h5v6Zm0-12h-5v-6h5v6Zm0-12h-5v-6h5v6Zm0-12h-5v-6h5v6Zm0-12h-5v-6h5v6Zm0-12h-5v-6h5v6Zm0-12h-5v-6h5v6Zm0-12h-5v-6h5v6Zm0-12h-5v-6h5v6Z" style="fill: #a3ea2a;"/>
  <g id="Desktop_variation-2" data-name="Desktop variation">
    <g>
      <g id="Desktop_Computer-2" data-name="Desktop Computer">
        <g>
          <path d="m213.77,315.14v38.75c0,1.29-.9,2.41-2.16,2.7l-5.35,1.2-10.82,2.43c.34-.1,1.34-.65,1.37-3.37.01-1.46-.16-11.67-.36-22.56-.2-11.18-.43-23.07-.5-26.91-.01-.53-.16-1.04-.44-1.47-.24-.38-.56-.71-.96-.95-.06-.04-.12-.07-.18-.1-.21-.12-.43-.21-.66-.28l.5-.02,1.61-.07c1.49-.06,2.97.31,4.27,1.06l12.3,7.18c.85.5,1.37,1.4,1.37,2.39Z" style="fill: #525a6a;"/>
          <path d="m206.25,357.79l-10.82,2.43c.34-.1,1.34-.65,1.37-3.37.01-1.46-.16-11.67-.36-22.56.65,3.37,4.08,19.96,9.81,23.49Z" style="fill: #525a6a;"/>
          <path d="m213.77,315.14v2.96c-2.45-5.3-13.59-11.23-15.35-11.61-1.18-.25-2.25-.45-2.9-.57-.4-.07-.64-.11-.64-.11l-.5-.94-.37-.58,1.48.05c1.72.05,3.4.54,4.89,1.41l12.01,7.02c.85.5,1.37,1.4,1.37,2.39Z" style="fill: #525a6a;"/>
          <path d="m195.44,360.22c-.07.02-.11.02-.11.02l.11-.02Z" style="fill: #2c2c2c;"/>
          <path d="m177.36,305.62l16.26-1.28c1.35-.11,2.51.87,2.53,2.13l.65,51.8c.02,1.26-1.13,2.27-2.49,2.18l-16.91-1.03c-1.23-.07-2.18-1.02-2.18-2.16v-49.49c0-1.12.93-2.06,2.14-2.15Z" style="fill: #89bd27;"/>
          <path d="m195.85,357.71c.02,1.24-1.07,2.23-2.35,2.15l-15.99-1.01c-1.16-.07-2.06-1-2.06-2.13v-48.84c0-1.11.88-2.04,2.03-2.13l4.05-.33,11.35-.93c1.28-.11,2.38.86,2.4,2.1l.22,22.98.33,26.07.02,2.07Z" style="fill: #727c92;"/>
          <path d="m195.85,357.68c.02,1.24-1.07,2.23-2.35,2.15l-15.99-1.01c-1.16-.07-2.06-1-2.06-2.13v-48.78c0-1.11.88-2.03,2.02-2.12l4.04-.33,14.31,50.16.02,2.06Z" style="fill: #525a6a; opacity: .65;"/>
          <path d="m176.11,308.4v2.87c0,.37.33.67.71.64l16.84-1.18c.35-.02.62-.3.62-.64v-3.17c0-.38-.34-.67-.72-.64l-16.84,1.48c-.34.03-.6.31-.6.64Z" style="fill: #d4d8df;"/>
          <path d="m176.11,314.16v2.88c0,.37.32.66.7.64l16.84-.89c.35-.02.63-.3.63-.64v-3.17c0-.37-.33-.67-.71-.64l-16.84,1.18c-.35.02-.62.3-.62.64Z" style="fill: #d4d8df;"/>
          <path d="m176.11,319.92v2.88c0,.36.31.65.69.64l16.84-.59c.36-.01.64-.3.64-.64v-3.17c0-.37-.32-.66-.7-.64l-16.84.89c-.35.02-.63.3-.63.64Z" style="fill: #d4d8df;"/>
          <polygon points="191.42 334.44 191.42 335.32 179.3 335.32 179.3 328.93 179.74 328.92 179.74 334.44 191.42 334.44" style="fill: #1c2538;"/>
          <polygon points="191.42 328.62 191.42 334.44 179.74 334.44 179.74 328.93 191.42 328.62" style="fill: #d4d8df;"/>
          <polyline points="181.29 353.49 181.29 354.48 183.16 354.48 183.16 353.49 181.29 353.49" style="fill: #d4d8df;"/>
          <polyline points="185.8 353.6 185.8 354.59 188 354.59 188 353.6 185.8 353.6" style="fill: #d4d8df;"/>
          <polygon points="191.42 331.76 179.85 331.85 179.85 332.42 191.42 332.42 191.42 331.76" style="fill: #1c2538;"/>
          <path d="m195.83,357.68c.02,1.24-1.06,2.23-2.35,2.15l-15.97-1.01c-1.16-.07-2.06-1-2.06-2.13v-22.54c.31,3.66.04,19.61,2.69,22.44,2.15,2.29,11.76,2.2,14.8,1.51s2.46-19.81,2.56-28.49l.34,28.07Z" style="fill: #1c2538;"/>
          <polygon points="211.79 318.79 211.93 353.33 210.8 353.6 210.52 317.97 211.79 318.79" style="fill: #727c92; opacity: .65;"/>
          <path d="m178.15,356.61l-2.01,1.35-.2.09s.26.49,1.04.71l1.85-1.61s-.63-.41-.69-.55Z" style="fill: #e8e8e8; opacity: .26;"/>
          <path d="m175.84,358.62s1.32.71,1.96.76l15.13.98c.69.05,1.42-.07,2-.44l1.18-1.03-.06-.02-.95.61c-.76.49-1.71.66-2.6.6l-14.54-.88c-.67-.04-2.12-.58-2.12-.58h0Z" style="fill: #64930a;"/>
          <path d="m177.98,358.1s3.29.9,7.44,1.02c4.15.12,7.96-.27,9.01-.57,0,0-6.72.42-9.01.33-2.29-.09-7.59-.84-7.59-.84" style="fill: #e8e8e8; opacity: .26;"/>
          <path d="m194.85,304.85s.73.61.73,1.41.24,18.56.24,18.56c0,0,.55-17.22.33-18.38s-1.31-1.58-1.31-1.58Z" style="fill: #a3ea2a; opacity: .36;"/>
        </g>
      </g>
      <rect x="209.5" y="352.47" width="9.52" height="7.67" style="fill: url(#linear-gradient-19);"/>
      <path d="m187.66,322.77h53.2c.51,0,.93.42.93.93v31.23c0,.51-.42.93-.93.93h-53.2c-.51,0-.93-.42-.93-.93v-31.23c0-.51.42-.93.93-.93Z" style="fill: url(#linear-gradient-20);"/>
      <path d="m241.79,323.7v28.55h-55.05v-28.55c0-.51.41-.93.93-.93h53.2c.51,0,.93.41.93.93Z" style="fill: url(#linear-gradient-21);"/>
      <path d="m205.95,359.43h16.62v.71c0,.4-.33.73-.73.73h-15.16c-.4,0-.73-.33-.73-.73v-.71h0Z" transform="translate(428.52 720.3) rotate(180)" style="fill: url(#linear-gradient-22);"/>
      <circle cx="214.26" cy="354.44" r=".95" style="fill: #1c2538;"/>
      <path d="m188.77,349.98v-25.01c0-.33.27-.61.61-.61h49.78c.33,0,.61.27.61.61v25.01c0,.46-.38.83-.86.83h-49.27c-.47,0-.86-.37-.86-.83Z" style="fill: url(#linear-gradient-23);"/>
      <rect x="196.45" y="329.54" width="24.66" height=".8" style="fill: #a3ea2a;"/>
      <rect x="196.46" y="331.57" width="31.94" height=".8" style="fill: #a3ea2a;"/>
      <rect x="196.46" y="333.59" width="34.82" height=".8" style="fill: #a3ea2a;"/>
      <rect x="196.45" y="338.19" width="24.66" height=".8" style="fill: #a3ea2a;"/>
      <rect x="196.46" y="340.21" width="31.94" height=".8" style="fill: #a3ea2a;"/>
      <rect x="196.46" y="342.23" width="34.82" height=".8" style="fill: #a3ea2a;"/>
    </g>
  </g>
  <path d="m326,329.91l-3.75-4.69,3.9-3.12,3.75,4.69-3.9,3.12Zm-7.5-9.37l-3.75-4.69,3.9-3.12,3.75,4.69-3.9,3.12Zm-7.5-9.37l-3.75-4.69,3.9-3.12,3.75,4.69-3.9,3.12Zm-7.5-9.37l-3.75-4.69,3.9-3.12,3.75,4.69-3.9,3.12Zm-7.5-9.37l-3.75-4.69,3.9-3.12,3.75,4.69-3.9,3.12Zm-7.5-9.37l-3.75-4.69,3.9-3.12,3.75,4.69-3.9,3.12Zm-7.5-9.37l-3.75-4.69,3.9-3.12,3.75,4.69-3.9,3.12Zm-7.5-9.37l-3.75-4.69,3.9-3.12,3.75,4.69-3.9,3.12Zm-7.5-9.37l-3.75-4.69,3.9-3.12,3.75,4.69-3.9,3.12Zm-7.5-9.37l-3.75-4.69,3.9-3.12,3.75,4.69-3.9,3.12Zm-7.5-9.37l-3.75-4.69,3.9-3.12,3.75,4.69-3.9,3.12Zm-7.5-9.37l-3.75-4.69,3.9-3.12,3.75,4.69-3.9,3.12Z" style="fill: #a3ea2a;"/>
  <g id="Desktop_variation-3" data-name="Desktop variation">
    <g>
      <g id="Desktop_Computer-3" data-name="Desktop Computer">
        <g>
          <path d="m346.87,315.14v38.75c0,1.29-.9,2.41-2.16,2.7l-5.35,1.2-10.82,2.43c.34-.1,1.34-.65,1.37-3.37.01-1.46-.16-11.67-.36-22.56-.2-11.18-.43-23.07-.5-26.91-.01-.53-.16-1.04-.44-1.47-.24-.38-.56-.71-.96-.95-.06-.04-.12-.07-.18-.1-.21-.12-.43-.21-.66-.28l.5-.02,1.61-.07c1.49-.06,2.97.31,4.27,1.06l12.3,7.18c.85.5,1.37,1.4,1.37,2.39Z" style="fill: #525a6a;"/>
          <path d="m339.35,357.79l-10.82,2.43c.34-.1,1.34-.65,1.37-3.37.01-1.46-.16-11.67-.36-22.56.65,3.37,4.08,19.96,9.81,23.49Z" style="fill: #525a6a;"/>
          <path d="m346.87,315.14v2.96c-2.45-5.3-13.59-11.23-15.35-11.61-1.18-.25-2.25-.45-2.9-.57-.4-.07-.64-.11-.64-.11l-.5-.94-.37-.58,1.48.05c1.72.05,3.4.54,4.89,1.41l12.01,7.02c.85.5,1.37,1.4,1.37,2.39Z" style="fill: #525a6a;"/>
          <path d="m328.53,360.22c-.07.02-.11.02-.11.02l.11-.02Z" style="fill: #2c2c2c;"/>
          <path d="m310.46,305.62l16.26-1.28c1.35-.11,2.51.87,2.53,2.13l.65,51.8c.02,1.26-1.13,2.27-2.49,2.18l-16.91-1.03c-1.23-.07-2.18-1.02-2.18-2.16v-49.49c0-1.12.93-2.06,2.14-2.15Z" style="fill: #89bd27;"/>
          <path d="m328.94,357.71c.02,1.24-1.07,2.23-2.35,2.15l-15.99-1.01c-1.16-.07-2.06-1-2.06-2.13v-48.84c0-1.11.88-2.04,2.03-2.13l4.05-.33,11.35-.93c1.28-.11,2.38.86,2.4,2.1l.22,22.98.33,26.07.02,2.07Z" style="fill: #727c92;"/>
          <path d="m328.94,357.68c.02,1.24-1.07,2.23-2.35,2.15l-15.99-1.01c-1.16-.07-2.06-1-2.06-2.13v-48.78c0-1.11.88-2.03,2.02-2.12l4.04-.33,14.31,50.16.02,2.06Z" style="fill: #525a6a; opacity: .65;"/>
          <path d="m309.2,308.4v2.87c0,.37.33.67.71.64l16.84-1.18c.35-.02.62-.3.62-.64v-3.17c0-.38-.34-.67-.72-.64l-16.84,1.48c-.34.03-.6.31-.6.64Z" style="fill: #d4d8df;"/>
          <path d="m309.2,314.16v2.88c0,.37.32.66.7.64l16.84-.89c.35-.02.63-.3.63-.64v-3.17c0-.37-.33-.67-.71-.64l-16.84,1.18c-.35.02-.62.3-.62.64Z" style="fill: #d4d8df;"/>
          <path d="m309.2,319.92v2.88c0,.36.31.65.69.64l16.84-.59c.36-.01.64-.3.64-.64v-3.17c0-.37-.32-.66-.7-.64l-16.84.89c-.35.02-.63.3-.63.64Z" style="fill: #d4d8df;"/>
          <polygon points="324.51 334.44 324.51 335.32 312.4 335.32 312.4 328.93 312.84 328.92 312.84 334.44 324.51 334.44" style="fill: #1c2538;"/>
          <polygon points="324.51 328.62 324.51 334.44 312.84 334.44 312.84 328.93 324.51 328.62" style="fill: #d4d8df;"/>
          <polyline points="314.38 353.49 314.38 354.48 316.25 354.48 316.25 353.49 314.38 353.49" style="fill: #d4d8df;"/>
          <polyline points="318.89 353.6 318.89 354.59 321.1 354.59 321.1 353.6 318.89 353.6" style="fill: #d4d8df;"/>
          <polygon points="324.51 331.76 312.95 331.85 312.95 332.42 324.51 332.42 324.51 331.76" style="fill: #1c2538;"/>
          <path d="m328.92,357.68c.02,1.24-1.06,2.23-2.35,2.15l-15.97-1.01c-1.16-.07-2.06-1-2.06-2.13v-22.54c.31,3.66.04,19.61,2.69,22.44,2.15,2.29,11.76,2.2,14.8,1.51s2.46-19.81,2.56-28.49l.34,28.07Z" style="fill: #1c2538;"/>
          <polygon points="344.88 318.79 345.03 353.33 343.89 353.6 343.61 317.97 344.88 318.79" style="fill: #727c92; opacity: .65;"/>
          <path d="m311.24,356.61l-2.01,1.35-.2.09s.26.49,1.04.71l1.85-1.61s-.63-.41-.69-.55Z" style="fill: #e8e8e8; opacity: .26;"/>
          <path d="m308.93,358.62s1.32.71,1.96.76l15.13.98c.69.05,1.42-.07,2-.44l1.18-1.03-.06-.02-.95.61c-.76.49-1.71.66-2.6.6l-14.54-.88c-.67-.04-2.12-.58-2.12-.58h0Z" style="fill: #64930a;"/>
          <path d="m311.08,358.1s3.29.9,7.44,1.02c4.15.12,7.96-.27,9.01-.57,0,0-6.72.42-9.01.33-2.29-.09-7.59-.84-7.59-.84" style="fill: #e8e8e8; opacity: .26;"/>
          <path d="m327.95,304.85s.73.61.73,1.41.24,18.56.24,18.56c0,0,.55-17.22.33-18.38s-1.31-1.58-1.31-1.58Z" style="fill: #a3ea2a; opacity: .36;"/>
        </g>
      </g>
      <rect x="342.59" y="352.47" width="9.52" height="7.67" style="fill: url(#linear-gradient-24);"/>
      <path d="m320.75,322.77h53.2c.51,0,.93.42.93.93v31.23c0,.51-.42.93-.93.93h-53.2c-.51,0-.93-.42-.93-.93v-31.23c0-.51.42-.93.93-.93Z" style="fill: url(#linear-gradient-25);"/>
      <path d="m374.88,323.7v28.55h-55.05v-28.55c0-.51.41-.93.93-.93h53.2c.51,0,.93.41.93.93Z" style="fill: url(#linear-gradient-26);"/>
      <path d="m339.04,359.43h16.62v.71c0,.4-.33.73-.73.73h-15.16c-.4,0-.73-.33-.73-.73v-.71h0Z" transform="translate(694.71 720.3) rotate(180)" style="fill: url(#linear-gradient-27);"/>
      <circle cx="347.35" cy="354.44" r=".95" style="fill: #1c2538;"/>
      <path d="m321.86,349.98v-25.01c0-.33.27-.61.61-.61h49.78c.33,0,.61.27.61.61v25.01c0,.46-.38.83-.86.83h-49.27c-.47,0-.86-.37-.86-.83Z" style="fill: url(#linear-gradient-28);"/>
      <rect x="329.54" y="329.54" width="24.66" height=".8" style="fill: #a3ea2a;"/>
      <rect x="329.56" y="331.57" width="31.94" height=".8" style="fill: #a3ea2a;"/>
      <rect x="329.56" y="333.59" width="34.82" height=".8" style="fill: #a3ea2a;"/>
      <rect x="329.54" y="338.19" width="24.66" height=".8" style="fill: #a3ea2a;"/>
      <rect x="329.56" y="340.21" width="31.94" height=".8" style="fill: #a3ea2a;"/>
      <rect x="329.56" y="342.23" width="34.82" height=".8" style="fill: #a3ea2a;"/>
    </g>
  </g>
  <g id="Router">
    <g>
      <path d="m278.34,222.23c-.01,14.24-19.43,25.8-43.36,25.82-23.94.02-43.33-11.51-43.32-25.75v-14.8s86.7-.08,86.7-.08c0,0,0,6.19-.01,14.8Z" style="fill: url(#linear-gradient-29);"/>
      <ellipse cx="235.01" cy="207.47" rx="43.34" ry="25.78" transform="translate(-.38 .43) rotate(-.1)" style="fill: url(#linear-gradient-30);"/>
      <polygon points="225.48 204.19 210.81 204.2 210.81 199.91 199.11 206.65 210.8 213.37 210.8 209.07 225.47 209.06 225.48 204.19" style="fill: url(#linear-gradient-31);"/>
      <polygon points="244.55 209.04 259.22 209.03 259.22 213.33 270.92 206.59 259.23 199.87 259.23 204.16 244.56 204.17 244.55 209.04" style="fill: url(#linear-gradient-32);"/>
      <polygon points="232.57 210.24 232.56 219.61 232.56 220.59 228.25 220.6 234.99 232.24 241.76 220.58 237.45 220.59 237.45 219.61 237.46 210.24 232.57 210.24" style="fill: url(#linear-gradient-33);"/>
      <polygon points="237.06 202.99 237.06 193.23 237.06 192.41 240.66 192.4 235.04 182.7 229.4 192.41 232.99 192.41 232.99 193.23 232.98 203 237.06 202.99" style="fill: url(#linear-gradient-34);"/>
    </g>
  </g>
  <path d="m694.58,332.28l-3.39-3.68,4.41-4.06,3.39,3.68-4.41,4.06Zm8.83-8.13l-3.39-3.68,4.41-4.06,3.39,3.68-4.41,4.06Zm8.83-8.13l-3.39-3.68,4.41-4.06,3.39,3.68-4.41,4.06Zm8.83-8.13l-3.39-3.68,4.41-4.06,3.39,3.68-4.41,4.06Zm8.83-8.13l-3.39-3.68,4.42-4.06,3.39,3.68-4.42,4.06Zm8.83-8.13l-3.39-3.68,4.42-4.06,3.39,3.68-4.42,4.06Zm8.83-8.13l-3.39-3.68,4.42-4.06,3.39,3.68-4.42,4.06Zm8.83-8.13l-3.39-3.68,4.42-4.06,3.39,3.68-4.42,4.06Zm8.83-8.13l-3.39-3.68,4.41-4.06,3.39,3.68-4.41,4.06Zm8.83-8.13l-3.39-3.68,4.41-4.06,3.39,3.68-4.41,4.06Zm8.83-8.13l-3.39-3.68,4.41-4.06,3.39,3.68-4.41,4.06Zm8.83-8.13l-3.39-3.68,4.41-4.06,3.39,3.68-4.41,4.06Zm8.83-8.13l-3.39-3.68,4.42-4.06,3.39,3.68-4.42,4.06Zm8.83-8.13l-3.39-3.68,4.42-4.06,3.39,3.68-4.42,4.06Zm8.83-8.13l-3.39-3.68,4.42-4.06,3.39,3.68-4.42,4.06Z" style="fill: #a3ea2a;"/>
  <path d="m825.03,342.63h-5v-6h5v6Zm0-12h-5v-6h5v6Zm0-12h-5v-6h5v6Zm0-12h-5v-6h5v6Zm0-12h-5v-6h5v6Zm0-12h-5v-6h5v6Zm0-12h-5v-6h5v6Zm0-12h-5v-6h5v6Zm0-12h-5v-6h5v6Zm0-12h-5v-2.39h5v2.39Z" style="fill: #a3ea2a;"/>
  <path d="m908.61,325.95l-2.72-5.35,4.46-2.27,2.72,5.35-4.46,2.27Zm-5.44-10.7l-2.72-5.35,4.46-2.27,2.72,5.35-4.46,2.27Zm-5.44-10.7l-2.72-5.35,4.46-2.27,2.72,5.35-4.46,2.27Zm-5.44-10.7l-2.72-5.35,4.46-2.27,2.72,5.35-4.46,2.27Zm-5.44-10.7l-2.72-5.35,4.46-2.27,2.72,5.35-4.46,2.27Zm-5.44-10.7l-2.72-5.35,4.46-2.27,2.72,5.35-4.46,2.27Zm-5.44-10.7l-2.72-5.35,4.46-2.27,2.72,5.35-4.46,2.27Zm-5.44-10.7l-2.72-5.35,4.46-2.27,2.72,5.35-4.46,2.27Zm-5.44-10.7l-2.72-5.35,4.46-2.27,2.72,5.35-4.46,2.27Zm-5.44-10.7l-2.72-5.35,4.46-2.27,2.72,5.35-4.46,2.27Zm-5.44-10.7l-2.3-4.53,4.46-2.27,2.3,4.53-4.46,2.27Z" style="fill: #a3ea2a;"/>
  <g id="Desktop_variation-4" data-name="Desktop variation">
    <g>
      <g id="Desktop_Computer-4" data-name="Desktop Computer">
        <g>
          <path d="m709.42,315.14v38.75c0,1.29-.9,2.41-2.16,2.7l-5.35,1.2-10.82,2.43c.34-.1,1.34-.65,1.37-3.37.01-1.46-.16-11.67-.36-22.56-.2-11.18-.43-23.07-.5-26.91-.01-.53-.16-1.04-.44-1.47-.24-.38-.56-.71-.96-.95-.06-.04-.12-.07-.18-.1-.21-.12-.43-.21-.66-.28l.5-.02,1.61-.07c1.49-.06,2.97.31,4.27,1.06l12.3,7.18c.85.5,1.37,1.4,1.37,2.39Z" style="fill: #525a6a;"/>
          <path d="m701.9,357.79l-10.82,2.43c.34-.1,1.34-.65,1.37-3.37.01-1.46-.16-11.67-.36-22.56.65,3.37,4.08,19.96,9.81,23.49Z" style="fill: #525a6a;"/>
          <path d="m709.42,315.14v2.96c-2.45-5.3-13.59-11.23-15.35-11.61-1.18-.25-2.25-.45-2.9-.57-.4-.07-.64-.11-.64-.11l-.5-.94-.37-.58,1.48.05c1.72.05,3.4.54,4.89,1.41l12.01,7.02c.85.5,1.37,1.4,1.37,2.39Z" style="fill: #525a6a;"/>
          <path d="m691.08,360.22c-.07.02-.11.02-.11.02l.11-.02Z" style="fill: #2c2c2c;"/>
          <path d="m673.01,305.62l16.26-1.28c1.35-.11,2.51.87,2.53,2.13l.65,51.8c.02,1.26-1.13,2.27-2.49,2.18l-16.91-1.03c-1.23-.07-2.18-1.02-2.18-2.16v-49.49c0-1.12.93-2.06,2.14-2.15Z" style="fill: #89bd27;"/>
          <path d="m691.49,357.71c.02,1.24-1.07,2.23-2.35,2.15l-15.99-1.01c-1.16-.07-2.06-1-2.06-2.13v-48.84c0-1.11.88-2.04,2.03-2.13l4.05-.33,11.35-.93c1.28-.11,2.38.86,2.4,2.1l.22,22.98.33,26.07.02,2.07Z" style="fill: #727c92;"/>
          <path d="m691.49,357.68c.02,1.24-1.07,2.23-2.35,2.15l-15.99-1.01c-1.16-.07-2.06-1-2.06-2.13v-48.78c0-1.11.88-2.03,2.02-2.12l4.04-.33,14.31,50.16.02,2.06Z" style="fill: #525a6a; opacity: .65;"/>
          <path d="m671.75,308.4v2.87c0,.37.33.67.71.64l16.84-1.18c.35-.02.62-.3.62-.64v-3.17c0-.38-.34-.67-.72-.64l-16.84,1.48c-.34.03-.6.31-.6.64Z" style="fill: #d4d8df;"/>
          <path d="m671.75,314.16v2.88c0,.37.32.66.7.64l16.84-.89c.35-.02.63-.3.63-.64v-3.17c0-.37-.33-.67-.71-.64l-16.84,1.18c-.35.02-.62.3-.62.64Z" style="fill: #d4d8df;"/>
          <path d="m671.75,319.92v2.88c0,.36.31.65.69.64l16.84-.59c.36-.01.64-.3.64-.64v-3.17c0-.37-.32-.66-.7-.64l-16.84.89c-.35.02-.63.3-.63.64Z" style="fill: #d4d8df;"/>
          <polygon points="687.06 334.44 687.06 335.32 674.95 335.32 674.95 328.93 675.39 328.92 675.39 334.44 687.06 334.44" style="fill: #1c2538;"/>
          <polygon points="687.06 328.62 687.06 334.44 675.39 334.44 675.39 328.93 687.06 328.62" style="fill: #d4d8df;"/>
          <polyline points="676.93 353.49 676.93 354.48 678.8 354.48 678.8 353.49 676.93 353.49" style="fill: #d4d8df;"/>
          <polyline points="681.44 353.6 681.44 354.59 683.65 354.59 683.65 353.6 681.44 353.6" style="fill: #d4d8df;"/>
          <polygon points="687.06 331.76 675.5 331.85 675.5 332.42 687.06 332.42 687.06 331.76" style="fill: #1c2538;"/>
          <path d="m691.47,357.68c.02,1.24-1.06,2.23-2.35,2.15l-15.97-1.01c-1.16-.07-2.06-1-2.06-2.13v-22.54c.31,3.66.04,19.61,2.69,22.44,2.15,2.29,11.76,2.2,14.8,1.51s2.46-19.81,2.56-28.49l.34,28.07Z" style="fill: #1c2538;"/>
          <polygon points="707.43 318.79 707.57 353.33 706.44 353.6 706.16 317.97 707.43 318.79" style="fill: #727c92; opacity: .65;"/>
          <path d="m673.79,356.61l-2.01,1.35-.2.09s.26.49,1.04.71l1.85-1.61s-.63-.41-.69-.55Z" style="fill: #e8e8e8; opacity: .26;"/>
          <path d="m671.48,358.62s1.32.71,1.96.76l15.13.98c.69.05,1.42-.07,2-.44l1.18-1.03-.06-.02-.95.61c-.76.49-1.71.66-2.6.6l-14.54-.88c-.67-.04-2.12-.58-2.12-.58h0Z" style="fill: #64930a;"/>
          <path d="m673.63,358.1s3.29.9,7.44,1.02c4.15.12,7.96-.27,9.01-.57,0,0-6.72.42-9.01.33-2.29-.09-7.59-.84-7.59-.84" style="fill: #e8e8e8; opacity: .26;"/>
          <path d="m690.5,304.85s.73.61.73,1.41.24,18.56.24,18.56c0,0,.55-17.22.33-18.38s-1.31-1.58-1.31-1.58Z" style="fill: #a3ea2a; opacity: .36;"/>
        </g>
      </g>
      <rect x="705.14" y="352.47" width="9.52" height="7.67" style="fill: url(#linear-gradient-35);"/>
      <path d="m683.3,322.77h53.2c.51,0,.93.42.93.93v31.23c0,.51-.42.93-.93.93h-53.2c-.51,0-.93-.42-.93-.93v-31.23c0-.51.42-.93.93-.93Z" style="fill: url(#linear-gradient-36);"/>
      <path d="m737.43,323.7v28.55h-55.05v-28.55c0-.51.41-.93.93-.93h53.2c.51,0,.93.41.93.93Z" style="fill: url(#linear-gradient-37);"/>
      <path d="m701.59,359.43h16.62v.71c0,.4-.33.73-.73.73h-15.16c-.4,0-.73-.33-.73-.73v-.71h0Z" transform="translate(1419.81 720.3) rotate(180)" style="fill: url(#linear-gradient-38);"/>
      <circle cx="709.9" cy="354.44" r=".95" style="fill: #1c2538;"/>
      <path d="m684.41,349.98v-25.01c0-.33.27-.61.61-.61h49.78c.33,0,.61.27.61.61v25.01c0,.46-.38.83-.86.83h-49.27c-.47,0-.86-.37-.86-.83Z" style="fill: url(#linear-gradient-39);"/>
      <rect x="692.09" y="329.54" width="24.66" height=".8" style="fill: #a3ea2a;"/>
      <rect x="692.11" y="331.57" width="31.94" height=".8" style="fill: #a3ea2a;"/>
      <rect x="692.11" y="333.59" width="34.82" height=".8" style="fill: #a3ea2a;"/>
      <rect x="692.09" y="338.19" width="24.66" height=".8" style="fill: #a3ea2a;"/>
      <rect x="692.11" y="340.21" width="31.94" height=".8" style="fill: #a3ea2a;"/>
      <rect x="692.11" y="342.23" width="34.82" height=".8" style="fill: #a3ea2a;"/>
    </g>
  </g>
  <g id="Desktop_variation-5" data-name="Desktop variation">
    <g>
      <g id="Desktop_Computer-5" data-name="Desktop Computer">
        <g>
          <path d="m822.43,315.14v38.75c0,1.29-.9,2.41-2.16,2.7l-5.35,1.2-10.82,2.43c.34-.1,1.34-.65,1.37-3.37.01-1.46-.16-11.67-.36-22.56-.2-11.18-.43-23.07-.5-26.91-.01-.53-.16-1.04-.44-1.47-.24-.38-.56-.71-.96-.95-.06-.04-.12-.07-.18-.1-.21-.12-.43-.21-.66-.28l.5-.02,1.61-.07c1.49-.06,2.97.31,4.27,1.06l12.3,7.18c.85.5,1.37,1.4,1.37,2.39Z" style="fill: #525a6a;"/>
          <path d="m814.91,357.79l-10.82,2.43c.34-.1,1.34-.65,1.37-3.37.01-1.46-.16-11.67-.36-22.56.65,3.37,4.08,19.96,9.81,23.49Z" style="fill: #525a6a;"/>
          <path d="m822.43,315.14v2.96c-2.45-5.3-13.59-11.23-15.35-11.61-1.18-.25-2.25-.45-2.9-.57-.4-.07-.64-.11-.64-.11l-.5-.94-.37-.58,1.48.05c1.72.05,3.4.54,4.89,1.41l12.01,7.02c.85.5,1.37,1.4,1.37,2.39Z" style="fill: #525a6a;"/>
          <path d="m804.09,360.22c-.07.02-.11.02-.11.02l.11-.02Z" style="fill: #2c2c2c;"/>
          <path d="m786.02,305.62l16.26-1.28c1.35-.11,2.51.87,2.53,2.13l.65,51.8c.02,1.26-1.13,2.27-2.49,2.18l-16.91-1.03c-1.23-.07-2.18-1.02-2.18-2.16v-49.49c0-1.12.93-2.06,2.14-2.15Z" style="fill: #89bd27;"/>
          <path d="m804.5,357.71c.02,1.24-1.07,2.23-2.35,2.15l-15.99-1.01c-1.16-.07-2.06-1-2.06-2.13v-48.84c0-1.11.88-2.04,2.03-2.13l4.05-.33,11.35-.93c1.28-.11,2.38.86,2.4,2.1l.22,22.98.33,26.07.02,2.07Z" style="fill: #727c92;"/>
          <path d="m804.5,357.68c.02,1.24-1.07,2.23-2.35,2.15l-15.99-1.01c-1.16-.07-2.06-1-2.06-2.13v-48.78c0-1.11.88-2.03,2.02-2.12l4.04-.33,14.31,50.16.02,2.06Z" style="fill: #525a6a; opacity: .65;"/>
          <path d="m784.76,308.4v2.87c0,.37.33.67.71.64l16.84-1.18c.35-.02.62-.3.62-.64v-3.17c0-.38-.34-.67-.72-.64l-16.84,1.48c-.34.03-.6.31-.6.64Z" style="fill: #d4d8df;"/>
          <path d="m784.76,314.16v2.88c0,.37.32.66.7.64l16.84-.89c.35-.02.63-.3.63-.64v-3.17c0-.37-.33-.67-.71-.64l-16.84,1.18c-.35.02-.62.3-.62.64Z" style="fill: #d4d8df;"/>
          <path d="m784.76,319.92v2.88c0,.36.31.65.69.64l16.84-.59c.36-.01.64-.3.64-.64v-3.17c0-.37-.32-.66-.7-.64l-16.84.89c-.35.02-.63.3-.63.64Z" style="fill: #d4d8df;"/>
          <polygon points="800.07 334.44 800.07 335.32 787.96 335.32 787.96 328.93 788.4 328.92 788.4 334.44 800.07 334.44" style="fill: #1c2538;"/>
          <polygon points="800.07 328.62 800.07 334.44 788.4 334.44 788.4 328.93 800.07 328.62" style="fill: #d4d8df;"/>
          <polyline points="789.94 353.49 789.94 354.48 791.81 354.48 791.81 353.49 789.94 353.49" style="fill: #d4d8df;"/>
          <polyline points="794.45 353.6 794.45 354.59 796.66 354.59 796.66 353.6 794.45 353.6" style="fill: #d4d8df;"/>
          <polygon points="800.07 331.76 788.51 331.85 788.51 332.42 800.07 332.42 800.07 331.76" style="fill: #1c2538;"/>
          <path d="m804.48,357.68c.02,1.24-1.06,2.23-2.35,2.15l-15.97-1.01c-1.16-.07-2.06-1-2.06-2.13v-22.54c.31,3.66.04,19.61,2.69,22.44,2.15,2.29,11.76,2.2,14.8,1.51s2.46-19.81,2.56-28.49l.34,28.07Z" style="fill: #1c2538;"/>
          <polygon points="820.45 318.79 820.59 353.33 819.45 353.6 819.17 317.97 820.45 318.79" style="fill: #727c92; opacity: .65;"/>
          <path d="m786.8,356.61l-2.01,1.35-.2.09s.26.49,1.04.71l1.85-1.61s-.63-.41-.69-.55Z" style="fill: #e8e8e8; opacity: .26;"/>
          <path d="m784.49,358.62s1.32.71,1.96.76l15.13.98c.69.05,1.42-.07,2-.44l1.18-1.03-.06-.02-.95.61c-.76.49-1.71.66-2.6.6l-14.54-.88c-.67-.04-2.12-.58-2.12-.58h0Z" style="fill: #64930a;"/>
          <path d="m786.64,358.1s3.29.9,7.44,1.02c4.15.12,7.96-.27,9.01-.57,0,0-6.72.42-9.01.33-2.29-.09-7.59-.84-7.59-.84" style="fill: #e8e8e8; opacity: .26;"/>
          <path d="m803.51,304.85s.73.61.73,1.41.24,18.56.24,18.56c0,0,.55-17.22.33-18.38s-1.31-1.58-1.31-1.58Z" style="fill: #a3ea2a; opacity: .36;"/>
        </g>
      </g>
      <rect x="818.15" y="352.47" width="9.52" height="7.67" style="fill: url(#linear-gradient-40);"/>
      <path d="m796.31,322.77h53.2c.51,0,.93.42.93.93v31.23c0,.51-.42.93-.93.93h-53.2c-.51,0-.93-.42-.93-.93v-31.23c0-.51.42-.93.93-.93Z" style="fill: url(#linear-gradient-41);"/>
      <path d="m850.44,323.7v28.55h-55.05v-28.55c0-.51.41-.93.93-.93h53.2c.51,0,.93.41.93.93Z" style="fill: url(#linear-gradient-42);"/>
      <path d="m814.6,359.43h16.62v.71c0,.4-.33.73-.73.73h-15.16c-.4,0-.73-.33-.73-.73v-.71h0Z" transform="translate(1645.83 720.3) rotate(180)" style="fill: url(#linear-gradient-43);"/>
      <circle cx="822.91" cy="354.44" r=".95" style="fill: #1c2538;"/>
      <path d="m797.42,349.98v-25.01c0-.33.27-.61.61-.61h49.78c.33,0,.61.27.61.61v25.01c0,.46-.38.83-.86.83h-49.27c-.47,0-.86-.37-.86-.83Z" style="fill: url(#linear-gradient-44);"/>
      <rect x="805.1" y="329.54" width="24.66" height=".8" style="fill: #a3ea2a;"/>
      <rect x="805.12" y="331.57" width="31.94" height=".8" style="fill: #a3ea2a;"/>
      <rect x="805.12" y="333.59" width="34.82" height=".8" style="fill: #a3ea2a;"/>
      <rect x="805.1" y="338.19" width="24.66" height=".8" style="fill: #a3ea2a;"/>
      <rect x="805.12" y="340.21" width="31.94" height=".8" style="fill: #a3ea2a;"/>
      <rect x="805.12" y="342.23" width="34.82" height=".8" style="fill: #a3ea2a;"/>
    </g>
  </g>
  <g id="Desktop_variation-6" data-name="Desktop variation">
    <g>
      <g id="Desktop_Computer-6" data-name="Desktop Computer">
        <g>
          <path d="m928.78,315.14v38.75c0,1.29-.9,2.41-2.16,2.7l-5.35,1.2-10.82,2.43c.34-.1,1.34-.65,1.37-3.37.01-1.46-.16-11.67-.36-22.56-.2-11.18-.43-23.07-.5-26.91-.01-.53-.16-1.04-.44-1.47-.24-.38-.56-.71-.96-.95-.06-.04-.12-.07-.18-.1-.21-.12-.43-.21-.66-.28l.5-.02,1.61-.07c1.49-.06,2.97.31,4.27,1.06l12.3,7.18c.85.5,1.37,1.4,1.37,2.39Z" style="fill: #525a6a;"/>
          <path d="m921.26,357.79l-10.82,2.43c.34-.1,1.34-.65,1.37-3.37.01-1.46-.16-11.67-.36-22.56.65,3.37,4.08,19.96,9.81,23.49Z" style="fill: #525a6a;"/>
          <path d="m928.78,315.14v2.96c-2.45-5.3-13.59-11.23-15.35-11.61-1.18-.25-2.25-.45-2.9-.57-.4-.07-.64-.11-.64-.11l-.5-.94-.37-.58,1.48.05c1.72.05,3.4.54,4.89,1.41l12.01,7.02c.85.5,1.37,1.4,1.37,2.39Z" style="fill: #525a6a;"/>
          <path d="m910.45,360.22c-.07.02-.11.02-.11.02l.11-.02Z" style="fill: #2c2c2c;"/>
          <path d="m892.37,305.62l16.26-1.28c1.35-.11,2.51.87,2.53,2.13l.65,51.8c.02,1.26-1.13,2.27-2.49,2.18l-16.91-1.03c-1.23-.07-2.18-1.02-2.18-2.16v-49.49c0-1.12.93-2.06,2.14-2.15Z" style="fill: #89bd27;"/>
          <path d="m910.85,357.71c.02,1.24-1.07,2.23-2.35,2.15l-15.99-1.01c-1.16-.07-2.06-1-2.06-2.13v-48.84c0-1.11.88-2.04,2.03-2.13l4.05-.33,11.35-.93c1.28-.11,2.38.86,2.4,2.1l.22,22.98.33,26.07.02,2.07Z" style="fill: #727c92;"/>
          <path d="m910.85,357.68c.02,1.24-1.07,2.23-2.35,2.15l-15.99-1.01c-1.16-.07-2.06-1-2.06-2.13v-48.78c0-1.11.88-2.03,2.02-2.12l4.04-.33,14.31,50.16.02,2.06Z" style="fill: #525a6a; opacity: .65;"/>
          <path d="m891.12,308.4v2.87c0,.37.33.67.71.64l16.84-1.18c.35-.02.62-.3.62-.64v-3.17c0-.38-.34-.67-.72-.64l-16.84,1.48c-.34.03-.6.31-.6.64Z" style="fill: #d4d8df;"/>
          <path d="m891.12,314.16v2.88c0,.37.32.66.7.64l16.84-.89c.35-.02.63-.3.63-.64v-3.17c0-.37-.33-.67-.71-.64l-16.84,1.18c-.35.02-.62.3-.62.64Z" style="fill: #d4d8df;"/>
          <path d="m891.12,319.92v2.88c0,.36.31.65.69.64l16.84-.59c.36-.01.64-.3.64-.64v-3.17c0-.37-.32-.66-.7-.64l-16.84.89c-.35.02-.63.3-.63.64Z" style="fill: #d4d8df;"/>
          <polygon points="906.42 334.44 906.42 335.32 894.31 335.32 894.31 328.93 894.75 328.92 894.75 334.44 906.42 334.44" style="fill: #1c2538;"/>
          <polygon points="906.42 328.62 906.42 334.44 894.75 334.44 894.75 328.93 906.42 328.62" style="fill: #d4d8df;"/>
          <polyline points="896.29 353.49 896.29 354.48 898.16 354.48 898.16 353.49 896.29 353.49" style="fill: #d4d8df;"/>
          <polyline points="900.81 353.6 900.81 354.59 903.01 354.59 903.01 353.6 900.81 353.6" style="fill: #d4d8df;"/>
          <polygon points="906.42 331.76 894.86 331.85 894.86 332.42 906.42 332.42 906.42 331.76" style="fill: #1c2538;"/>
          <path d="m910.84,357.68c.02,1.24-1.06,2.23-2.35,2.15l-15.97-1.01c-1.16-.07-2.06-1-2.06-2.13v-22.54c.31,3.66.04,19.61,2.69,22.44,2.15,2.29,11.76,2.2,14.8,1.51s2.46-19.81,2.56-28.49l.34,28.07Z" style="fill: #1c2538;"/>
          <polygon points="926.8 318.79 926.94 353.33 925.81 353.6 925.53 317.97 926.8 318.79" style="fill: #727c92; opacity: .65;"/>
          <path d="m893.16,356.61l-2.01,1.35-.2.09s.26.49,1.04.71l1.85-1.61s-.63-.41-.69-.55Z" style="fill: #e8e8e8; opacity: .26;"/>
          <path d="m890.85,358.62s1.32.71,1.96.76l15.13.98c.69.05,1.42-.07,2-.44l1.18-1.03-.06-.02-.95.61c-.76.49-1.71.66-2.6.6l-14.54-.88c-.67-.04-2.12-.58-2.12-.58h0Z" style="fill: #64930a;"/>
          <path d="m892.99,358.1s3.29.9,7.44,1.02c4.15.12,7.96-.27,9.01-.57,0,0-6.72.42-9.01.33-2.29-.09-7.59-.84-7.59-.84" style="fill: #e8e8e8; opacity: .26;"/>
          <path d="m909.86,304.85s.73.61.73,1.41.24,18.56.24,18.56c0,0,.55-17.22.33-18.38s-1.31-1.58-1.31-1.58Z" style="fill: #a3ea2a; opacity: .36;"/>
        </g>
      </g>
      <rect x="924.51" y="352.47" width="9.52" height="7.67" style="fill: url(#linear-gradient-45);"/>
      <path d="m902.67,322.77h53.2c.51,0,.93.42.93.93v31.23c0,.51-.42.93-.93.93h-53.2c-.51,0-.93-.42-.93-.93v-31.23c0-.51.42-.93.93-.93Z" style="fill: url(#linear-gradient-46);"/>
      <path d="m956.79,323.7v28.55h-55.05v-28.55c0-.51.41-.93.93-.93h53.2c.51,0,.93.41.93.93Z" style="fill: url(#linear-gradient-47);"/>
      <path d="m920.96,359.43h16.62v.71c0,.4-.33.73-.73.73h-15.16c-.4,0-.73-.33-.73-.73v-.71h0Z" transform="translate(1858.53 720.3) rotate(180)" style="fill: url(#linear-gradient-48);"/>
      <circle cx="929.27" cy="354.44" r=".95" style="fill: #1c2538;"/>
      <path d="m903.77,349.98v-25.01c0-.33.27-.61.61-.61h49.78c.33,0,.61.27.61.61v25.01c0,.46-.38.83-.86.83h-49.27c-.47,0-.86-.37-.86-.83Z" style="fill: url(#linear-gradient-49);"/>
      <rect x="911.46" y="329.54" width="24.66" height=".8" style="fill: #a3ea2a;"/>
      <rect x="911.47" y="331.57" width="31.94" height=".8" style="fill: #a3ea2a;"/>
      <rect x="911.47" y="333.59" width="34.82" height=".8" style="fill: #a3ea2a;"/>
      <rect x="911.46" y="338.19" width="24.66" height=".8" style="fill: #a3ea2a;"/>
      <rect x="911.47" y="340.21" width="31.94" height=".8" style="fill: #a3ea2a;"/>
      <rect x="911.47" y="342.23" width="34.82" height=".8" style="fill: #a3ea2a;"/>
    </g>
  </g>
  <g id="Router-2" data-name="Router">
    <g>
      <path d="m873.26,222.23c-.01,14.24-19.43,25.8-43.36,25.82-23.94.02-43.33-11.51-43.32-25.75v-14.8s86.7-.08,86.7-.08c0,0,0,6.19-.01,14.8Z" style="fill: url(#linear-gradient-50);"/>
      <ellipse cx="829.93" cy="207.47" rx="43.34" ry="25.78" transform="translate(-.38 1.52) rotate(-.1)" style="fill: url(#linear-gradient-51);"/>
      <polygon points="820.39 204.19 805.72 204.2 805.73 199.91 794.02 206.65 805.71 213.37 805.72 209.07 820.39 209.06 820.39 204.19" style="fill: url(#linear-gradient-52);"/>
      <polygon points="839.47 209.04 854.14 209.03 854.14 213.33 865.84 206.59 854.15 199.87 854.14 204.16 839.47 204.17 839.47 209.04" style="fill: url(#linear-gradient-53);"/>
      <polygon points="827.48 210.24 827.47 219.61 827.47 220.59 823.16 220.6 829.91 232.24 836.67 220.58 832.36 220.59 832.36 219.61 832.37 210.24 827.48 210.24" style="fill: url(#linear-gradient-54);"/>
      <polygon points="831.97 202.99 831.98 193.23 831.98 192.41 835.57 192.4 829.95 182.7 824.31 192.41 827.91 192.41 827.91 193.23 827.9 203 831.97 202.99" style="fill: url(#linear-gradient-55);"/>
    </g>
  </g>
</svg>