<?xml version="1.0" encoding="UTF-8"?>
<svg id="Layer_1" data-name="Layer 1" xmlns="http://www.w3.org/2000/svg" width="1140" height="213.71" viewBox="0 0 1140 213.71">
  <rect x="65.56" y="61.23" width="1008.88" height="91.24" rx="19.28" ry="19.28" style="fill: #673a91; stroke: #673a91; stroke-miterlimit: 10; stroke-width: 3.77px;"/>
  <g>
    <path d="m139.51,90.83c0,2.05-.4,4.02-1.21,5.9-.81,1.89-1.86,3.71-3.15,5.46-1.29,1.75-2.75,3.44-4.37,5.05-1.62,1.62-3.21,3.15-4.77,4.61-.81.76-1.69,1.6-2.63,2.55-.94.94-1.85,1.9-2.71,2.87-.86.97-1.63,1.87-2.3,2.71-.67.84-1.09,1.52-1.25,2.06h24.09v10.11h-37.35c-.11-.59-.16-1.35-.16-2.26v-1.94c0-2.59.42-4.96,1.25-7.12.83-2.16,1.93-4.16,3.27-6.02,1.35-1.86,2.87-3.6,4.57-5.21s3.38-3.23,5.05-4.85c1.29-1.24,2.51-2.41,3.64-3.52,1.13-1.1,2.13-2.18,2.99-3.23.86-1.05,1.54-2.1,2.02-3.15.48-1.05.73-2.11.73-3.19,0-2.37-.67-4.04-2.02-5.01-1.35-.97-3.02-1.46-5.01-1.46-1.46,0-2.82.23-4.08.69-1.27.46-2.43,1-3.48,1.62-1.05.62-1.95,1.24-2.71,1.86-.76.62-1.32,1.12-1.7,1.5l-5.98-8.41c2.37-2.21,5.13-4.03,8.29-5.46,3.15-1.43,6.54-2.14,10.15-2.14,3.29,0,6.12.38,8.49,1.13,2.37.76,4.33,1.82,5.86,3.19,1.54,1.37,2.67,3.05,3.4,5.01.73,1.97,1.09,4.19,1.09,6.67Z" style="fill: #fff;"/>
    <path d="m162.8,125.75c0,2.43-.77,4.27-2.3,5.54-1.54,1.27-3.27,1.9-5.21,1.9s-3.68-.63-5.22-1.9c-1.54-1.27-2.3-3.11-2.3-5.54s.77-4.27,2.3-5.54c1.54-1.27,3.27-1.9,5.22-1.9s3.68.63,5.21,1.9c1.54,1.27,2.3,3.11,2.3,5.54Z" style="fill: #fff;"/>
  </g>
  <g>
    <path d="m430.34,104.48c0,4.15-.65,7.78-1.94,10.87-1.29,3.09-3.13,5.65-5.5,7.68-2.38,2.03-5.27,3.55-8.69,4.57-3.42,1.01-7.25,1.52-11.49,1.52-1.94,0-4.2-.08-6.78-.24-2.58-.16-5.12-.5-7.62-1v-46.73c2.49-.46,5.09-.77,7.79-.93,2.7-.16,5.02-.24,6.96-.24,4.11,0,7.83.46,11.18,1.38,3.35.92,6.22,2.38,8.62,4.36,2.4,1.98,4.25,4.52,5.54,7.62,1.29,3.09,1.94,6.81,1.94,11.14Zm-31.22,15.23c.51.05,1.1.08,1.76.1s1.46.03,2.39.03c5.4,0,9.4-1.36,12.01-4.08,2.61-2.72,3.91-6.48,3.91-11.28s-1.25-8.84-3.74-11.42c-2.49-2.58-6.44-3.88-11.84-3.88-.74,0-1.5.01-2.28.04-.79.02-1.52.08-2.21.17v30.32Z" style="fill: #fff;"/>
    <path d="m451.73,91.12c3.05,0,5.58.35,7.61,1.04,2.03.69,3.66,1.69,4.88,2.98,1.22,1.29,2.09,2.86,2.6,4.71.51,1.85.76,3.9.76,6.16v21.46c-1.48.32-3.53.7-6.16,1.14-2.63.44-5.81.66-9.55.66-2.35,0-4.49-.21-6.4-.62-1.92-.42-3.57-1.1-4.95-2.04-1.38-.95-2.45-2.18-3.18-3.7-.74-1.52-1.11-3.39-1.11-5.61s.43-3.92,1.28-5.4c.85-1.48,2-2.65,3.43-3.53,1.43-.88,3.07-1.51,4.92-1.9,1.85-.39,3.76-.59,5.75-.59,1.34,0,2.53.06,3.56.17,1.04.12,1.88.27,2.53.45v-.97c0-1.75-.53-3.16-1.59-4.22-1.06-1.06-2.91-1.59-5.54-1.59-1.75,0-3.48.13-5.19.38-1.71.25-3.18.61-4.43,1.07l-1.32-8.31c.6-.18,1.35-.38,2.25-.59.9-.21,1.88-.39,2.94-.55,1.06-.16,2.18-.3,3.36-.42,1.18-.11,2.36-.17,3.56-.17Zm.83,30.18c1.01,0,1.98-.02,2.91-.07.92-.05,1.66-.12,2.22-.21v-7.82c-.42-.09-1.04-.18-1.87-.28-.83-.09-1.59-.14-2.28-.14-.97,0-1.88.06-2.73.17-.85.12-1.6.33-2.25.66-.65.32-1.15.76-1.52,1.32-.37.55-.55,1.25-.55,2.08,0,1.62.54,2.73,1.63,3.36,1.08.62,2.57.93,4.47.93Z" style="fill: #fff;"/>
    <path d="m476.58,83.02l10.31-1.66v10.73h12.39v8.58h-12.39v12.81c0,2.17.38,3.9,1.14,5.19.76,1.29,2.29,1.94,4.6,1.94,1.11,0,2.25-.1,3.43-.31,1.18-.21,2.25-.5,3.22-.87l1.45,8.03c-1.25.51-2.63.95-4.15,1.32-1.52.37-3.39.55-5.61.55-2.82,0-5.15-.38-6.99-1.14-1.85-.76-3.32-1.82-4.43-3.18-1.11-1.36-1.88-3.01-2.32-4.95-.44-1.94-.66-4.08-.66-6.44v-30.6Z" style="fill: #fff;"/>
    <path d="m519.36,91.12c3.05,0,5.58.35,7.61,1.04,2.03.69,3.66,1.69,4.88,2.98,1.22,1.29,2.09,2.86,2.6,4.71.51,1.85.76,3.9.76,6.16v21.46c-1.48.32-3.53.7-6.16,1.14-2.63.44-5.81.66-9.55.66-2.35,0-4.49-.21-6.4-.62-1.92-.42-3.57-1.1-4.95-2.04-1.38-.95-2.45-2.18-3.18-3.7-.74-1.52-1.11-3.39-1.11-5.61s.43-3.92,1.28-5.4c.85-1.48,2-2.65,3.43-3.53,1.43-.88,3.07-1.51,4.92-1.9,1.85-.39,3.76-.59,5.75-.59,1.34,0,2.53.06,3.56.17,1.04.12,1.88.27,2.53.45v-.97c0-1.75-.53-3.16-1.59-4.22-1.06-1.06-2.91-1.59-5.54-1.59-1.75,0-3.48.13-5.19.38-1.71.25-3.18.61-4.43,1.07l-1.32-8.31c.6-.18,1.35-.38,2.25-.59.9-.21,1.88-.39,2.94-.55,1.06-.16,2.18-.3,3.36-.42,1.18-.11,2.36-.17,3.56-.17Zm.83,30.18c1.01,0,1.98-.02,2.91-.07.92-.05,1.66-.12,2.22-.21v-7.82c-.42-.09-1.04-.18-1.87-.28-.83-.09-1.59-.14-2.28-.14-.97,0-1.88.06-2.73.17-.85.12-1.6.33-2.25.66-.65.32-1.15.76-1.52,1.32-.37.55-.55,1.25-.55,2.08,0,1.62.54,2.73,1.63,3.36,1.08.62,2.57.93,4.47.93Z" style="fill: #fff;"/>
    <path d="m575.71,129.2c-3-.05-5.43-.37-7.3-.97-1.87-.6-3.35-1.44-4.43-2.53-1.08-1.08-1.82-2.4-2.22-3.95-.39-1.55-.59-3.29-.59-5.23v-40.08l10.31-1.66v39.67c0,.92.07,1.75.21,2.49.14.74.4,1.36.8,1.87.39.51.96.92,1.7,1.25.74.32,1.73.53,2.98.62l-1.45,8.51Z" style="fill: #fff;"/>
    <path d="m594.33,81.57c0,1.89-.61,3.38-1.83,4.46-1.22,1.08-2.67,1.63-4.33,1.63s-3.1-.54-4.33-1.63c-1.22-1.08-1.83-2.57-1.83-4.46s.61-3.38,1.83-4.46c1.22-1.08,2.67-1.63,4.33-1.63s3.1.54,4.33,1.63c1.22,1.08,1.83,2.57,1.83,4.46Zm-.97,46.93h-10.31v-36.41h10.31v36.41Z" style="fill: #fff;"/>
    <path d="m603.05,93.34c1.75-.51,4.02-.98,6.78-1.42,2.77-.44,5.68-.66,8.72-.66s5.66.4,7.72,1.21c2.05.81,3.68,1.95,4.88,3.43,1.2,1.48,2.05,3.23,2.56,5.26.51,2.03.76,4.29.76,6.78v20.56h-10.31v-19.31c0-3.32-.44-5.68-1.32-7.06-.88-1.38-2.52-2.08-4.92-2.08-.74,0-1.52.03-2.35.1s-1.57.15-2.22.24v28.11h-10.31v-35.17Z" style="fill: #fff;"/>
    <path d="m654.14,105.17c1.01-1.1,2.06-2.25,3.15-3.44,1.08-1.19,2.13-2.37,3.15-3.54,1.01-1.17,1.97-2.28,2.87-3.34.9-1.05,1.67-1.97,2.32-2.75h12.27c-2.45,2.81-4.83,5.49-7.17,8.05-2.33,2.56-4.88,5.19-7.65,7.91,1.38,1.25,2.81,2.74,4.29,4.47,1.48,1.73,2.91,3.53,4.29,5.38s2.65,3.7,3.81,5.55c1.15,1.85,2.12,3.54,2.91,5.06h-11.86c-.74-1.2-1.58-2.53-2.52-3.99-.94-1.46-1.95-2.91-3.01-4.37s-2.18-2.86-3.35-4.2c-1.17-1.34-2.34-2.48-3.49-3.4v15.96h-10.31v-52.06l10.31-1.66v30.38Z" style="fill: #fff;"/>
  </g>
</svg>