<?xml version="1.0" encoding="UTF-8"?>
<svg id="Layer_1" data-name="Layer 1" xmlns="http://www.w3.org/2000/svg" width="1140" height="213.71" viewBox="0 0 1140 213.71">
  <rect x="65.56" y="61.23" width="1008.88" height="91.24" rx="19.28" ry="19.28" style="fill: #a3ea2a; stroke: #a3ea2a; stroke-miterlimit: 10; stroke-width: 3.77px;"/>
  <g>
    <path d="m109.02,132.14c.32-3.93,1-8.03,2.02-12.29,1.02-4.26,2.28-8.44,3.76-12.53,1.48-4.1,3.14-7.96,4.97-11.6,1.83-3.64,3.69-6.78,5.58-9.42h-24.34v-10.27h39.21v8.73c-1.73,1.89-3.63,4.5-5.7,7.84-2.08,3.34-4.04,7.13-5.9,11.36-1.86,4.23-3.48,8.77-4.85,13.62-1.37,4.85-2.22,9.7-2.55,14.55h-12.21Z" style="fill: #151c2b;"/>
    <path d="m160.92,125.75c0,2.43-.77,4.27-2.3,5.54-1.54,1.27-3.27,1.9-5.21,1.9s-3.68-.63-5.21-1.9c-1.54-1.27-2.3-3.11-2.3-5.54s.77-4.27,2.3-5.54c1.54-1.27,3.27-1.9,5.21-1.9s3.68.63,5.21,1.9c1.54,1.27,2.3,3.11,2.3,5.54Z" style="fill: #151c2b;"/>
  </g>
  <g>
    <path d="m418.63,128.51c-.53-1.67-1.11-3.38-1.72-5.14s-1.23-3.51-1.84-5.25h-18.74c-.61,1.75-1.21,3.5-1.82,5.26-.61,1.76-1.18,3.47-1.7,5.12h-11.21c1.81-5.17,3.52-9.94,5.14-14.33,1.62-4.38,3.21-8.51,4.76-12.39,1.55-3.88,3.08-7.56,4.58-11.04,1.5-3.48,3.07-6.89,4.69-10.21h10.24c1.58,3.32,3.13,6.73,4.66,10.21,1.53,3.49,3.07,7.17,4.62,11.04,1.55,3.88,3.14,8.01,4.76,12.39,1.62,4.39,3.34,9.16,5.15,14.33h-11.57Zm-12.97-37.1c-.24.7-.59,1.64-1.06,2.84-.46,1.2-.99,2.58-1.58,4.16s-1.26,3.3-1.99,5.19c-.73,1.89-1.48,3.87-2.23,5.94h13.72c-.73-2.08-1.45-4.07-2.13-5.96-.69-1.9-1.34-3.63-1.96-5.2-.62-1.57-1.16-2.96-1.63-4.15-.47-1.2-.84-2.14-1.13-2.82Z" style="fill: #151c2b;"/>
    <path d="m469.51,110.3c0,2.82-.35,5.38-1.04,7.68-.69,2.31-1.71,4.29-3.05,5.95-1.34,1.66-3,2.95-4.98,3.88-1.98.92-4.27,1.38-6.85,1.38-1.43,0-2.77-.14-4.01-.42-1.25-.28-2.45-.67-3.6-1.18v13.71h-10.31v-47.97c.92-.28,1.98-.54,3.18-.8,1.2-.25,2.46-.47,3.77-.66,1.32-.18,2.65-.33,4.02-.45,1.36-.11,2.67-.17,3.91-.17,3,0,5.68.45,8.03,1.35,2.35.9,4.34,2.17,5.95,3.81,1.61,1.64,2.85,3.63,3.7,5.99.85,2.35,1.28,4.98,1.28,7.89Zm-10.52.28c0-3.18-.72-5.73-2.15-7.65-1.43-1.91-3.55-2.87-6.37-2.87-.92,0-1.78.03-2.56.1-.79.07-1.43.15-1.94.24v18.62c.65.42,1.49.76,2.53,1.04,1.04.28,2.09.42,3.15.42,4.89,0,7.34-3.3,7.34-9.9Z" style="fill: #151c2b;"/>
    <path d="m511.32,110.3c0,2.82-.35,5.38-1.04,7.68-.69,2.31-1.71,4.29-3.05,5.95-1.34,1.66-3,2.95-4.98,3.88-1.98.92-4.27,1.38-6.85,1.38-1.43,0-2.77-.14-4.01-.42-1.25-.28-2.45-.67-3.6-1.18v13.71h-10.31v-47.97c.92-.28,1.98-.54,3.18-.8,1.2-.25,2.46-.47,3.77-.66,1.32-.18,2.65-.33,4.02-.45,1.36-.11,2.67-.17,3.91-.17,3,0,5.68.45,8.03,1.35,2.35.9,4.34,2.17,5.95,3.81,1.61,1.64,2.85,3.63,3.7,5.99.85,2.35,1.28,4.98,1.28,7.89Zm-10.52.28c0-3.18-.72-5.73-2.15-7.65-1.43-1.91-3.55-2.87-6.37-2.87-.92,0-1.78.03-2.56.1-.79.07-1.43.15-1.94.24v18.62c.65.42,1.49.76,2.53,1.04,1.04.28,2.09.42,3.15.42,4.89,0,7.34-3.3,7.34-9.9Z" style="fill: #151c2b;"/>
    <path d="m533.82,129.2c-3-.05-5.43-.37-7.3-.97-1.87-.6-3.35-1.44-4.43-2.53-1.08-1.08-1.82-2.4-2.22-3.95-.39-1.55-.59-3.29-.59-5.23v-40.08l10.31-1.66v39.67c0,.92.07,1.75.21,2.49.14.74.4,1.36.8,1.87.39.51.96.92,1.7,1.25.74.32,1.73.53,2.98.62l-1.45,8.51Z" style="fill: #151c2b;"/>
    <path d="m552.44,81.57c0,1.89-.61,3.38-1.83,4.46-1.22,1.08-2.67,1.63-4.33,1.63s-3.1-.54-4.33-1.63c-1.22-1.08-1.83-2.57-1.83-4.46s.61-3.38,1.83-4.46c1.22-1.08,2.67-1.63,4.33-1.63s3.1.54,4.33,1.63c1.22,1.08,1.83,2.57,1.83,4.46Zm-.97,46.93h-10.31v-36.41h10.31v36.41Z" style="fill: #151c2b;"/>
    <path d="m559.43,110.3c0-2.63.43-5.11,1.28-7.44.85-2.33,2.09-4.36,3.7-6.09,1.62-1.73,3.58-3.1,5.88-4.12,2.31-1.01,4.94-1.52,7.89-1.52,1.94,0,3.71.17,5.33.52,1.61.35,3.18.84,4.71,1.49l-2.15,8.24c-.97-.37-2.03-.69-3.18-.97-1.15-.28-2.45-.42-3.88-.42-3.05,0-5.32.95-6.82,2.84-1.5,1.89-2.25,4.38-2.25,7.48,0,3.28.7,5.81,2.11,7.61,1.41,1.8,3.86,2.7,7.37,2.7,1.25,0,2.58-.11,4.02-.35,1.43-.23,2.75-.6,3.95-1.11l1.45,8.45c-1.2.51-2.7.95-4.5,1.32s-3.78.55-5.95.55c-3.32,0-6.19-.5-8.58-1.49-2.4-.99-4.37-2.34-5.92-4.05-1.55-1.71-2.68-3.73-3.39-6.06-.72-2.33-1.07-4.86-1.07-7.58Z" style="fill: #151c2b;"/>
    <path d="m607.13,91.12c3.05,0,5.58.35,7.61,1.04,2.03.69,3.66,1.69,4.88,2.98,1.22,1.29,2.09,2.86,2.6,4.71.51,1.85.76,3.9.76,6.16v21.46c-1.48.32-3.53.7-6.16,1.14-2.63.44-5.81.66-9.55.66-2.35,0-4.49-.21-6.4-.62-1.92-.42-3.57-1.1-4.95-2.04-1.38-.95-2.45-2.18-3.18-3.7-.74-1.52-1.11-3.39-1.11-5.61s.43-3.92,1.28-5.4c.85-1.48,2-2.65,3.43-3.53,1.43-.88,3.07-1.51,4.92-1.9,1.85-.39,3.76-.59,5.75-.59,1.34,0,2.53.06,3.56.17,1.04.12,1.88.27,2.53.45v-.97c0-1.75-.53-3.16-1.59-4.22-1.06-1.06-2.91-1.59-5.54-1.59-1.75,0-3.48.13-5.19.38-1.71.25-3.18.61-4.43,1.07l-1.32-8.31c.6-.18,1.35-.38,2.25-.59.9-.21,1.88-.39,2.94-.55,1.06-.16,2.18-.3,3.36-.42,1.18-.11,2.36-.17,3.56-.17Zm.83,30.18c1.01,0,1.98-.02,2.91-.07.92-.05,1.66-.12,2.22-.21v-7.82c-.42-.09-1.04-.18-1.87-.28-.83-.09-1.59-.14-2.28-.14-.97,0-1.88.06-2.73.17-.85.12-1.6.33-2.25.66-.65.32-1.15.76-1.52,1.32-.37.55-.55,1.25-.55,2.08,0,1.62.54,2.73,1.63,3.36,1.08.62,2.57.93,4.47.93Z" style="fill: #151c2b;"/>
    <path d="m631.98,83.02l10.31-1.66v10.73h12.39v8.58h-12.39v12.81c0,2.17.38,3.9,1.14,5.19.76,1.29,2.29,1.94,4.6,1.94,1.11,0,2.25-.1,3.43-.31,1.18-.21,2.25-.5,3.22-.87l1.45,8.03c-1.25.51-2.63.95-4.15,1.32-1.52.37-3.39.55-5.61.55-2.82,0-5.15-.38-6.99-1.14-1.85-.76-3.32-1.82-4.43-3.18-1.11-1.36-1.88-3.01-2.32-4.95-.44-1.94-.66-4.08-.66-6.44v-30.6Z" style="fill: #151c2b;"/>
    <path d="m674.35,81.57c0,1.89-.61,3.38-1.83,4.46-1.22,1.08-2.67,1.63-4.33,1.63s-3.1-.54-4.33-1.63c-1.22-1.08-1.83-2.57-1.83-4.46s.61-3.38,1.83-4.46c1.22-1.08,2.67-1.63,4.33-1.63s3.1.54,4.33,1.63c1.22,1.08,1.83,2.57,1.83,4.46Zm-.97,46.93h-10.31v-36.41h10.31v36.41Z" style="fill: #151c2b;"/>
    <path d="m717.13,110.23c0,2.86-.42,5.48-1.25,7.86-.83,2.38-2.03,4.41-3.6,6.09-1.57,1.68-3.45,2.99-5.64,3.91-2.19.92-4.65,1.38-7.37,1.38s-5.11-.46-7.3-1.38c-2.19-.92-4.07-2.23-5.64-3.91-1.57-1.68-2.79-3.71-3.67-6.09-.88-2.38-1.31-5-1.31-7.86s.45-5.47,1.35-7.82,2.15-4.36,3.74-6.02c1.59-1.66,3.48-2.95,5.68-3.88,2.19-.92,4.58-1.38,7.16-1.38s5.04.46,7.23,1.38c2.19.92,4.07,2.21,5.64,3.88,1.57,1.66,2.79,3.67,3.67,6.02.88,2.35,1.32,4.96,1.32,7.82Zm-10.52,0c0-3.18-.63-5.69-1.9-7.51-1.27-1.82-3.08-2.73-5.43-2.73s-4.18.91-5.47,2.73c-1.29,1.82-1.94,4.33-1.94,7.51s.65,5.71,1.94,7.58c1.29,1.87,3.12,2.8,5.47,2.8s4.16-.93,5.43-2.8c1.27-1.87,1.9-4.4,1.9-7.58Z" style="fill: #151c2b;"/>
    <path d="m725.09,93.34c1.75-.51,4.02-.98,6.78-1.42,2.77-.44,5.68-.66,8.72-.66s5.66.4,7.72,1.21c2.05.81,3.68,1.95,4.88,3.43,1.2,1.48,2.05,3.23,2.56,5.26.51,2.03.76,4.29.76,6.78v20.56h-10.31v-19.31c0-3.32-.44-5.68-1.32-7.06-.88-1.38-2.52-2.08-4.92-2.08-.74,0-1.52.03-2.35.1s-1.57.15-2.22.24v28.11h-10.31v-35.17Z" style="fill: #151c2b;"/>
  </g>
</svg>