<?xml version="1.0" encoding="UTF-8"?>
<svg id="Layer_1" data-name="Layer 1" xmlns="http://www.w3.org/2000/svg" width="1140" height="213.71" viewBox="0 0 1140 213.71">
  <rect x="65.56" y="61.23" width="1008.88" height="91.24" rx="19.28" ry="19.28" style="fill: #2a59be; stroke: #2a59be; stroke-miterlimit: 10; stroke-width: 3.77px;"/>
  <g>
    <path d="m137,76.11v33.63h5.98v9.86h-5.98v12.53h-11.8v-12.53h-24.17v-8.81c1.19-2.37,2.67-5.05,4.45-8.04s3.76-6.06,5.94-9.22c2.18-3.15,4.49-6.24,6.91-9.26,2.43-3.02,4.85-5.74,7.28-8.17h11.4Zm-11.8,14.71c-2.1,2.75-4.34,5.74-6.71,8.97-2.37,3.23-4.37,6.55-5.98,9.95h12.69v-18.92Z" style="fill: #fff;"/>
    <path d="m162.8,125.75c0,2.43-.77,4.27-2.3,5.54-1.54,1.27-3.27,1.9-5.21,1.9s-3.68-.63-5.21-1.9c-1.54-1.27-2.3-3.11-2.3-5.54s.77-4.27,2.3-5.54c1.54-1.27,3.27-1.9,5.21-1.9s3.68.63,5.21,1.9c1.54,1.27,2.3,3.11,2.3,5.54Z" style="fill: #fff;"/>
  </g>
  <g>
    <path d="m423.9,80.53v9.21h-14.47v38.77h-10.8v-38.77h-14.47v-9.21h39.74Z" style="fill: #fff;"/>
    <path d="m447.3,101.23c-.92-.23-2.01-.47-3.25-.73-1.25-.25-2.58-.38-4.02-.38-.65,0-1.42.06-2.32.17s-1.58.24-2.04.38v27.83h-10.31v-34.47c1.85-.65,4.03-1.26,6.54-1.83,2.51-.58,5.32-.87,8.41-.87.55,0,1.22.03,2.01.1.78.07,1.57.16,2.35.28.78.12,1.57.25,2.35.42.78.16,1.45.36,2.01.59l-1.73,8.51Z" style="fill: #fff;"/>
    <path d="m466.96,91.12c3.05,0,5.58.35,7.61,1.04,2.03.69,3.66,1.69,4.88,2.98,1.22,1.29,2.09,2.86,2.6,4.71.51,1.85.76,3.9.76,6.16v21.46c-1.48.32-3.53.7-6.16,1.14-2.63.44-5.81.66-9.55.66-2.35,0-4.49-.21-6.4-.62-1.92-.42-3.57-1.1-4.95-2.04-1.38-.95-2.45-2.18-3.18-3.7-.74-1.52-1.11-3.39-1.11-5.61s.43-3.92,1.28-5.4c.85-1.48,2-2.65,3.43-3.53,1.43-.88,3.07-1.51,4.92-1.9,1.85-.39,3.76-.59,5.75-.59,1.34,0,2.53.06,3.56.17,1.04.12,1.88.27,2.53.45v-.97c0-1.75-.53-3.16-1.59-4.22-1.06-1.06-2.91-1.59-5.54-1.59-1.75,0-3.48.13-5.19.38-1.71.25-3.18.61-4.43,1.07l-1.32-8.31c.6-.18,1.35-.38,2.25-.59.9-.21,1.88-.39,2.94-.55,1.06-.16,2.18-.3,3.36-.42,1.18-.11,2.36-.17,3.56-.17Zm.83,30.18c1.01,0,1.98-.02,2.91-.07.92-.05,1.66-.12,2.22-.21v-7.82c-.42-.09-1.04-.18-1.87-.28-.83-.09-1.59-.14-2.28-.14-.97,0-1.88.06-2.73.17-.85.12-1.6.33-2.25.66-.65.32-1.15.76-1.52,1.32-.37.55-.55,1.25-.55,2.08,0,1.62.54,2.73,1.63,3.36,1.08.62,2.57.93,4.47.93Z" style="fill: #fff;"/>
    <path d="m492.15,93.34c1.75-.51,4.02-.98,6.78-1.42,2.77-.44,5.68-.66,8.72-.66s5.66.4,7.72,1.21c2.05.81,3.68,1.95,4.88,3.43,1.2,1.48,2.05,3.23,2.56,5.26.51,2.03.76,4.29.76,6.78v20.56h-10.31v-19.31c0-3.32-.44-5.68-1.32-7.06-.88-1.38-2.52-2.08-4.92-2.08-.74,0-1.52.03-2.35.1s-1.57.15-2.22.24v28.11h-10.31v-35.17Z" style="fill: #fff;"/>
    <path d="m543.38,121.1c1.89,0,3.23-.18,4.02-.55.78-.37,1.18-1.08,1.18-2.15,0-.83-.51-1.56-1.52-2.18-1.02-.62-2.56-1.33-4.64-2.11-1.62-.6-3.08-1.22-4.4-1.87-1.31-.65-2.43-1.42-3.36-2.32-.92-.9-1.64-1.97-2.15-3.22-.51-1.25-.76-2.75-.76-4.5,0-3.42,1.27-6.11,3.81-8.1,2.54-1.98,6.02-2.98,10.45-2.98,2.22,0,4.34.2,6.37.59,2.03.39,3.65.82,4.85,1.28l-1.8,8.03c-1.2-.42-2.5-.78-3.91-1.11-1.41-.32-2.99-.48-4.74-.48-3.23,0-4.85.9-4.85,2.7,0,.42.07.79.21,1.11.14.32.42.64.83.93.42.3.98.63,1.7.97.71.35,1.63.73,2.73,1.15,2.26.84,4.13,1.66,5.61,2.48,1.48.81,2.64,1.69,3.5,2.64.85.94,1.45,1.99,1.8,3.14.35,1.15.52,2.49.52,4.01,0,3.59-1.35,6.31-4.05,8.15-2.7,1.84-6.52,2.76-11.46,2.76-3.23,0-5.92-.28-8.06-.83s-3.63-1.01-4.47-1.38l1.73-8.38c1.75.69,3.55,1.24,5.4,1.63,1.85.39,3.67.59,5.47.59Z" style="fill: #fff;"/>
    <path d="m600.35,110.3c0,2.82-.35,5.38-1.04,7.68-.69,2.31-1.71,4.29-3.05,5.95-1.34,1.66-3,2.95-4.98,3.88-1.98.92-4.27,1.38-6.85,1.38-1.43,0-2.77-.14-4.01-.42-1.25-.28-2.45-.67-3.6-1.18v13.71h-10.31v-47.97c.92-.28,1.98-.54,3.18-.8,1.2-.25,2.46-.47,3.77-.66,1.32-.18,2.65-.33,4.02-.45,1.36-.11,2.67-.17,3.91-.17,3,0,5.68.45,8.03,1.35,2.35.9,4.34,2.17,5.95,3.81,1.61,1.64,2.85,3.63,3.7,5.99.85,2.35,1.28,4.98,1.28,7.89Zm-10.52.28c0-3.18-.72-5.73-2.15-7.65-1.43-1.91-3.55-2.87-6.37-2.87-.92,0-1.78.03-2.56.1-.79.07-1.43.15-1.94.24v18.62c.65.42,1.49.76,2.53,1.04,1.04.28,2.09.42,3.15.42,4.89,0,7.34-3.3,7.34-9.9Z" style="fill: #fff;"/>
    <path d="m642.37,110.23c0,2.86-.42,5.48-1.25,7.86-.83,2.38-2.03,4.41-3.6,6.09-1.57,1.68-3.45,2.99-5.64,3.91-2.19.92-4.65,1.38-7.37,1.38s-5.11-.46-7.3-1.38c-2.19-.92-4.07-2.23-5.64-3.91-1.57-1.68-2.79-3.71-3.67-6.09-.88-2.38-1.31-5-1.31-7.86s.45-5.47,1.35-7.82,2.15-4.36,3.74-6.02c1.59-1.66,3.48-2.95,5.68-3.88,2.19-.92,4.58-1.38,7.16-1.38s5.04.46,7.23,1.38c2.19.92,4.07,2.21,5.64,3.88,1.57,1.66,2.79,3.67,3.67,6.02.88,2.35,1.32,4.96,1.32,7.82Zm-10.52,0c0-3.18-.63-5.69-1.9-7.51-1.27-1.82-3.08-2.73-5.43-2.73s-4.18.91-5.47,2.73c-1.29,1.82-1.94,4.33-1.94,7.51s.65,5.71,1.94,7.58c1.29,1.87,3.12,2.8,5.47,2.8s4.16-.93,5.43-2.8c1.27-1.87,1.9-4.4,1.9-7.58Z" style="fill: #fff;"/>
    <path d="m672.28,101.23c-.92-.23-2.01-.47-3.25-.73-1.25-.25-2.58-.38-4.02-.38-.65,0-1.42.06-2.32.17s-1.58.24-2.04.38v27.83h-10.31v-34.47c1.85-.65,4.03-1.26,6.54-1.83,2.51-.58,5.32-.87,8.41-.87.55,0,1.22.03,2.01.1.78.07,1.57.16,2.35.28.78.12,1.57.25,2.35.42.78.16,1.45.36,2.01.59l-1.73,8.51Z" style="fill: #fff;"/>
    <path d="m679.2,83.02l10.31-1.66v10.73h12.39v8.58h-12.39v12.81c0,2.17.38,3.9,1.14,5.19.76,1.29,2.29,1.94,4.6,1.94,1.11,0,2.25-.1,3.43-.31,1.18-.21,2.25-.5,3.22-.87l1.45,8.03c-1.25.51-2.63.95-4.15,1.32-1.52.37-3.39.55-5.61.55-2.82,0-5.15-.38-6.99-1.14-1.85-.76-3.32-1.82-4.43-3.18-1.11-1.36-1.88-3.01-2.32-4.95-.44-1.94-.66-4.08-.66-6.44v-30.6Z" style="fill: #fff;"/>
  </g>
</svg>