<?xml version="1.0" encoding="UTF-8"?>
<svg id="Layer_1" data-name="Layer 1" xmlns="http://www.w3.org/2000/svg" width="1140" height="213.71" viewBox="0 0 1140 213.71">
  <rect x="65.56" y="61.23" width="1008.88" height="91.24" rx="19.28" ry="19.28" style="fill: #02adef; stroke: #02adef; stroke-miterlimit: 10; stroke-width: 3.77px;"/>
  <g>
    <path d="m126.64,115.65c0-1.56-.35-2.95-1.05-4.16-.7-1.21-1.91-2.22-3.64-3.03-1.73-.81-4.04-1.43-6.95-1.86s-6.58-.65-11-.65c.59-5.01,1.08-10.11,1.46-15.28.38-5.17.67-10.03.89-14.55h30.32v10.11h-20.21c-.11,1.94-.23,3.81-.36,5.62-.13,1.81-.28,3.38-.44,4.73,7.87.54,13.68,2.39,17.42,5.54,3.75,3.15,5.62,7.53,5.62,13.14,0,2.59-.46,4.99-1.37,7.2-.92,2.21-2.29,4.12-4.12,5.74-1.83,1.62-4.14,2.88-6.91,3.8-2.78.92-6.02,1.38-9.74,1.38-1.46,0-2.98-.09-4.57-.28-1.59-.19-3.13-.43-4.61-.73-1.48-.3-2.82-.61-4-.93-1.19-.32-2.1-.65-2.75-.97l2.18-9.94c1.35.59,3.13,1.17,5.34,1.74,2.21.57,4.85.85,7.92.85,3.72,0,6.41-.74,8.08-2.22,1.67-1.48,2.51-3.22,2.51-5.21Z" style="fill: #151c2b;"/>
    <path d="m160.92,125.75c0,2.43-.77,4.27-2.3,5.54-1.54,1.27-3.27,1.9-5.21,1.9s-3.68-.63-5.22-1.9c-1.54-1.27-2.3-3.11-2.3-5.54s.77-4.27,2.3-5.54c1.54-1.27,3.27-1.9,5.22-1.9s3.68.63,5.21,1.9c1.54,1.27,2.3,3.11,2.3,5.54Z" style="fill: #151c2b;"/>
  </g>
  <g>
    <path d="m399.53,120.27c1.52,0,2.78-.13,3.77-.38.99-.25,1.79-.6,2.39-1.04.6-.44,1.01-.96,1.25-1.56.23-.6.35-1.27.35-2.01,0-1.57-.74-2.87-2.22-3.91-1.48-1.04-4.02-2.16-7.61-3.36-1.57-.55-3.14-1.19-4.71-1.9-1.57-.71-2.98-1.61-4.22-2.7-1.25-1.08-2.26-2.4-3.05-3.95-.79-1.55-1.18-3.43-1.18-5.64s.42-4.21,1.25-5.99c.83-1.78,2.01-3.29,3.53-4.53s3.37-2.2,5.54-2.87c2.17-.67,4.61-1,7.34-1,3.23,0,6.02.35,8.38,1.04,2.35.69,4.29,1.45,5.81,2.28l-3.12,8.51c-1.34-.69-2.83-1.3-4.47-1.83-1.64-.53-3.61-.8-5.92-.8-2.59,0-4.44.36-5.57,1.07-1.13.72-1.7,1.81-1.7,3.29,0,.88.21,1.62.62,2.22.42.6,1,1.14,1.77,1.63.76.49,1.64.92,2.63,1.32.99.39,2.09.8,3.29,1.21,2.49.92,4.66,1.83,6.51,2.73,1.85.9,3.38,1.95,4.6,3.15,1.22,1.2,2.13,2.61,2.73,4.22.6,1.62.9,3.58.9,5.88,0,4.48-1.57,7.95-4.71,10.42-3.14,2.47-7.87,3.7-14.19,3.7-2.12,0-4.04-.13-5.75-.38-1.71-.25-3.22-.57-4.53-.93-1.32-.37-2.45-.76-3.39-1.18-.95-.42-1.74-.81-2.39-1.18l3.05-8.58c1.43.79,3.19,1.49,5.3,2.11,2.1.62,4.67.93,7.72.93Z" style="fill: #151c2b;"/>
    <path d="m424.31,110.58c0-3.23.5-6.06,1.49-8.48.99-2.42,2.3-4.44,3.91-6.06,1.61-1.62,3.47-2.84,5.57-3.67,2.1-.83,4.26-1.25,6.47-1.25,5.17,0,9.25,1.58,12.25,4.74,3,3.16,4.5,7.81,4.5,13.95,0,.6-.02,1.26-.07,1.97-.05.72-.09,1.35-.14,1.9h-23.4c.23,2.12,1.22,3.81,2.98,5.05,1.75,1.25,4.11,1.87,7.06,1.87,1.89,0,3.75-.17,5.57-.52,1.82-.35,3.31-.77,4.46-1.28l1.38,8.38c-.55.28-1.29.55-2.22.83-.92.28-1.95.52-3.08.73-1.13.21-2.34.38-3.63.52-1.29.14-2.58.21-3.88.21-3.28,0-6.13-.48-8.55-1.45-2.42-.97-4.43-2.3-6.02-3.98-1.59-1.68-2.77-3.68-3.53-5.99-.76-2.31-1.14-4.8-1.14-7.48Zm24.23-3.95c-.05-.88-.2-1.73-.45-2.56-.25-.83-.65-1.57-1.18-2.21-.53-.65-1.2-1.18-2.01-1.59-.81-.42-1.81-.62-3.01-.62s-2.15.2-2.98.59c-.83.39-1.52.91-2.08,1.56s-.98,1.4-1.28,2.25c-.3.85-.52,1.72-.66,2.6h13.64Z" style="fill: #151c2b;"/>
    <path d="m476.92,121.1c1.89,0,3.23-.18,4.02-.55.78-.37,1.18-1.08,1.18-2.15,0-.83-.51-1.56-1.52-2.18-1.02-.62-2.56-1.33-4.64-2.11-1.62-.6-3.08-1.22-4.4-1.87-1.31-.65-2.43-1.42-3.36-2.32-.92-.9-1.64-1.97-2.15-3.22-.51-1.25-.76-2.75-.76-4.5,0-3.42,1.27-6.11,3.81-8.1,2.54-1.98,6.02-2.98,10.45-2.98,2.22,0,4.34.2,6.37.59,2.03.39,3.65.82,4.85,1.28l-1.8,8.03c-1.2-.42-2.5-.78-3.91-1.11-1.41-.32-2.99-.48-4.74-.48-3.23,0-4.85.9-4.85,2.7,0,.42.07.79.21,1.11.14.32.42.64.83.93.42.3.98.63,1.7.97.71.35,1.63.73,2.73,1.15,2.26.84,4.13,1.66,5.61,2.48,1.48.81,2.64,1.69,3.5,2.64.85.94,1.45,1.99,1.8,3.14.35,1.15.52,2.49.52,4.01,0,3.59-1.35,6.31-4.05,8.15-2.7,1.84-6.52,2.76-11.46,2.76-3.23,0-5.92-.28-8.06-.83s-3.63-1.01-4.47-1.38l1.73-8.38c1.75.69,3.55,1.24,5.4,1.63,1.85.39,3.67.59,5.47.59Z" style="fill: #151c2b;"/>
    <path d="m510.49,121.1c1.89,0,3.23-.18,4.02-.55.78-.37,1.18-1.08,1.18-2.15,0-.83-.51-1.56-1.52-2.18-1.02-.62-2.56-1.33-4.64-2.11-1.62-.6-3.08-1.22-4.4-1.87-1.31-.65-2.43-1.42-3.36-2.32-.92-.9-1.64-1.97-2.15-3.22-.51-1.25-.76-2.75-.76-4.5,0-3.42,1.27-6.11,3.81-8.1,2.54-1.98,6.02-2.98,10.45-2.98,2.22,0,4.34.2,6.37.59,2.03.39,3.65.82,4.85,1.28l-1.8,8.03c-1.2-.42-2.5-.78-3.91-1.11-1.41-.32-2.99-.48-4.74-.48-3.23,0-4.85.9-4.85,2.7,0,.42.07.79.21,1.11.14.32.42.64.83.93.42.3.98.63,1.7.97.71.35,1.63.73,2.73,1.15,2.26.84,4.13,1.66,5.61,2.48,1.48.81,2.64,1.69,3.5,2.64.85.94,1.45,1.99,1.8,3.14.35,1.15.52,2.49.52,4.01,0,3.59-1.35,6.31-4.05,8.15-2.7,1.84-6.52,2.76-11.46,2.76-3.23,0-5.92-.28-8.06-.83s-3.63-1.01-4.47-1.38l1.73-8.38c1.75.69,3.55,1.24,5.4,1.63,1.85.39,3.67.59,5.47.59Z" style="fill: #151c2b;"/>
    <path d="m544.9,81.57c0,1.89-.61,3.38-1.83,4.46-1.22,1.08-2.67,1.63-4.33,1.63s-3.1-.54-4.33-1.63c-1.22-1.08-1.83-2.57-1.83-4.46s.61-3.38,1.83-4.46c1.22-1.08,2.67-1.63,4.33-1.63s3.1.54,4.33,1.63c1.22,1.08,1.83,2.57,1.83,4.46Zm-.97,46.93h-10.31v-36.41h10.31v36.41Z" style="fill: #151c2b;"/>
    <path d="m587.68,110.23c0,2.86-.42,5.48-1.25,7.86-.83,2.38-2.03,4.41-3.6,6.09-1.57,1.68-3.45,2.99-5.64,3.91-2.19.92-4.65,1.38-7.37,1.38s-5.11-.46-7.3-1.38c-2.19-.92-4.07-2.23-5.64-3.91-1.57-1.68-2.79-3.71-3.67-6.09-.88-2.38-1.31-5-1.31-7.86s.45-5.47,1.35-7.82,2.15-4.36,3.74-6.02c1.59-1.66,3.48-2.95,5.68-3.88,2.19-.92,4.58-1.38,7.16-1.38s5.04.46,7.23,1.38c2.19.92,4.07,2.21,5.64,3.88,1.57,1.66,2.79,3.67,3.67,6.02.88,2.35,1.32,4.96,1.32,7.82Zm-10.52,0c0-3.18-.63-5.69-1.9-7.51-1.27-1.82-3.08-2.73-5.43-2.73s-4.18.91-5.47,2.73c-1.29,1.82-1.94,4.33-1.94,7.51s.65,5.71,1.94,7.58c1.29,1.87,3.12,2.8,5.47,2.8s4.16-.93,5.43-2.8c1.27-1.87,1.9-4.4,1.9-7.58Z" style="fill: #151c2b;"/>
    <path d="m595.64,93.34c1.75-.51,4.02-.98,6.78-1.42,2.77-.44,5.68-.66,8.72-.66s5.66.4,7.72,1.21c2.05.81,3.68,1.95,4.88,3.43,1.2,1.48,2.05,3.23,2.56,5.26.51,2.03.76,4.29.76,6.78v20.56h-10.31v-19.31c0-3.32-.44-5.68-1.32-7.06-.88-1.38-2.52-2.08-4.92-2.08-.74,0-1.52.03-2.35.1s-1.57.15-2.22.24v28.11h-10.31v-35.17Z" style="fill: #151c2b;"/>
  </g>
</svg>