<?xml version="1.0" encoding="UTF-8"?>
<svg id="Layer_1" data-name="Layer 1" xmlns="http://www.w3.org/2000/svg" width="1140" height="213.71" viewBox="0 0 1140 213.71">
  <rect x="65.56" y="61.23" width="1008.88" height="91.24" rx="19.28" ry="19.28" style="fill: #223654; stroke: #223654; stroke-miterlimit: 10; stroke-width: 3.77px;"/>
  <g>
    <path d="m117.84,133.35c-1.46,0-2.99-.09-4.61-.28-1.62-.19-3.18-.44-4.69-.77-1.51-.32-2.88-.67-4.12-1.05-1.24-.38-2.21-.73-2.91-1.05l2.34-10.03c1.4.59,3.19,1.23,5.38,1.9,2.18.67,4.89,1.01,8.13,1.01,3.72,0,6.44-.7,8.17-2.1,1.72-1.4,2.59-3.29,2.59-5.66,0-1.46-.31-2.68-.93-3.68-.62-1-1.47-1.8-2.55-2.43-1.08-.62-2.36-1.05-3.84-1.29-1.48-.24-3.06-.36-4.73-.36h-4.69v-9.7h5.34c1.19,0,2.33-.11,3.44-.32,1.1-.21,2.09-.58,2.95-1.09.86-.51,1.55-1.21,2.06-2.1.51-.89.77-2.01.77-3.36,0-1.02-.22-1.91-.65-2.67-.43-.75-.98-1.38-1.66-1.86-.67-.48-1.46-.85-2.34-1.09-.89-.24-1.79-.36-2.71-.36-2.32,0-4.46.35-6.43,1.05-1.97.7-3.76,1.56-5.38,2.59l-4.29-8.81c.86-.54,1.87-1.1,3.03-1.7,1.16-.59,2.44-1.13,3.84-1.62,1.4-.49,2.9-.89,4.49-1.21,1.59-.32,3.27-.49,5.05-.49,3.29,0,6.13.39,8.53,1.17,2.4.78,4.38,1.88,5.94,3.31,1.56,1.43,2.72,3.09,3.48,5,.75,1.91,1.13,4,1.13,6.26s-.62,4.35-1.86,6.42c-1.24,2.07-2.91,3.65-5.01,4.72,2.91,1.19,5.16,2.96,6.75,5.3,1.59,2.35,2.39,5.17,2.39,8.46,0,2.59-.43,4.98-1.29,7.17-.86,2.19-2.21,4.08-4.04,5.67-1.83,1.59-4.16,2.83-6.99,3.72-2.83.89-6.19,1.33-10.07,1.33Z" style="fill: #fff;"/>
    <path d="m162.8,125.75c0,2.43-.77,4.27-2.3,5.54-1.54,1.27-3.27,1.9-5.21,1.9s-3.68-.63-5.21-1.9c-1.54-1.27-2.3-3.11-2.3-5.54s.77-4.27,2.3-5.54c1.54-1.27,3.27-1.9,5.21-1.9s3.68.63,5.21,1.9c1.54,1.27,2.3,3.11,2.3,5.54Z" style="fill: #fff;"/>
  </g>
  <g>
    <path d="m420.5,128.51c-3.09-5.49-6.44-10.91-10.04-16.27s-7.43-10.41-11.49-15.16v31.43h-10.66v-47.97h8.79c1.52,1.52,3.21,3.39,5.05,5.61,1.84,2.22,3.73,4.58,5.64,7.1,1.91,2.52,3.82,5.12,5.71,7.82,1.89,2.7,3.67,5.3,5.33,7.79v-28.31h10.73v47.97h-9.07Z" style="fill: #fff;"/>
    <path d="m438.23,110.58c0-3.23.5-6.06,1.49-8.48.99-2.42,2.3-4.44,3.91-6.06,1.61-1.62,3.47-2.84,5.57-3.67,2.1-.83,4.26-1.25,6.47-1.25,5.17,0,9.25,1.58,12.25,4.74,3,3.16,4.5,7.81,4.5,13.95,0,.6-.02,1.26-.07,1.97-.05.72-.09,1.35-.14,1.9h-23.4c.23,2.12,1.22,3.81,2.98,5.05,1.75,1.25,4.11,1.87,7.06,1.87,1.89,0,3.75-.17,5.57-.52,1.82-.35,3.31-.77,4.46-1.28l1.38,8.38c-.55.28-1.29.55-2.22.83-.92.28-1.95.52-3.08.73-1.13.21-2.34.38-3.63.52-1.29.14-2.58.21-3.88.21-3.28,0-6.13-.48-8.55-1.45-2.42-.97-4.43-2.3-6.02-3.98-1.59-1.68-2.77-3.68-3.53-5.99-.76-2.31-1.14-4.8-1.14-7.48Zm24.23-3.95c-.05-.88-.2-1.73-.45-2.56-.25-.83-.65-1.57-1.18-2.21-.53-.65-1.2-1.18-2.01-1.59-.81-.42-1.81-.62-3.01-.62s-2.15.2-2.98.59c-.83.39-1.52.91-2.08,1.56s-.98,1.4-1.28,2.25c-.3.85-.52,1.72-.66,2.6h13.64Z" style="fill: #fff;"/>
    <path d="m480.04,83.02l10.31-1.66v10.73h12.39v8.58h-12.39v12.81c0,2.17.38,3.9,1.14,5.19.76,1.29,2.29,1.94,4.6,1.94,1.11,0,2.25-.1,3.43-.31,1.18-.21,2.25-.5,3.22-.87l1.45,8.03c-1.25.51-2.63.95-4.15,1.32-1.52.37-3.39.55-5.61.55-2.82,0-5.15-.38-6.99-1.14-1.85-.76-3.32-1.82-4.43-3.18-1.11-1.36-1.88-3.01-2.32-4.95-.44-1.94-.66-4.08-.66-6.44v-30.6Z" style="fill: #fff;"/>
    <path d="m534,107.6c-.92,3.51-1.9,6.99-2.94,10.45-1.04,3.46-2.14,6.95-3.29,10.45h-8.03c-.83-1.94-1.74-4.25-2.71-6.92-.97-2.68-1.98-5.59-3.02-8.76-1.04-3.16-2.11-6.51-3.19-10.04-1.09-3.53-2.14-7.1-3.16-10.7h10.87c.37,1.66.78,3.47,1.22,5.43.44,1.96.91,3.98,1.39,6.06.49,2.08,1,4.17,1.53,6.26.53,2.1,1.08,4.12,1.64,6.06.6-2.03,1.19-4.11,1.77-6.23.58-2.12,1.13-4.21,1.66-6.26.53-2.05,1.04-4.04,1.52-5.95.48-1.91.91-3.7,1.28-5.36h7.48c.37,1.66.78,3.45,1.25,5.36.46,1.92.95,3.9,1.45,5.95.51,2.05,1.04,4.14,1.59,6.26.55,2.12,1.13,4.2,1.73,6.23.56-1.94,1.11-3.96,1.67-6.06.56-2.1,1.08-4.19,1.57-6.26.49-2.08.95-4.1,1.39-6.06.44-1.96.85-3.77,1.22-5.43h10.73c-1.02,3.6-2.07,7.16-3.16,10.7-1.09,3.53-2.15,6.88-3.19,10.04-1.04,3.16-2.06,6.08-3.05,8.76-1,2.68-1.91,4.98-2.74,6.92h-8.03c-1.15-3.51-2.28-6.99-3.39-10.45-1.11-3.46-2.12-6.95-3.05-10.45Z" style="fill: #fff;"/>
    <path d="m599.31,110.23c0,2.86-.42,5.48-1.25,7.86-.83,2.38-2.03,4.41-3.6,6.09-1.57,1.68-3.45,2.99-5.64,3.91-2.19.92-4.65,1.38-7.37,1.38s-5.11-.46-7.3-1.38c-2.19-.92-4.07-2.23-5.64-3.91-1.57-1.68-2.79-3.71-3.67-6.09-.88-2.38-1.31-5-1.31-7.86s.45-5.47,1.35-7.82,2.15-4.36,3.74-6.02c1.59-1.66,3.48-2.95,5.68-3.88,2.19-.92,4.58-1.38,7.16-1.38s5.04.46,7.23,1.38c2.19.92,4.07,2.21,5.64,3.88,1.57,1.66,2.79,3.67,3.67,6.02.88,2.35,1.32,4.96,1.32,7.82Zm-10.52,0c0-3.18-.63-5.69-1.9-7.51-1.27-1.82-3.08-2.73-5.43-2.73s-4.18.91-5.47,2.73c-1.29,1.82-1.94,4.33-1.94,7.51s.65,5.71,1.94,7.58c1.29,1.87,3.12,2.8,5.47,2.8s4.16-.93,5.43-2.8c1.27-1.87,1.9-4.4,1.9-7.58Z" style="fill: #fff;"/>
    <path d="m629.22,101.23c-.92-.23-2.01-.47-3.25-.73-1.25-.25-2.58-.38-4.02-.38-.65,0-1.42.06-2.32.17s-1.58.24-2.04.38v27.83h-10.31v-34.47c1.85-.65,4.03-1.26,6.54-1.83,2.51-.58,5.32-.87,8.41-.87.55,0,1.22.03,2.01.1.78.07,1.57.16,2.35.28.78.12,1.57.25,2.35.42.78.16,1.45.36,2.01.59l-1.73,8.51Z" style="fill: #fff;"/>
    <path d="m646.8,105.17c1.01-1.1,2.06-2.25,3.15-3.44,1.08-1.19,2.13-2.37,3.15-3.54,1.01-1.17,1.97-2.28,2.87-3.34.9-1.05,1.67-1.97,2.32-2.75h12.27c-2.45,2.81-4.83,5.49-7.17,8.05-2.33,2.56-4.88,5.19-7.65,7.91,1.38,1.25,2.81,2.74,4.29,4.47,1.48,1.73,2.91,3.53,4.29,5.38s2.65,3.7,3.81,5.55c1.15,1.85,2.12,3.54,2.91,5.06h-11.86c-.74-1.2-1.58-2.53-2.52-3.99-.94-1.46-1.95-2.91-3.01-4.37s-2.18-2.86-3.35-4.2c-1.17-1.34-2.34-2.48-3.49-3.4v15.96h-10.31v-52.06l10.31-1.66v30.38Z" style="fill: #fff;"/>
  </g>
</svg>