<?xml version="1.0" encoding="UTF-8"?>
<svg id="Layer_1" data-name="Layer 1" xmlns="http://www.w3.org/2000/svg" width="1140" height="213.71" viewBox="0 0 1140 213.71">
  <rect x="65.56" y="61.23" width="1008.88" height="91.24" rx="19.28" ry="19.28" style="fill: #9f00ff; stroke: #9f00ff; stroke-miterlimit: 10; stroke-width: 3.77px;"/>
  <g>
    <path d="m103.19,87.75c1.56-.65,3.19-1.39,4.89-2.22,1.7-.83,3.36-1.75,4.97-2.75,1.62-1,3.17-2.05,4.65-3.15,1.48-1.1,2.82-2.28,4-3.52h8.41v56.03h-12.05v-40.34c-1.62,1.08-3.42,2.06-5.42,2.95-2,.89-3.94,1.66-5.82,2.3l-3.64-9.3Z" style="fill: #fff;"/>
    <path d="m160.92,125.75c0,2.43-.77,4.27-2.3,5.54-1.54,1.27-3.27,1.9-5.21,1.9s-3.68-.63-5.21-1.9c-1.54-1.27-2.3-3.11-2.3-5.54s.77-4.27,2.3-5.54c1.54-1.27,3.27-1.9,5.21-1.9s3.68.63,5.21,1.9c1.54,1.27,2.3,3.11,2.3,5.54Z" style="fill: #fff;"/>
  </g>
  <g>
    <path d="m400.84,79.98c7.15,0,12.64,1.26,16.48,3.77,3.83,2.52,5.75,6.63,5.75,12.36s-1.94,9.93-5.81,12.5-9.41,3.84-16.61,3.84h-3.39v16.06h-10.8v-47.28c2.35-.46,4.85-.78,7.48-.97,2.63-.18,4.94-.28,6.92-.28Zm.69,9.21c-.79,0-1.56.02-2.32.07-.76.05-1.42.09-1.97.14v13.84h3.39c3.74,0,6.55-.51,8.45-1.52,1.89-1.01,2.84-2.91,2.84-5.68,0-1.34-.24-2.45-.73-3.32-.48-.88-1.18-1.58-2.08-2.11s-2-.9-3.29-1.11c-1.29-.21-2.72-.31-4.29-.31Z" style="fill: #fff;"/>
    <path d="m430.33,128.51v-52.06l10.31-1.66v17.44c.69-.23,1.58-.45,2.67-.66,1.08-.21,2.13-.31,3.15-.31,2.95,0,5.41.4,7.37,1.21,1.96.81,3.53,1.95,4.71,3.43,1.18,1.48,2.01,3.23,2.49,5.26.48,2.03.73,4.29.73,6.78v20.56h-10.31v-19.31c0-3.32-.43-5.68-1.28-7.06-.85-1.38-2.43-2.08-4.74-2.08-.92,0-1.79.08-2.6.24-.81.16-1.53.33-2.18.52v27.69h-10.31Z" style="fill: #fff;"/>
    <path d="m502.39,92.09c-2.08,7.02-4.26,13.59-6.52,19.73-2.27,6.14-4.74,12.09-7.43,17.86-.97,2.08-1.94,3.84-2.91,5.3-.97,1.45-2.03,2.65-3.19,3.6-1.16.95-2.46,1.64-3.92,2.08-1.46.44-3.15.66-5.09.66-1.62,0-3.11-.15-4.47-.45-1.36-.3-2.48-.63-3.36-1l1.8-8.24c1.06.37,2.01.62,2.84.76.83.14,1.71.21,2.63.21,1.85,0,3.27-.5,4.26-1.49.99-.99,1.84-2.37,2.53-4.12-2.36-4.61-4.71-9.79-7.07-15.54-2.35-5.75-4.57-12.19-6.65-19.35h10.94c.46,1.8,1.01,3.75,1.63,5.85.62,2.1,1.29,4.22,1.98,6.37.69,2.15,1.4,4.23,2.12,6.26.72,2.03,1.4,3.88,2.05,5.54.6-1.66,1.23-3.51,1.88-5.54.65-2.03,1.29-4.12,1.91-6.26.62-2.15,1.23-4.27,1.81-6.37.58-2.1,1.1-4.05,1.56-5.85h10.67Z" style="fill: #fff;"/>
    <path d="m518.32,121.1c1.89,0,3.23-.18,4.02-.55.78-.37,1.18-1.08,1.18-2.15,0-.83-.51-1.56-1.52-2.18-1.02-.62-2.56-1.33-4.64-2.11-1.62-.6-3.08-1.22-4.4-1.87-1.31-.65-2.43-1.42-3.36-2.32-.92-.9-1.64-1.97-2.15-3.22-.51-1.25-.76-2.75-.76-4.5,0-3.42,1.27-6.11,3.81-8.1,2.54-1.98,6.02-2.98,10.45-2.98,2.22,0,4.34.2,6.37.59,2.03.39,3.65.82,4.85,1.28l-1.8,8.03c-1.2-.42-2.5-.78-3.91-1.11-1.41-.32-2.99-.48-4.74-.48-3.23,0-4.85.9-4.85,2.7,0,.42.07.79.21,1.11.14.32.42.64.83.93.42.3.98.63,1.7.97.71.35,1.63.73,2.73,1.15,2.26.84,4.13,1.66,5.61,2.48,1.48.81,2.64,1.69,3.5,2.64.85.94,1.45,1.99,1.8,3.14.35,1.15.52,2.49.52,4.01,0,3.59-1.35,6.31-4.05,8.15-2.7,1.84-6.52,2.76-11.46,2.76-3.23,0-5.92-.28-8.06-.83s-3.63-1.01-4.47-1.38l1.73-8.38c1.75.69,3.55,1.24,5.4,1.63,1.85.39,3.67.59,5.47.59Z" style="fill: #fff;"/>
    <path d="m552.72,81.57c0,1.89-.61,3.38-1.83,4.46-1.22,1.08-2.67,1.63-4.33,1.63s-3.1-.54-4.33-1.63c-1.22-1.08-1.83-2.57-1.83-4.46s.61-3.38,1.83-4.46c1.22-1.08,2.67-1.63,4.33-1.63s3.1.54,4.33,1.63c1.22,1.08,1.83,2.57,1.83,4.46Zm-.97,46.93h-10.31v-36.41h10.31v36.41Z" style="fill: #fff;"/>
    <path d="m559.71,110.3c0-2.63.43-5.11,1.28-7.44.85-2.33,2.09-4.36,3.7-6.09,1.62-1.73,3.58-3.1,5.88-4.12,2.31-1.01,4.94-1.52,7.89-1.52,1.94,0,3.71.17,5.33.52,1.61.35,3.18.84,4.71,1.49l-2.15,8.24c-.97-.37-2.03-.69-3.18-.97-1.15-.28-2.45-.42-3.88-.42-3.05,0-5.32.95-6.82,2.84-1.5,1.89-2.25,4.38-2.25,7.48,0,3.28.7,5.81,2.11,7.61,1.41,1.8,3.86,2.7,7.37,2.7,1.25,0,2.58-.11,4.02-.35,1.43-.23,2.75-.6,3.95-1.11l1.45,8.45c-1.2.51-2.7.95-4.5,1.32s-3.78.55-5.95.55c-3.32,0-6.19-.5-8.58-1.49-2.4-.99-4.37-2.34-5.92-4.05-1.55-1.71-2.68-3.73-3.39-6.06-.72-2.33-1.07-4.86-1.07-7.58Z" style="fill: #fff;"/>
    <path d="m607.41,91.12c3.05,0,5.58.35,7.61,1.04,2.03.69,3.66,1.69,4.88,2.98,1.22,1.29,2.09,2.86,2.6,4.71.51,1.85.76,3.9.76,6.16v21.46c-1.48.32-3.53.7-6.16,1.14-2.63.44-5.81.66-9.55.66-2.35,0-4.49-.21-6.4-.62-1.92-.42-3.57-1.1-4.95-2.04-1.38-.95-2.45-2.18-3.18-3.7-.74-1.52-1.11-3.39-1.11-5.61s.43-3.92,1.28-5.4c.85-1.48,2-2.65,3.43-3.53,1.43-.88,3.07-1.51,4.92-1.9,1.85-.39,3.76-.59,5.75-.59,1.34,0,2.53.06,3.56.17,1.04.12,1.88.27,2.53.45v-.97c0-1.75-.53-3.16-1.59-4.22-1.06-1.06-2.91-1.59-5.54-1.59-1.75,0-3.48.13-5.19.38-1.71.25-3.18.61-4.43,1.07l-1.32-8.31c.6-.18,1.35-.38,2.25-.59.9-.21,1.88-.39,2.94-.55,1.06-.16,2.18-.3,3.36-.42,1.18-.11,2.36-.17,3.56-.17Zm.83,30.18c1.01,0,1.98-.02,2.91-.07.92-.05,1.66-.12,2.22-.21v-7.82c-.42-.09-1.04-.18-1.87-.28-.83-.09-1.59-.14-2.28-.14-.97,0-1.88.06-2.73.17-.85.12-1.6.33-2.25.66-.65.32-1.15.76-1.52,1.32-.37.55-.55,1.25-.55,2.08,0,1.62.54,2.73,1.63,3.36,1.08.62,2.57.93,4.47.93Z" style="fill: #fff;"/>
    <path d="m647.14,129.2c-3-.05-5.43-.37-7.3-.97-1.87-.6-3.35-1.44-4.43-2.53-1.08-1.08-1.82-2.4-2.22-3.95-.39-1.55-.59-3.29-.59-5.23v-40.08l10.31-1.66v39.67c0,.92.07,1.75.21,2.49.14.74.4,1.36.8,1.87.39.51.96.92,1.7,1.25.74.32,1.73.53,2.98.62l-1.45,8.51Z" style="fill: #fff;"/>
  </g>
</svg>