<?xml version="1.0" encoding="UTF-8"?>
<svg id="Layer_1" data-name="Layer 1" xmlns="http://www.w3.org/2000/svg" width="1140" height="213.71" viewBox="0 0 1140 213.71">
  <rect x="65.56" y="61.23" width="1008.88" height="91.24" rx="19.28" ry="19.28" style="fill: #3bc81e; stroke: #3bc81e; stroke-miterlimit: 10; stroke-width: 3.77px;"/>
  <g>
    <path d="m121.22,96.4c3.5,0,6.48.47,8.93,1.42,2.45.94,4.46,2.22,6.02,3.84,1.56,1.62,2.69,3.5,3.4,5.66.7,2.16,1.05,4.45,1.05,6.87,0,2.16-.39,4.37-1.17,6.63-.78,2.26-1.97,4.31-3.56,6.14-1.59,1.83-3.61,3.34-6.06,4.53-2.45,1.18-5.35,1.78-8.69,1.78-6.74,0-11.86-2.13-15.36-6.39-3.5-4.26-5.26-10.13-5.26-17.62,0-5.39.83-10.16,2.51-14.31,1.67-4.15,4.06-7.64,7.16-10.47,3.1-2.83,6.84-4.99,11.24-6.47,4.39-1.48,9.34-2.25,14.84-2.3.11,1.67.21,3.3.32,4.89.11,1.59.21,3.25.32,4.97-2.75.05-5.32.31-7.72.77-2.4.46-4.58,1.17-6.55,2.14-1.97.97-3.68,2.22-5.13,3.76-1.46,1.54-2.59,3.41-3.4,5.62,1.19-.54,2.4-.92,3.64-1.13,1.24-.21,2.4-.32,3.48-.32Zm-1.54,9.38c-1.19,0-2.45.11-3.8.32-1.35.22-2.4.51-3.15.89,0,.22-.01.54-.04.97-.03.43-.04.81-.04,1.13,0,1.94.13,3.77.4,5.5.27,1.73.73,3.23,1.37,4.53s1.51,2.3,2.59,3.03c1.08.73,2.43,1.09,4.04,1.09,1.35,0,2.49-.28,3.44-.85.94-.57,1.72-1.28,2.34-2.14.62-.86,1.08-1.82,1.37-2.87.3-1.05.44-2.06.44-3.03,0-2.75-.69-4.86-2.06-6.35-1.37-1.48-3.68-2.22-6.91-2.22Z" style="fill: #151c2b;"/>
    <path d="m160.92,125.75c0,2.43-.77,4.27-2.3,5.54-1.54,1.27-3.27,1.9-5.21,1.9s-3.68-.63-5.21-1.9c-1.54-1.27-2.3-3.11-2.3-5.54s.77-4.27,2.3-5.54c1.54-1.27,3.27-1.9,5.21-1.9s3.68.63,5.21,1.9c1.54,1.27,2.3,3.11,2.3,5.54Z" style="fill: #151c2b;"/>
  </g>
  <g>
    <path d="m400.84,79.98c7.15,0,12.64,1.26,16.48,3.77,3.83,2.52,5.75,6.63,5.75,12.36s-1.94,9.93-5.81,12.5-9.41,3.84-16.61,3.84h-3.39v16.06h-10.8v-47.28c2.35-.46,4.85-.78,7.48-.97,2.63-.18,4.94-.28,6.92-.28Zm.69,9.21c-.79,0-1.56.02-2.32.07-.76.05-1.42.09-1.97.14v13.84h3.39c3.74,0,6.55-.51,8.45-1.52,1.89-1.01,2.84-2.91,2.84-5.68,0-1.34-.24-2.45-.73-3.32-.48-.88-1.18-1.58-2.08-2.11s-2-.9-3.29-1.11c-1.29-.21-2.72-.31-4.29-.31Z" style="fill: #151c2b;"/>
    <path d="m452.28,101.23c-.92-.23-2.01-.47-3.25-.73-1.25-.25-2.58-.38-4.02-.38-.65,0-1.42.06-2.32.17s-1.58.24-2.04.38v27.83h-10.31v-34.47c1.85-.65,4.03-1.26,6.54-1.83,2.51-.58,5.32-.87,8.41-.87.55,0,1.22.03,2.01.1.78.07,1.57.16,2.35.28.78.12,1.57.25,2.35.42.78.16,1.45.36,2.01.59l-1.73,8.51Z" style="fill: #151c2b;"/>
    <path d="m457.12,110.58c0-3.23.5-6.06,1.49-8.48.99-2.42,2.3-4.44,3.91-6.06,1.61-1.62,3.47-2.84,5.57-3.67,2.1-.83,4.26-1.25,6.47-1.25,5.17,0,9.25,1.58,12.25,4.74,3,3.16,4.5,7.81,4.5,13.95,0,.6-.02,1.26-.07,1.97-.05.72-.09,1.35-.14,1.9h-23.4c.23,2.12,1.22,3.81,2.98,5.05,1.75,1.25,4.11,1.87,7.06,1.87,1.89,0,3.75-.17,5.57-.52,1.82-.35,3.31-.77,4.46-1.28l1.38,8.38c-.55.28-1.29.55-2.22.83-.92.28-1.95.52-3.08.73-1.13.21-2.34.38-3.63.52-1.29.14-2.58.21-3.88.21-3.28,0-6.13-.48-8.55-1.45-2.42-.97-4.43-2.3-6.02-3.98-1.59-1.68-2.77-3.68-3.53-5.99-.76-2.31-1.14-4.8-1.14-7.48Zm24.23-3.95c-.05-.88-.2-1.73-.45-2.56-.25-.83-.65-1.57-1.18-2.21-.53-.65-1.2-1.18-2.01-1.59-.81-.42-1.81-.62-3.01-.62s-2.15.2-2.98.59c-.83.39-1.52.91-2.08,1.56s-.98,1.4-1.28,2.25c-.3.85-.52,1.72-.66,2.6h13.64Z" style="fill: #151c2b;"/>
    <path d="m509.73,121.1c1.89,0,3.23-.18,4.02-.55.78-.37,1.18-1.08,1.18-2.15,0-.83-.51-1.56-1.52-2.18-1.02-.62-2.56-1.33-4.64-2.11-1.62-.6-3.08-1.22-4.4-1.87-1.31-.65-2.43-1.42-3.36-2.32-.92-.9-1.64-1.97-2.15-3.22-.51-1.25-.76-2.75-.76-4.5,0-3.42,1.27-6.11,3.81-8.1,2.54-1.98,6.02-2.98,10.45-2.98,2.22,0,4.34.2,6.37.59,2.03.39,3.65.82,4.85,1.28l-1.8,8.03c-1.2-.42-2.5-.78-3.91-1.11-1.41-.32-2.99-.48-4.74-.48-3.23,0-4.85.9-4.85,2.7,0,.42.07.79.21,1.11.14.32.42.64.83.93.42.3.98.63,1.7.97.71.35,1.63.73,2.73,1.15,2.26.84,4.13,1.66,5.61,2.48,1.48.81,2.64,1.69,3.5,2.64.85.94,1.45,1.99,1.8,3.14.35,1.15.52,2.49.52,4.01,0,3.59-1.35,6.31-4.05,8.15-2.7,1.84-6.52,2.76-11.46,2.76-3.23,0-5.92-.28-8.06-.83s-3.63-1.01-4.47-1.38l1.73-8.38c1.75.69,3.55,1.24,5.4,1.63,1.85.39,3.67.59,5.47.59Z" style="fill: #151c2b;"/>
    <path d="m531.12,110.58c0-3.23.5-6.06,1.49-8.48.99-2.42,2.3-4.44,3.91-6.06,1.61-1.62,3.47-2.84,5.57-3.67,2.1-.83,4.26-1.25,6.47-1.25,5.17,0,9.25,1.58,12.25,4.74,3,3.16,4.5,7.81,4.5,13.95,0,.6-.02,1.26-.07,1.97-.05.72-.09,1.35-.14,1.9h-23.4c.23,2.12,1.22,3.81,2.98,5.05,1.75,1.25,4.11,1.87,7.06,1.87,1.89,0,3.75-.17,5.57-.52,1.82-.35,3.31-.77,4.46-1.28l1.38,8.38c-.55.28-1.29.55-2.22.83-.92.28-1.95.52-3.08.73-1.13.21-2.34.38-3.63.52-1.29.14-2.58.21-3.88.21-3.28,0-6.13-.48-8.55-1.45-2.42-.97-4.43-2.3-6.02-3.98-1.59-1.68-2.77-3.68-3.53-5.99-.76-2.31-1.14-4.8-1.14-7.48Zm24.23-3.95c-.05-.88-.2-1.73-.45-2.56-.25-.83-.65-1.57-1.18-2.21-.53-.65-1.2-1.18-2.01-1.59-.81-.42-1.81-.62-3.01-.62s-2.15.2-2.98.59c-.83.39-1.52.91-2.08,1.56s-.98,1.4-1.28,2.25c-.3.85-.52,1.72-.66,2.6h13.64Z" style="fill: #151c2b;"/>
    <path d="m573.28,93.34c1.75-.51,4.02-.98,6.78-1.42,2.77-.44,5.68-.66,8.72-.66s5.66.4,7.72,1.21c2.05.81,3.68,1.95,4.88,3.43,1.2,1.48,2.05,3.23,2.56,5.26.51,2.03.76,4.29.76,6.78v20.56h-10.31v-19.31c0-3.32-.44-5.68-1.32-7.06-.88-1.38-2.52-2.08-4.92-2.08-.74,0-1.52.03-2.35.1s-1.57.15-2.22.24v28.11h-10.31v-35.17Z" style="fill: #151c2b;"/>
    <path d="m613.71,83.02l10.31-1.66v10.73h12.39v8.58h-12.39v12.81c0,2.17.38,3.9,1.14,5.19.76,1.29,2.29,1.94,4.6,1.94,1.11,0,2.25-.1,3.43-.31,1.18-.21,2.25-.5,3.22-.87l1.45,8.03c-1.25.51-2.63.95-4.15,1.32-1.52.37-3.39.55-5.61.55-2.82,0-5.15-.38-6.99-1.14-1.85-.76-3.32-1.82-4.43-3.18-1.11-1.36-1.88-3.01-2.32-4.95-.44-1.94-.66-4.08-.66-6.44v-30.6Z" style="fill: #151c2b;"/>
    <path d="m656.49,91.12c3.05,0,5.58.35,7.61,1.04,2.03.69,3.66,1.69,4.88,2.98,1.22,1.29,2.09,2.86,2.6,4.71.51,1.85.76,3.9.76,6.16v21.46c-1.48.32-3.53.7-6.16,1.14-2.63.44-5.81.66-9.55.66-2.35,0-4.49-.21-6.4-.62-1.92-.42-3.57-1.1-4.95-2.04-1.38-.95-2.45-2.18-3.18-3.7-.74-1.52-1.11-3.39-1.11-5.61s.43-3.92,1.28-5.4c.85-1.48,2-2.65,3.43-3.53,1.43-.88,3.07-1.51,4.92-1.9,1.85-.39,3.76-.59,5.75-.59,1.34,0,2.53.06,3.56.17,1.04.12,1.88.27,2.53.45v-.97c0-1.75-.53-3.16-1.59-4.22-1.06-1.06-2.91-1.59-5.54-1.59-1.75,0-3.48.13-5.19.38-1.71.25-3.18.61-4.43,1.07l-1.32-8.31c.6-.18,1.35-.38,2.25-.59.9-.21,1.88-.39,2.94-.55,1.06-.16,2.18-.3,3.36-.42,1.18-.11,2.36-.17,3.56-.17Zm.83,30.18c1.01,0,1.98-.02,2.91-.07.92-.05,1.66-.12,2.22-.21v-7.82c-.42-.09-1.04-.18-1.87-.28-.83-.09-1.59-.14-2.28-.14-.97,0-1.88.06-2.73.17-.85.12-1.6.33-2.25.66-.65.32-1.15.76-1.52,1.32-.37.55-.55,1.25-.55,2.08,0,1.62.54,2.73,1.63,3.36,1.08.62,2.57.93,4.47.93Z" style="fill: #151c2b;"/>
    <path d="m681.34,83.02l10.31-1.66v10.73h12.39v8.58h-12.39v12.81c0,2.17.38,3.9,1.14,5.19.76,1.29,2.29,1.94,4.6,1.94,1.11,0,2.25-.1,3.43-.31,1.18-.21,2.25-.5,3.22-.87l1.45,8.03c-1.25.51-2.63.95-4.15,1.32-1.52.37-3.39.55-5.61.55-2.82,0-5.15-.38-6.99-1.14-1.85-.76-3.32-1.82-4.43-3.18-1.11-1.36-1.88-3.01-2.32-4.95-.44-1.94-.66-4.08-.66-6.44v-30.6Z" style="fill: #151c2b;"/>
    <path d="m723.7,81.57c0,1.89-.61,3.38-1.83,4.46-1.22,1.08-2.67,1.63-4.33,1.63s-3.1-.54-4.33-1.63c-1.22-1.08-1.83-2.57-1.83-4.46s.61-3.38,1.83-4.46c1.22-1.08,2.67-1.63,4.33-1.63s3.1.54,4.33,1.63c1.22,1.08,1.83,2.57,1.83,4.46Zm-.97,46.93h-10.31v-36.41h10.31v36.41Z" style="fill: #151c2b;"/>
    <path d="m766.48,110.23c0,2.86-.42,5.48-1.25,7.86-.83,2.38-2.03,4.41-3.6,6.09-1.57,1.68-3.45,2.99-5.64,3.91-2.19.92-4.65,1.38-7.37,1.38s-5.11-.46-7.3-1.38c-2.19-.92-4.07-2.23-5.64-3.91-1.57-1.68-2.79-3.71-3.67-6.09-.88-2.38-1.31-5-1.31-7.86s.45-5.47,1.35-7.82,2.15-4.36,3.74-6.02c1.59-1.66,3.48-2.95,5.68-3.88,2.19-.92,4.58-1.38,7.16-1.38s5.04.46,7.23,1.38c2.19.92,4.07,2.21,5.64,3.88,1.57,1.66,2.79,3.67,3.67,6.02.88,2.35,1.32,4.96,1.32,7.82Zm-10.52,0c0-3.18-.63-5.69-1.9-7.51-1.27-1.82-3.08-2.73-5.43-2.73s-4.18.91-5.47,2.73c-1.29,1.82-1.94,4.33-1.94,7.51s.65,5.71,1.94,7.58c1.29,1.87,3.12,2.8,5.47,2.8s4.16-.93,5.43-2.8c1.27-1.87,1.9-4.4,1.9-7.58Z" style="fill: #151c2b;"/>
    <path d="m774.44,93.34c1.75-.51,4.02-.98,6.78-1.42,2.77-.44,5.68-.66,8.72-.66s5.66.4,7.72,1.21c2.05.81,3.68,1.95,4.88,3.43,1.2,1.48,2.05,3.23,2.56,5.26.51,2.03.76,4.29.76,6.78v20.56h-10.31v-19.31c0-3.32-.44-5.68-1.32-7.06-.88-1.38-2.52-2.08-4.92-2.08-.74,0-1.52.03-2.35.1s-1.57.15-2.22.24v28.11h-10.31v-35.17Z" style="fill: #151c2b;"/>
  </g>
</svg>