<?xml version="1.0" encoding="UTF-8"?>
<svg id="Layer_1" data-name="Layer 1" xmlns="http://www.w3.org/2000/svg" width="1140" height="540.68" xmlns:xlink="http://www.w3.org/1999/xlink" viewBox="0 0 1140 540.68">
  <defs>
    <linearGradient id="linear-gradient" x1="135.06" y1="363.16" x2="135.06" y2="271.89" gradientUnits="userSpaceOnUse">
      <stop offset=".42" stop-color="#9da8c4"/>
      <stop offset=".66" stop-color="#4f5669"/>
      <stop offset=".84" stop-color="#1a1a1a"/>
    </linearGradient>
    <linearGradient id="linear-gradient-2" x1="61.48" y1="193.9" x2="400.42" y2="438.85" gradientUnits="userSpaceOnUse">
      <stop offset="0" stop-color="#9da8c4"/>
      <stop offset=".57" stop-color="#4f5669"/>
      <stop offset="1" stop-color="#444b5c"/>
    </linearGradient>
    <linearGradient id="linear-gradient-3" x1="196.3" y1="291.38" x2="72.33" y2="191.97" gradientUnits="userSpaceOnUse">
      <stop offset=".12" stop-color="#525a6a"/>
      <stop offset=".29" stop-color="#586071"/>
      <stop offset=".55" stop-color="#687286"/>
      <stop offset=".66" stop-color="#727c92"/>
    </linearGradient>
    <linearGradient id="linear-gradient-4" x1="1483.21" y1="3290.46" x2="1482.88" y2="3312.58" gradientTransform="translate(-1347.96 -2992.92)" xlink:href="#linear-gradient"/>
    <linearGradient id="linear-gradient-5" x1="135.06" y1="306.52" x2="135.06" y2="135.26" gradientUnits="userSpaceOnUse">
      <stop offset=".12" stop-color="#1c2538"/>
      <stop offset=".34" stop-color="#1d293f"/>
      <stop offset=".66" stop-color="#223654"/>
    </linearGradient>
    <linearGradient id="linear-gradient-6" x1="1039.1" y1="363.16" x2="1039.1" y2="271.89" xlink:href="#linear-gradient"/>
    <linearGradient id="linear-gradient-7" x1="965.51" y1="193.9" x2="1304.46" y2="438.85" xlink:href="#linear-gradient-2"/>
    <linearGradient id="linear-gradient-8" x1="1100.34" x2="976.37" xlink:href="#linear-gradient-3"/>
    <linearGradient id="linear-gradient-9" x1="579.18" y1="3290.46" x2="578.84" y2="3312.58" gradientTransform="translate(460.11 -2992.92)" xlink:href="#linear-gradient"/>
    <linearGradient id="linear-gradient-10" x1="1039.1" y1="306.52" x2="1039.1" y2="135.26" xlink:href="#linear-gradient-5"/>
    <linearGradient id="linear-gradient-11" x1="306.09" y1="610.45" x2="382" y2="610.45" gradientTransform="translate(225.33 -114.03)" gradientUnits="userSpaceOnUse">
      <stop offset="0" stop-color="#1c2538"/>
      <stop offset=".46" stop-color="#1e2b42"/>
      <stop offset="1" stop-color="#223654"/>
    </linearGradient>
    <linearGradient id="linear-gradient-12" x1="306.1" y1="592.7" x2="388.96" y2="592.7" gradientTransform="translate(226.42 -114.66) rotate(.1)" gradientUnits="userSpaceOnUse">
      <stop offset="0" stop-color="#223654"/>
      <stop offset=".17" stop-color="#22395e"/>
      <stop offset=".45" stop-color="#244279"/>
      <stop offset=".82" stop-color="#2851a6"/>
      <stop offset="1" stop-color="#2a59be"/>
    </linearGradient>
    <linearGradient id="linear-gradient-13" x1="696.7" y1="277.09" x2="699.55" y2="283.24" gradientTransform="translate(-193.46 346.58) rotate(-12.06)" gradientUnits="userSpaceOnUse">
      <stop offset="0" stop-color="#2a59be"/>
      <stop offset=".89" stop-color="#1c2538"/>
    </linearGradient>
    <linearGradient id="linear-gradient-14" x1="738" y1="288.6" x2="737.75" y2="293.57" gradientTransform="translate(-193.46 346.58) rotate(-12.06)" gradientUnits="userSpaceOnUse">
      <stop offset="0" stop-color="#2a59be"/>
      <stop offset=".83" stop-color="#1c2538"/>
    </linearGradient>
    <linearGradient id="linear-gradient-15" x1="712.9" y1="298.81" x2="718.4" y2="301.31" gradientTransform="translate(-193.46 346.58) rotate(-12.06)" gradientUnits="userSpaceOnUse">
      <stop offset="0" stop-color="#2a59be"/>
      <stop offset=".89" stop-color="#1c2538"/>
    </linearGradient>
    <linearGradient id="linear-gradient-16" x1="718.98" y1="275.86" x2="724.19" y2="276.6" xlink:href="#linear-gradient-13"/>
    <linearGradient id="linear-gradient-17" y1="162.43" y2="162.43" xlink:href="#linear-gradient-11"/>
    <linearGradient id="linear-gradient-18" y1="144.67" y2="144.67" gradientTransform="translate(225.6 -114.66) rotate(.1)" xlink:href="#linear-gradient-12"/>
    <linearGradient id="linear-gradient-19" x1="790.34" y1="-161.04" x2="793.19" y2="-154.89" xlink:href="#linear-gradient-13"/>
    <linearGradient id="linear-gradient-20" x1="831.64" y1="-149.53" x2="831.39" y2="-144.55" xlink:href="#linear-gradient-14"/>
    <linearGradient id="linear-gradient-21" x1="806.54" y1="-139.32" x2="812.04" y2="-136.82" xlink:href="#linear-gradient-15"/>
    <linearGradient id="linear-gradient-22" x1="812.62" y1="-162.27" x2="817.83" y2="-161.52" xlink:href="#linear-gradient-13"/>
    <linearGradient id="linear-gradient-23" x1="111.81" y1="386.67" x2="187.72" y2="386.67" xlink:href="#linear-gradient-11"/>
    <linearGradient id="linear-gradient-24" x1="111.82" y1="368.92" x2="194.68" y2="368.92" gradientTransform="translate(226.01 -114.3) rotate(.1)" xlink:href="#linear-gradient-12"/>
    <linearGradient id="linear-gradient-25" x1="553.48" y1="17.65" x2="556.33" y2="23.8" xlink:href="#linear-gradient-13"/>
    <linearGradient id="linear-gradient-26" x1="594.78" y1="29.16" x2="594.53" y2="34.13" xlink:href="#linear-gradient-14"/>
    <linearGradient id="linear-gradient-27" x1="569.68" y1="39.36" x2="575.18" y2="41.86" xlink:href="#linear-gradient-15"/>
    <linearGradient id="linear-gradient-28" x1="575.76" y1="16.41" x2="580.97" y2="17.16" xlink:href="#linear-gradient-13"/>
    <linearGradient id="linear-gradient-29" x1="511.61" y1="386.67" x2="587.52" y2="386.67" xlink:href="#linear-gradient-11"/>
    <linearGradient id="linear-gradient-30" x1="511.62" y1="368.92" x2="594.48" y2="368.92" gradientTransform="translate(226.01 -115.03) rotate(.1)" xlink:href="#linear-gradient-12"/>
    <linearGradient id="linear-gradient-31" x1="944.45" y1="101.21" x2="947.3" y2="107.36" xlink:href="#linear-gradient-13"/>
    <linearGradient id="linear-gradient-32" x1="985.75" y1="112.72" x2="985.5" y2="117.69" xlink:href="#linear-gradient-14"/>
    <linearGradient id="linear-gradient-33" x1="960.65" y1="122.92" x2="966.15" y2="125.42" xlink:href="#linear-gradient-15"/>
    <linearGradient id="linear-gradient-34" x1="966.73" y1="99.98" x2="971.95" y2="100.72" xlink:href="#linear-gradient-13"/>
  </defs>
  <line x1="377.24" y1="257.32" x2="571.17" y2="474.75" style="fill: none; stroke: #a3ea2a; stroke-miterlimit: 10; stroke-width: 10px;"/>
  <line x1="777.04" y1="257.32" x2="577.74" y2="475.78" style="fill: none; stroke: #a3ea2a; stroke-miterlimit: 10; stroke-width: 10px;"/>
  <line x1="567.24" y1="33.08" x2="777.04" y2="257.32" style="fill: none; stroke: #a3ea2a; stroke-miterlimit: 10; stroke-width: 10px;"/>
  <line x1="382.7" y1="260.72" x2="574.2" y2="20.86" style="fill: none; stroke: #a3ea2a; stroke-miterlimit: 10; stroke-width: 10px;"/>
  <line x1="156.18" y1="261.37" x2="353.9" y2="261.37" style="fill: none; stroke: #a3ea2a; stroke-miterlimit: 10; stroke-width: 10px;"/>
  <line x1="774.91" y1="261.37" x2="972.63" y2="261.37" style="fill: none; stroke: #a3ea2a; stroke-miterlimit: 10; stroke-width: 10px;"/>
  <g>
    <rect x="15.63" y="342.1" width="238.49" height="49.63" rx="15.27" ry="15.27" style="fill: #223654;"/>
    <g>
      <path d="m51.35,377.23c-3.56,0-6.26-.99-8.13-2.97-1.86-1.98-2.79-4.79-2.79-8.43,0-1.81.28-3.42.85-4.84.57-1.42,1.35-2.62,2.34-3.6.99-.98,2.17-1.72,3.53-2.22,1.37-.5,2.85-.76,4.45-.76.92,0,1.77.07,2.52.21.76.14,1.42.29,1.99.47.57.18,1.04.36,1.42.55s.65.34.82.44l-1.42,3.98c-.67-.36-1.46-.66-2.35-.92-.89-.25-1.91-.38-3.04-.38-.76,0-1.5.13-2.22.38-.73.25-1.37.66-1.93,1.22s-1,1.28-1.34,2.16c-.34.88-.5,1.96-.5,3.22,0,1.01.11,1.95.33,2.83s.58,1.62,1.07,2.26c.49.63,1.14,1.13,1.94,1.5.8.37,1.77.55,2.9.55.71,0,1.36-.04,1.92-.13.57-.08,1.07-.18,1.51-.3.44-.12.83-.25,1.17-.39.34-.15.64-.28.92-.41l1.36,3.94c-.69.42-1.67.8-2.93,1.14-1.26.34-2.72.5-4.39.5Z" style="fill: #a3ea2a;"/>
      <path d="m76.66,368.46c0,1.3-.19,2.5-.57,3.58-.38,1.08-.93,2.01-1.64,2.78-.71.77-1.57,1.36-2.57,1.78-1,.42-2.12.63-3.36.63s-2.33-.21-3.33-.63c-1-.42-1.86-1.01-2.57-1.78-.72-.77-1.27-1.69-1.67-2.78-.4-1.08-.6-2.28-.6-3.58s.21-2.49.62-3.57.98-1.99,1.7-2.75c.73-.76,1.59-1.35,2.59-1.77s2.09-.63,3.27-.63,2.3.21,3.3.63,1.86,1.01,2.57,1.77c.71.76,1.27,1.67,1.67,2.75.4,1.07.6,2.26.6,3.57Zm-4.8,0c0-1.45-.29-2.59-.87-3.42-.58-.83-1.4-1.25-2.48-1.25s-1.9.42-2.49,1.25c-.59.83-.88,1.97-.88,3.42s.29,2.6.88,3.46c.59.85,1.42,1.28,2.49,1.28s1.9-.43,2.48-1.28c.58-.85.87-2,.87-3.46Z" style="fill: #a3ea2a;"/>
      <path d="m89.41,367.98c0-1.51-.19-2.59-.58-3.22-.39-.63-1.06-.95-2-.95-.29,0-.6.02-.92.05-.32.03-.62.07-.92.11v12.81h-4.7v-16.03c.4-.11.87-.22,1.4-.33.54-.12,1.1-.22,1.7-.32s1.21-.17,1.85-.22c.63-.05,1.25-.08,1.86-.08,1.2,0,2.17.15,2.92.46.75.3,1.36.67,1.85,1.09.67-.48,1.45-.86,2.32-1.14s1.68-.41,2.41-.41c1.33,0,2.42.18,3.27.55.85.37,1.53.89,2.04,1.56.5.67.85,1.47,1.04,2.4s.28,1.96.28,3.09v9.37h-4.7v-8.8c0-1.51-.2-2.59-.58-3.22-.39-.63-1.06-.95-2-.95-.25,0-.61.06-1.06.19s-.83.28-1.12.47c.15.48.24.99.28,1.53.04.54.06,1.11.06,1.72v9.06h-4.7v-8.8Z" style="fill: #a3ea2a;"/>
      <path d="m122.92,368.49c0,1.28-.16,2.45-.47,3.5-.32,1.05-.78,1.96-1.39,2.71-.61.76-1.37,1.35-2.27,1.77s-1.95.63-3.12.63c-.65,0-1.26-.06-1.83-.19-.57-.13-1.12-.3-1.64-.54v6.25h-4.7v-21.87c.42-.13.9-.25,1.45-.36.55-.12,1.12-.22,1.72-.3s1.21-.15,1.83-.21c.62-.05,1.21-.08,1.78-.08,1.37,0,2.59.21,3.66.62,1.07.41,1.98.99,2.71,1.74.74.75,1.3,1.66,1.69,2.73.39,1.07.58,2.27.58,3.6Zm-4.8.13c0-1.45-.33-2.61-.98-3.49-.65-.87-1.62-1.31-2.9-1.31-.42,0-.81.02-1.17.05-.36.03-.65.07-.88.11v8.49c.29.19.68.35,1.15.47.47.13.95.19,1.44.19,2.23,0,3.35-1.5,3.35-4.51Z" style="fill: #a3ea2a;"/>
      <path d="m140.72,376.22c-.8.23-1.83.45-3.09.65-1.26.2-2.59.3-3.98.3s-2.58-.19-3.52-.57c-.94-.38-1.68-.91-2.22-1.59-.55-.68-.94-1.5-1.17-2.45-.23-.95-.35-1.99-.35-3.12v-9.25h4.7v8.68c0,1.51.2,2.61.6,3.28.4.67,1.15,1.01,2.24,1.01.34,0,.69-.02,1.07-.05.38-.03.71-.07,1.01-.11v-12.81h4.7v16.03Z" style="fill: #a3ea2a;"/>
      <path d="m144.98,356.05l4.7-.76v4.89h5.65v3.91h-5.65v5.84c0,.99.17,1.78.52,2.37.35.59,1.05.88,2.1.88.5,0,1.03-.05,1.56-.14.54-.09,1.03-.23,1.47-.39l.66,3.66c-.57.23-1.2.43-1.89.6s-1.55.25-2.56.25c-1.28,0-2.35-.17-3.19-.52-.84-.35-1.51-.83-2.02-1.45-.5-.62-.86-1.37-1.06-2.26-.2-.88-.3-1.86-.3-2.93v-13.95Z" style="fill: #a3ea2a;"/>
      <path d="m157.73,368.61c0-1.47.23-2.76.68-3.87.45-1.1,1.05-2.02,1.78-2.76.74-.74,1.58-1.29,2.54-1.67s1.94-.57,2.95-.57c2.36,0,4.22.72,5.59,2.16,1.37,1.44,2.05,3.56,2.05,6.36,0,.27-.01.57-.03.9-.02.33-.04.62-.06.87h-10.67c.1.97.56,1.74,1.36,2.3.8.57,1.87.85,3.22.85.86,0,1.71-.08,2.54-.24.83-.16,1.51-.35,2.04-.58l.63,3.82c-.25.13-.59.25-1.01.38s-.89.24-1.4.33-1.07.17-1.66.24c-.59.06-1.18.09-1.77.09-1.49,0-2.79-.22-3.9-.66-1.1-.44-2.02-1.05-2.75-1.81-.73-.77-1.26-1.68-1.61-2.73-.35-1.05-.52-2.19-.52-3.41Zm11.05-1.8c-.02-.4-.09-.79-.21-1.17-.12-.38-.29-.71-.54-1.01-.24-.29-.55-.54-.92-.73s-.83-.28-1.37-.28-.98.09-1.36.27-.69.42-.95.71c-.25.29-.45.64-.58,1.03-.14.39-.24.78-.3,1.18h6.22Z" style="fill: #a3ea2a;"/>
      <path d="m186.95,364.35c-.42-.11-.92-.22-1.48-.33-.57-.12-1.18-.17-1.83-.17-.29,0-.65.03-1.06.08-.41.05-.72.11-.93.17v12.69h-4.7v-15.72c.84-.29,1.83-.57,2.98-.84,1.15-.26,2.42-.39,3.83-.39.25,0,.56.02.92.05.36.03.71.07,1.07.13.36.05.71.12,1.07.19.36.07.66.16.92.27l-.79,3.88Z" style="fill: #a3ea2a;"/>
      <path d="m212.83,376.79c-.24-.76-.5-1.54-.79-2.34s-.56-1.6-.84-2.39h-8.54c-.28.8-.55,1.6-.83,2.4s-.54,1.58-.78,2.33h-5.11c.82-2.36,1.6-4.53,2.34-6.53.74-2,1.46-3.88,2.17-5.65s1.4-3.44,2.09-5.03c.69-1.59,1.4-3.14,2.14-4.66h4.67c.72,1.51,1.43,3.07,2.12,4.66.7,1.59,1.4,3.27,2.11,5.03s1.43,3.65,2.17,5.65c.74,2,1.52,4.18,2.35,6.53h-5.27Zm-5.92-16.92c-.11.32-.27.75-.48,1.3-.21.55-.45,1.18-.72,1.9-.27.72-.57,1.5-.91,2.37s-.67,1.76-1.02,2.71h6.25c-.33-.95-.66-1.85-.97-2.72-.31-.86-.61-1.65-.89-2.37-.28-.72-.53-1.35-.74-1.89-.21-.55-.38-.97-.52-1.28Z" style="fill: #a3ea2a;"/>
    </g>
  </g>
  <g>
    <rect x="878.49" y="342.1" width="238.49" height="49.63" rx="15.27" ry="15.27" style="fill: #223654;"/>
    <g>
      <path d="m914.2,377.23c-3.55,0-6.26-.99-8.12-2.97-1.86-1.98-2.79-4.79-2.79-8.43,0-1.81.28-3.42.85-4.84s1.35-2.62,2.34-3.6c.99-.98,2.17-1.72,3.53-2.22s2.85-.76,4.45-.76c.92,0,1.77.07,2.52.21s1.42.29,1.99.47,1.04.36,1.42.55.65.34.82.44l-1.42,3.98c-.67-.36-1.46-.66-2.35-.92-.89-.25-1.91-.38-3.04-.38-.76,0-1.5.13-2.22.38-.73.25-1.37.66-1.93,1.22-.56.56-1,1.28-1.34,2.16-.34.88-.51,1.96-.51,3.22,0,1.01.11,1.95.33,2.83s.58,1.62,1.07,2.26c.49.63,1.14,1.13,1.94,1.5.8.37,1.77.55,2.9.55.71,0,1.36-.04,1.92-.13s1.07-.18,1.52-.3c.44-.12.83-.25,1.17-.39.34-.15.64-.28.91-.41l1.36,3.94c-.7.42-1.67.8-2.94,1.14-1.26.34-2.72.5-4.39.5Z" style="fill: #a3ea2a;"/>
      <path d="m939.51,368.46c0,1.3-.19,2.5-.57,3.58-.38,1.08-.93,2.01-1.64,2.78-.71.77-1.57,1.36-2.57,1.78s-2.12.63-3.36.63-2.33-.21-3.33-.63c-1-.42-1.86-1.01-2.57-1.78-.72-.77-1.27-1.69-1.67-2.78-.4-1.08-.6-2.28-.6-3.58s.21-2.49.62-3.57.98-1.99,1.71-2.75c.73-.76,1.59-1.35,2.59-1.77,1-.42,2.09-.63,3.27-.63s2.3.21,3.3.63c1,.42,1.86,1.01,2.57,1.77.71.76,1.27,1.67,1.67,2.75s.6,2.26.6,3.57Zm-4.8,0c0-1.45-.29-2.59-.87-3.42-.58-.83-1.4-1.25-2.48-1.25s-1.9.42-2.49,1.25c-.59.83-.88,1.97-.88,3.42s.29,2.6.88,3.46c.59.85,1.42,1.28,2.49,1.28s1.9-.43,2.48-1.28c.58-.85.87-2,.87-3.46Z" style="fill: #a3ea2a;"/>
      <path d="m952.26,367.98c0-1.51-.2-2.59-.58-3.22-.39-.63-1.06-.95-2-.95-.29,0-.6.02-.92.05-.31.03-.62.07-.91.11v12.81h-4.7v-16.03c.4-.11.87-.22,1.4-.33.54-.12,1.11-.22,1.71-.32s1.21-.17,1.85-.22,1.25-.08,1.86-.08c1.2,0,2.17.15,2.92.46s1.36.67,1.85,1.09c.67-.48,1.45-.86,2.32-1.14s1.68-.41,2.41-.41c1.33,0,2.41.18,3.27.55.85.37,1.53.89,2.04,1.56.5.67.85,1.47,1.04,2.4s.28,1.96.28,3.09v9.37h-4.7v-8.8c0-1.51-.2-2.59-.58-3.22-.39-.63-1.06-.95-2-.95-.25,0-.61.06-1.06.19-.45.13-.83.28-1.12.47.15.48.24.99.28,1.53s.06,1.11.06,1.72v9.06h-4.7v-8.8Z" style="fill: #a3ea2a;"/>
      <path d="m985.77,368.49c0,1.28-.16,2.45-.47,3.5-.31,1.05-.78,1.96-1.39,2.71-.61.76-1.37,1.35-2.27,1.77s-1.95.63-3.12.63c-.65,0-1.26-.06-1.83-.19-.57-.13-1.12-.3-1.64-.54v6.25h-4.7v-21.87c.42-.13.9-.25,1.45-.36.55-.12,1.12-.22,1.72-.3s1.21-.15,1.83-.21,1.21-.08,1.78-.08c1.37,0,2.59.21,3.66.62,1.07.41,1.98.99,2.71,1.74s1.3,1.66,1.69,2.73c.39,1.07.58,2.27.58,3.6Zm-4.8.13c0-1.45-.33-2.61-.98-3.49-.65-.87-1.62-1.31-2.9-1.31-.42,0-.81.02-1.17.05-.36.03-.65.07-.88.11v8.49c.29.19.68.35,1.15.47.47.13.95.19,1.44.19,2.23,0,3.35-1.5,3.35-4.51Z" style="fill: #a3ea2a;"/>
      <path d="m1003.57,376.22c-.8.23-1.83.45-3.09.65-1.26.2-2.59.3-3.98.3s-2.58-.19-3.52-.57-1.68-.91-2.22-1.59-.94-1.5-1.17-2.45c-.23-.95-.35-1.99-.35-3.12v-9.25h4.7v8.68c0,1.51.2,2.61.6,3.28.4.67,1.15,1.01,2.24,1.01.34,0,.7-.02,1.07-.05.38-.03.71-.07,1.01-.11v-12.81h4.7v16.03Z" style="fill: #a3ea2a;"/>
      <path d="m1007.83,356.05l4.7-.76v4.89h5.65v3.91h-5.65v5.84c0,.99.17,1.78.52,2.37.35.59,1.04.88,2.1.88.51,0,1.03-.05,1.56-.14s1.03-.23,1.47-.39l.66,3.66c-.57.23-1.2.43-1.89.6-.69.17-1.55.25-2.56.25-1.28,0-2.35-.17-3.19-.52-.84-.35-1.51-.83-2.02-1.45-.5-.62-.86-1.37-1.06-2.26-.2-.88-.3-1.86-.3-2.93v-13.95Z" style="fill: #a3ea2a;"/>
      <path d="m1020.58,368.61c0-1.47.23-2.76.68-3.87.45-1.1,1.04-2.02,1.78-2.76.74-.74,1.58-1.29,2.54-1.67s1.94-.57,2.95-.57c2.36,0,4.22.72,5.59,2.16,1.37,1.44,2.05,3.56,2.05,6.36,0,.27,0,.57-.03.9s-.04.62-.06.87h-10.67c.1.97.56,1.74,1.36,2.3.8.57,1.87.85,3.22.85.86,0,1.71-.08,2.54-.24.83-.16,1.51-.35,2.04-.58l.63,3.82c-.25.13-.59.25-1.01.38-.42.13-.89.24-1.4.33s-1.07.17-1.66.24c-.59.06-1.18.09-1.77.09-1.49,0-2.79-.22-3.9-.66-1.11-.44-2.02-1.05-2.75-1.81-.73-.77-1.26-1.68-1.61-2.73-.35-1.05-.52-2.19-.52-3.41Zm11.05-1.8c-.02-.4-.09-.79-.21-1.17-.12-.38-.29-.71-.54-1.01-.24-.29-.55-.54-.92-.73-.37-.19-.83-.28-1.37-.28s-.98.09-1.36.27-.7.42-.95.71c-.25.29-.45.64-.58,1.03-.14.39-.24.78-.3,1.18h6.22Z" style="fill: #a3ea2a;"/>
      <path d="m1049.8,364.35c-.42-.11-.91-.22-1.48-.33-.57-.12-1.18-.17-1.83-.17-.29,0-.65.03-1.06.08-.41.05-.72.11-.93.17v12.69h-4.7v-15.72c.84-.29,1.84-.57,2.98-.84,1.15-.26,2.43-.39,3.83-.39.25,0,.56.02.92.05s.71.07,1.07.13c.36.05.71.12,1.07.19.36.07.66.16.91.27l-.79,3.88Z" style="fill: #a3ea2a;"/>
      <path d="m1068.3,377.07c-1.2,0-2.39-.04-3.58-.11-1.19-.07-2.43-.25-3.71-.52v-21.21c1.01-.19,2.12-.33,3.31-.43s2.31-.14,3.35-.14c1.39,0,2.67.1,3.83.3s2.17.54,3.01,1.03,1.5,1.12,1.97,1.91c.47.79.71,1.76.71,2.92,0,1.75-.84,3.12-2.52,4.13,1.39.53,2.33,1.24,2.84,2.15.51.91.76,1.92.76,3.06,0,2.29-.84,4.02-2.51,5.17-1.67,1.16-4.16,1.74-7.46,1.74Zm-2.49-13.57h2.4c1.52,0,2.6-.19,3.25-.58.65-.39.98-1.01.98-1.88s-.34-1.5-1.01-1.86c-.67-.36-1.66-.54-2.97-.54-.42,0-.87,0-1.36.02s-.92.04-1.29.08v4.77Zm0,3.76v5.65c.36.04.75.07,1.17.09.42.02.88.03,1.39.03,1.47,0,2.66-.21,3.57-.63s1.36-1.2,1.36-2.33c0-1.01-.38-1.73-1.14-2.16-.76-.43-1.84-.65-3.25-.65h-3.09Z" style="fill: #a3ea2a;"/>
    </g>
  </g>
  <g id="Desktop_variation" data-name="Desktop variation">
    <g>
      <g id="Desktop_Computer" data-name="Desktop Computer">
        <g>
          <path d="m133.56,172.53v119.51c0,3.99-2.76,7.44-6.65,8.32l-16.5,3.71-33.36,7.51c1.04-.32,4.14-1.99,4.21-10.4.04-4.5-.5-35.99-1.1-69.56-.62-34.48-1.32-71.14-1.55-82.98-.03-1.63-.51-3.19-1.35-4.54-.73-1.17-1.73-2.18-2.95-2.93-.18-.11-.36-.22-.55-.32-.65-.36-1.34-.66-2.03-.85l1.55-.06,4.96-.21c4.61-.19,9.17.94,13.16,3.27l37.94,22.16c2.62,1.53,4.22,4.33,4.22,7.36Z" style="fill: #525a6a;"/>
          <path d="m110.37,304.07l-33.36,7.51c1.04-.32,4.14-1.99,4.21-10.4.04-4.5-.5-35.99-1.1-69.56,1.99,10.4,12.59,61.56,30.25,72.45Z" style="fill: #525a6a;"/>
          <path d="m133.56,172.53v9.13c-7.57-16.34-41.93-34.65-47.35-35.8-3.64-.78-6.95-1.39-8.95-1.75-1.23-.22-1.96-.34-1.96-.34l-1.54-2.9-1.13-1.8,4.56.14c5.31.17,10.5,1.66,15.09,4.34l37.05,21.64c2.62,1.53,4.22,4.33,4.22,7.36Z" style="fill: #525a6a;"/>
          <path d="m77.01,311.58c-.21.07-.34.08-.34.08l.34-.08Z" style="fill: #2c2c2c;"/>
          <path d="m21.27,143.17l50.14-3.94c4.17-.33,7.76,2.69,7.8,6.57l2,159.75c.05,3.89-3.48,6.99-7.67,6.73l-52.15-3.17c-3.78-.23-6.73-3.14-6.73-6.66v-152.65c0-3.47,2.86-6.35,6.59-6.65Z" style="fill: #89bd27;"/>
          <path d="m78.27,303.83c.05,3.83-3.29,6.89-7.24,6.64l-49.31-3.13c-3.58-.23-6.37-3.1-6.37-6.56v-150.63c0-3.42,2.72-6.28,6.25-6.56l12.49-1.02,35.01-2.86c3.94-.33,7.34,2.65,7.39,6.49l.68,70.88,1.02,80.4.08,6.37Z" style="fill: #727c92;"/>
          <path d="m78.27,303.73c.05,3.83-3.29,6.89-7.24,6.64l-49.31-3.13c-3.58-.23-6.37-3.1-6.37-6.56v-150.43c0-3.41,2.72-6.27,6.24-6.55l12.47-1.02,44.13,154.7.08,6.36Z" style="fill: #525a6a; opacity: .65;"/>
          <path d="m17.4,151.75v8.86c0,1.15,1.01,2.06,2.2,1.97l51.95-3.65c1.07-.08,1.9-.94,1.9-1.97v-9.78c0-1.16-1.03-2.08-2.23-1.97l-51.95,4.56c-1.06.09-1.86.95-1.86,1.97Z" style="fill: #d4d8df;"/>
          <path d="m17.4,169.52v8.87c0,1.14.99,2.04,2.16,1.98l51.95-2.74c1.09-.06,1.94-.93,1.94-1.98v-9.78c0-1.15-1.01-2.06-2.2-1.97l-51.95,3.65c-1.07.08-1.9.94-1.9,1.97Z" style="fill: #d4d8df;"/>
          <path d="m17.4,187.28v8.87c0,1.12.96,2.02,2.12,1.98l51.95-1.83c1.1-.04,1.97-.91,1.97-1.98v-9.79c0-1.14-.99-2.04-2.16-1.98l-51.95,2.74c-1.09.06-1.94.93-1.94,1.98Z" style="fill: #d4d8df;"/>
          <polygon points="64.61 232.04 64.61 234.76 27.25 234.76 27.25 215.06 28.6 215.02 28.6 232.04 64.61 232.04" style="fill: #1c2538;"/>
          <polygon points="64.61 214.12 64.61 232.04 28.6 232.04 28.6 215.07 64.61 214.12" style="fill: #d4d8df;"/>
          <polyline points="33.36 290.81 33.36 293.86 39.13 293.86 39.13 290.81 33.36 290.81" style="fill: #d4d8df;"/>
          <polyline points="47.29 291.15 47.29 294.2 54.08 294.2 54.08 291.15 47.29 291.15" style="fill: #d4d8df;"/>
          <polygon points="64.61 223.78 28.94 224.06 28.94 225.84 64.61 225.84 64.61 223.78" style="fill: #1c2538;"/>
          <path d="m78.22,303.75c.05,3.82-3.28,6.88-7.23,6.64l-49.27-3.13c-3.58-.23-6.36-3.1-6.36-6.56v-69.53c.95,11.29.11,60.49,8.29,69.2,6.63,7.06,36.26,6.8,45.63,4.66,9.22-2.11,7.6-61.11,7.9-87.86l1.04,86.58Z" style="fill: #1c2538;"/>
          <polygon points="127.45 183.78 127.88 290.33 124.39 291.17 123.52 181.28 127.45 183.78" style="fill: #727c92; opacity: .65;"/>
          <path d="m23.69,300.43l-6.19,4.17-.62.28s.8,1.52,3.22,2.2l5.72-4.95s-1.94-1.25-2.12-1.69Z" style="fill: #e8e8e8; opacity: .26;"/>
          <path d="m16.56,306.65s4.08,2.2,6.04,2.34l46.67,3.02c2.11.14,4.38-.21,6.16-1.36l3.64-3.16-.19-.05-2.92,1.87c-2.34,1.5-5.26,2.02-8.03,1.85l-44.84-2.72c-2.08-.13-6.54-1.78-6.54-1.78h0Z" style="fill: #64930a;"/>
          <path d="m23.18,305.02s10.14,2.79,22.96,3.16c12.81.37,24.54-.83,27.79-1.76,0,0-20.73,1.3-27.79,1.02-7.06-.28-23.42-2.6-23.42-2.6" style="fill: #e8e8e8; opacity: .26;"/>
          <path d="m75.2,140.79s2.26,1.88,2.27,4.34c0,2.46.75,57.24.75,57.24,0,0,1.69-53.11,1.03-56.7-.66-3.59-4.04-4.89-4.04-4.89Z" style="fill: #a3ea2a; opacity: .36;"/>
        </g>
      </g>
      <rect x="120.38" y="287.65" width="29.36" height="23.64" style="fill: url(#linear-gradient);"/>
      <path d="m53.02,196.06h164.08c1.58,0,2.86,1.28,2.86,2.86v96.32c0,1.58-1.28,2.86-2.86,2.86H53.02c-1.58,0-2.86-1.28-2.86-2.86v-96.32c0-1.58,1.28-2.86,2.86-2.86Z" style="fill: url(#linear-gradient-2);"/>
      <path d="m219.96,198.92v88.07H50.16v-88.07c0-1.58,1.28-2.86,2.86-2.86h164.08c1.58,0,2.86,1.28,2.86,2.86Z" style="fill: url(#linear-gradient-3);"/>
      <path d="m109.43,309.13h51.26v2.19c0,1.24-1.01,2.25-2.25,2.25h-46.75c-1.24,0-2.25-1.01-2.25-2.25v-2.19h0Z" transform="translate(270.12 622.71) rotate(180)" style="fill: url(#linear-gradient-4);"/>
      <circle cx="135.06" cy="293.75" r="2.94" style="fill: #1c2538;"/>
      <path d="m56.43,279.98v-77.13c0-1.03.84-1.87,1.87-1.87h153.52c1.03,0,1.87.84,1.87,1.87v77.13c0,1.42-1.19,2.56-2.65,2.56H59.08c-1.46,0-2.65-1.15-2.65-2.56Z" style="fill: url(#linear-gradient-5);"/>
      <rect x="80.13" y="216.95" width="76.05" height="2.46" style="fill: #a3ea2a;"/>
      <rect x="80.17" y="223.19" width="98.51" height="2.46" style="fill: #a3ea2a;"/>
      <rect x="80.17" y="229.43" width="107.4" height="2.46" style="fill: #a3ea2a;"/>
      <rect x="80.13" y="243.61" width="76.05" height="2.46" style="fill: #a3ea2a;"/>
      <rect x="80.17" y="249.85" width="98.51" height="2.46" style="fill: #a3ea2a;"/>
      <rect x="80.17" y="256.09" width="107.4" height="2.46" style="fill: #a3ea2a;"/>
    </g>
  </g>
  <g id="Artwork_35" data-name="Artwork 35">
    <g>
      <path id="cloud" d="m248.05,211.1c-.26-1.37-1.48-2.41-2.94-2.41h-.53c-.39-1.96-2.11-3.39-4.13-3.39s-3.74,1.44-4.13,3.4c-1.5.16-2.67,1.42-2.67,2.94,0,1.64,1.34,2.96,2.99,2.96h4.43c.23,0,.42-.2.41-.44,0-.22-.19-.4-.41-.41h-4.43c-1.18,0-2.14-.95-2.14-2.12s.96-2.12,2.14-2.12c.44,0,.86.13,1.22.39.17.12.4.1.55-.04h0c.17-.16.17-.43,0-.59h0s-.03-.03-.05-.05c-.35-.25-.76-.42-1.18-.5.36-1.5,1.7-2.59,3.27-2.59,1.66,0,3.07,1.22,3.32,2.85-.13.07-.26.15-.38.23-.19.14-.23.4-.1.59.01.02.03.04.05.06h0c.15.15.38.16.55.04.36-.25.78-.39,1.22-.39,1.04,0,1.91.74,2.1,1.72.04.2.21.35.42.35h0c.23,0,.42-.19.43-.42h0s0-.06,0-.09Z" style="fill: #fff;"/>
      <g id="numbers">
        <path d="m242.78,213.93h-.36v-1.16s0-.18,0-.18c-.04.04-.08.08-.13.12l-.2.16-.18-.22.56-.44h.3v1.72Z" style="fill: #fff;"/>
        <path d="m244.45,213.07c0,.3-.05.52-.15.67s-.25.22-.46.22-.35-.07-.45-.22-.15-.37-.15-.66.05-.53.15-.67.25-.22.45-.22.35.07.45.23c.11.15.16.37.16.66Zm-.84,0c0,.21.02.36.06.46s.1.14.19.14.15-.05.19-.14.06-.24.06-.46-.02-.36-.06-.46-.1-.14-.18-.14-.15.05-.19.14-.06.24-.06.46Z" style="fill: #fff;"/>
        <path d="m242.78,216.54h-.36v-1.16s0-.18,0-.18c-.04.04-.08.08-.13.12l-.2.16-.18-.22.56-.44h.3v1.72Z" style="fill: #fff;"/>
        <path d="m244.15,216.54h-.36v-1.16s0-.18,0-.18c-.04.04-.08.08-.13.12l-.2.16-.18-.22.56-.44h.3v1.72h0Z" style="fill: #fff;"/>
        <path d="m245.54,216.54h-.36v-1.16s0-.18,0-.18c-.04.04-.08.08-.13.12l-.2.16-.18-.22.56-.44h.3v1.72Z" style="fill: #fff;"/>
        <path d="m247.21,215.68c0,.3-.05.52-.15.67s-.25.22-.46.22-.35-.07-.45-.22-.15-.37-.15-.66.05-.53.15-.67.25-.22.45-.22.35.07.45.23c.11.15.16.37.16.66Zm-.84,0c0,.21.02.36.06.46s.1.14.19.14.15-.05.19-.14.06-.24.06-.45-.02-.36-.06-.46-.1-.14-.18-.14-.15.05-.19.14-.06.24-.06.45Z" style="fill: #fff;"/>
        <path d="m247.99,217.75c0,.22-.04.38-.11.49s-.18.16-.33.16-.25-.06-.33-.16-.11-.27-.11-.48.04-.38.11-.49c.07-.1.18-.16.33-.16s.25.06.33.17.11.27.11.48Zm-.61,0c0,.15.01.27.04.33.02.06.07.1.14.1s.1-.03.13-.1.04-.18.04-.33-.01-.27-.04-.33-.07-.1-.13-.1-.11.03-.13.1-.04.18-.04.33h0Z" style="fill: #fff;"/>
        <path d="m248.78,218.38h-.27v-.85s0-.13,0-.13c-.04.04-.07.07-.09.09l-.14.12-.13-.16.4-.32h.22v1.25h0Z" style="fill: #fff;"/>
        <path d="m242.7,217.76c0,.22-.04.37-.1.48s-.18.15-.33.15-.25-.05-.32-.16-.11-.26-.11-.47.04-.38.1-.48.18-.15.32-.15.25.05.32.16.11.27.11.47Zm-.6,0c0,.15.01.26.04.32.02.06.07.1.13.1.06,0,.1-.03.13-.1s.04-.17.04-.32-.01-.26-.04-.32-.07-.1-.13-.1-.1.03-.13.1-.04.17-.04.33h0Z" style="fill: #fff;"/>
        <path d="m243.47,218.38h-.26v-.83s0-.13,0-.13c-.04.04-.07.07-.09.09l-.14.11-.12-.16.39-.31h.21v1.23Z" style="fill: #fff;"/>
        <path d="m244.66,217.76c0,.22-.04.37-.1.48s-.18.15-.33.15-.25-.05-.32-.16-.11-.26-.11-.47.04-.38.1-.48.18-.15.32-.15.25.05.32.16.11.27.11.47Zm-.6,0c0,.15.01.26.04.32.02.06.07.1.13.1.06,0,.1-.03.13-.1s.04-.17.04-.32-.01-.26-.04-.32-.07-.1-.13-.1-.1.03-.13.1-.04.17-.04.33h0Z" style="fill: #fff;"/>
        <path d="m245.43,218.38h-.26v-.83s0-.13,0-.13c-.04.04-.07.07-.09.09l-.14.11-.12-.16.39-.31h.21v1.23Z" style="fill: #fff;"/>
        <path d="m242.44,219.33c0,.15-.02.27-.07.34s-.13.11-.23.11c-.09,0-.18-.04-.23-.12-.05-.08-.08-.19-.08-.34,0-.16.02-.27.07-.35s.13-.11.23-.11c.09,0,.18.04.23.12.05.08.08.19.08.34Zm-.43,0c0,.11,0,.19.03.23.01.05.07.08.12.07h0s.06-.03.07-.07c.02-.05.03-.12.03-.23,0-.08,0-.16-.03-.23-.01-.05-.07-.08-.12-.07h0s-.06.03-.07.07c-.02.08-.03.16-.02.24Z" style="fill: #fff;"/>
        <path d="m243,219.77h-.19v-.59s0-.09,0-.09c-.03.03-.05.05-.06.06l-.1.08-.09-.11.28-.23h.15v.88Z" style="fill: #fff;"/>
        <path d="m244.89,220.43c0,.15-.02.27-.08.34s-.13.11-.23.11c-.09,0-.18-.04-.23-.12-.05-.08-.08-.19-.08-.34s.02-.27.07-.35.13-.11.23-.11c.09,0,.18.04.23.12.06.08.08.19.08.34Zm-.43,0c0,.11,0,.19.03.23.01.05.07.08.12.07h0s.06-.03.07-.07c.02-.05.03-.12.03-.23,0-.08,0-.16-.03-.23-.01-.04-.05-.07-.09-.07s-.08.03-.09.07c-.02.04-.02.12-.02.23Z" style="fill: #fff;"/>
        <path d="m245.45,220.87h-.19v-.59s0-.09,0-.09c-.03.03-.05.05-.06.06l-.1.08-.09-.11.28-.23h.15v.88Z" style="fill: #fff;"/>
        <path d="m246.92,219.16c0,.22-.04.37-.1.48s-.18.15-.33.15-.25-.05-.32-.16-.11-.26-.11-.47.04-.38.1-.48.18-.15.32-.15.25.05.32.16.11.27.11.47Zm-.6,0c0,.15.01.26.04.32.02.06.07.1.13.1.06,0,.1-.03.13-.1s.04-.17.04-.32-.01-.26-.04-.33-.07-.1-.13-.1-.1.03-.13.1-.04.18-.04.33h0Z" style="fill: #fff;"/>
        <path d="m247.69,219.77h-.26v-.83s0-.13,0-.13c-.04.04-.07.07-.09.09l-.14.11-.12-.16.39-.31h.21v1.23h0Z" style="fill: #fff;"/>
        <path d="m248.88,219.16c0,.22-.04.37-.1.48s-.18.15-.33.15-.25-.05-.32-.16-.11-.26-.11-.47.04-.38.1-.48.18-.15.32-.15.25.05.32.16.11.27.11.47Zm-.6,0c0,.15.01.26.04.32.02.06.07.1.13.1.06,0,.1-.03.13-.1s.04-.17.04-.32-.01-.26-.04-.33-.07-.1-.13-.1-.1.03-.13.1-.04.18-.04.33h0Z" style="fill: #fff;"/>
        <path d="m247,213.93h-.36v-1.16s0-.18,0-.18c-.04.04-.08.08-.13.12l-.2.16-.18-.22.56-.44h.3v1.72h0Z" style="fill: #fff;"/>
        <path d="m248.67,213.07c0,.3-.05.52-.15.67s-.25.22-.46.22-.35-.07-.45-.22-.15-.37-.15-.66.05-.53.15-.67.25-.22.45-.22.35.07.45.23.15.37.16.66Zm-.85,0c0,.21.02.36.06.46s.1.14.19.14.15-.05.19-.14.06-.24.06-.46-.02-.36-.06-.46-.1-.14-.18-.14-.15.05-.19.14-.06.24-.06.46h0Z" style="fill: #fff;"/>
      </g>
    </g>
  </g>
  <g id="Desktop_variation-2" data-name="Desktop variation">
    <g>
      <g id="Desktop_Computer-2" data-name="Desktop Computer">
        <g>
          <path d="m1037.6,172.53v119.51c0,3.99-2.76,7.44-6.65,8.32l-16.5,3.71-33.36,7.51c1.04-.32,4.14-1.99,4.21-10.4.04-4.5-.5-35.99-1.1-69.56-.62-34.48-1.32-71.14-1.55-82.98-.03-1.63-.51-3.19-1.35-4.54-.73-1.17-1.73-2.18-2.95-2.93-.18-.11-.36-.22-.55-.32-.65-.36-1.34-.66-2.03-.85l1.55-.06,4.96-.21c4.61-.19,9.17.94,13.16,3.27l37.94,22.16c2.62,1.53,4.22,4.33,4.22,7.36Z" style="fill: #525a6a;"/>
          <path d="m1014.41,304.07l-33.36,7.51c1.04-.32,4.14-1.99,4.21-10.4.04-4.5-.5-35.99-1.1-69.56,1.99,10.4,12.59,61.56,30.25,72.45Z" style="fill: #525a6a;"/>
          <path d="m1037.6,172.53v9.13c-7.57-16.34-41.93-34.65-47.35-35.8-3.64-.78-6.95-1.39-8.95-1.75-1.23-.22-1.96-.34-1.96-.34l-1.54-2.9-1.13-1.8,4.56.14c5.31.17,10.5,1.66,15.09,4.34l37.05,21.64c2.62,1.53,4.22,4.33,4.22,7.36Z" style="fill: #525a6a;"/>
          <path d="m981.05,311.58c-.21.07-.34.08-.34.08l.34-.08Z" style="fill: #2c2c2c;"/>
          <path d="m925.3,143.17l50.14-3.94c4.17-.33,7.76,2.69,7.8,6.57l2,159.75c.05,3.89-3.48,6.99-7.67,6.73l-52.15-3.17c-3.78-.23-6.73-3.14-6.73-6.66v-152.65c0-3.47,2.86-6.35,6.59-6.65Z" style="fill: #89bd27;"/>
          <path d="m982.31,303.83c.05,3.83-3.29,6.89-7.24,6.64l-49.31-3.13c-3.58-.23-6.37-3.1-6.37-6.56v-150.63c0-3.42,2.72-6.28,6.25-6.56l12.49-1.02,35.01-2.86c3.94-.33,7.34,2.65,7.39,6.49l.68,70.88,1.02,80.4.08,6.37Z" style="fill: #727c92;"/>
          <path d="m982.31,303.73c.05,3.83-3.29,6.89-7.24,6.64l-49.31-3.13c-3.58-.23-6.37-3.1-6.37-6.56v-150.43c0-3.41,2.72-6.27,6.24-6.55l12.47-1.02,44.13,154.7.08,6.36Z" style="fill: #525a6a; opacity: .65;"/>
          <path d="m921.43,151.75v8.86c0,1.15,1.01,2.06,2.2,1.97l51.95-3.65c1.07-.08,1.9-.94,1.9-1.97v-9.78c0-1.16-1.03-2.08-2.23-1.97l-51.95,4.56c-1.06.09-1.86.95-1.86,1.97Z" style="fill: #d4d8df;"/>
          <path d="m921.43,169.52v8.87c0,1.14.99,2.04,2.16,1.98l51.95-2.74c1.09-.06,1.94-.93,1.94-1.98v-9.78c0-1.15-1.01-2.06-2.2-1.97l-51.95,3.65c-1.07.08-1.9.94-1.9,1.97Z" style="fill: #d4d8df;"/>
          <path d="m921.43,187.28v8.87c0,1.12.96,2.02,2.12,1.98l51.95-1.83c1.1-.04,1.97-.91,1.97-1.98v-9.79c0-1.14-.99-2.04-2.16-1.98l-51.95,2.74c-1.09.06-1.94.93-1.94,1.98Z" style="fill: #d4d8df;"/>
          <polygon points="968.65 232.04 968.65 234.76 931.28 234.76 931.28 215.06 932.64 215.02 932.64 232.04 968.65 232.04" style="fill: #1c2538;"/>
          <polygon points="968.65 214.12 968.65 232.04 932.64 232.04 932.64 215.07 968.65 214.12" style="fill: #d4d8df;"/>
          <polyline points="937.4 290.81 937.4 293.86 943.17 293.86 943.17 290.81 937.4 290.81" style="fill: #d4d8df;"/>
          <polyline points="951.32 291.15 951.32 294.2 958.12 294.2 958.12 291.15 951.32 291.15" style="fill: #d4d8df;"/>
          <polygon points="968.65 223.78 932.98 224.06 932.98 225.84 968.65 225.84 968.65 223.78" style="fill: #1c2538;"/>
          <path d="m982.26,303.75c.05,3.82-3.28,6.88-7.23,6.64l-49.27-3.13c-3.58-.23-6.36-3.1-6.36-6.56v-69.53c.95,11.29.11,60.49,8.29,69.2,6.63,7.06,36.26,6.8,45.63,4.66,9.22-2.11,7.6-61.11,7.9-87.86l1.04,86.58Z" style="fill: #1c2538;"/>
          <polygon points="1031.48 183.78 1031.92 290.33 1028.43 291.17 1027.56 181.28 1031.48 183.78" style="fill: #727c92; opacity: .65;"/>
          <path d="m927.72,300.43l-6.19,4.17-.62.28s.8,1.52,3.22,2.2l5.72-4.95s-1.94-1.25-2.12-1.69Z" style="fill: #e8e8e8; opacity: .26;"/>
          <path d="m920.6,306.65s4.08,2.2,6.04,2.34l46.67,3.02c2.11.14,4.38-.21,6.16-1.36l3.64-3.16-.19-.05-2.92,1.87c-2.34,1.5-5.26,2.02-8.03,1.85l-44.84-2.72c-2.08-.13-6.54-1.78-6.54-1.78h0Z" style="fill: #64930a;"/>
          <path d="m927.21,305.02s10.14,2.79,22.96,3.16c12.81.37,24.54-.83,27.79-1.76,0,0-20.73,1.3-27.79,1.02-7.06-.28-23.42-2.6-23.42-2.6" style="fill: #e8e8e8; opacity: .26;"/>
          <path d="m979.24,140.79s2.26,1.88,2.27,4.34c0,2.46.75,57.24.75,57.24,0,0,1.69-53.11,1.03-56.7-.66-3.59-4.04-4.89-4.04-4.89Z" style="fill: #a3ea2a; opacity: .36;"/>
        </g>
      </g>
      <rect x="1024.42" y="287.65" width="29.36" height="23.64" style="fill: url(#linear-gradient-6);"/>
      <path d="m957.06,196.06h164.08c1.58,0,2.86,1.28,2.86,2.86v96.32c0,1.58-1.28,2.86-2.86,2.86h-164.08c-1.58,0-2.86-1.28-2.86-2.86v-96.32c0-1.58,1.28-2.86,2.86-2.86Z" style="fill: url(#linear-gradient-7);"/>
      <path d="m1123.99,198.92v88.07h-169.79v-88.07c0-1.58,1.28-2.86,2.86-2.86h164.08c1.58,0,2.86,1.28,2.86,2.86Z" style="fill: url(#linear-gradient-8);"/>
      <path d="m1013.47,309.13h51.26v2.19c0,1.24-1.01,2.25-2.25,2.25h-46.75c-1.24,0-2.25-1.01-2.25-2.25v-2.19h0Z" transform="translate(2078.19 622.71) rotate(180)" style="fill: url(#linear-gradient-9);"/>
      <circle cx="1039.1" cy="293.75" r="2.94" style="fill: #1c2538;"/>
      <path d="m960.47,279.98v-77.13c0-1.03.84-1.87,1.87-1.87h153.52c1.03,0,1.87.84,1.87,1.87v77.13c0,1.42-1.19,2.56-2.65,2.56h-151.95c-1.46,0-2.65-1.15-2.65-2.56Z" style="fill: url(#linear-gradient-10);"/>
      <rect x="984.17" y="216.95" width="76.05" height="2.46" style="fill: #a3ea2a;"/>
      <rect x="984.21" y="223.19" width="98.51" height="2.46" style="fill: #a3ea2a;"/>
      <rect x="984.21" y="229.43" width="107.4" height="2.46" style="fill: #a3ea2a;"/>
      <rect x="984.17" y="243.61" width="76.05" height="2.46" style="fill: #a3ea2a;"/>
      <rect x="984.21" y="249.85" width="98.51" height="2.46" style="fill: #a3ea2a;"/>
      <rect x="984.21" y="256.09" width="107.4" height="2.46" style="fill: #a3ea2a;"/>
    </g>
  </g>
  <g id="Router">
    <g>
      <path d="m607.32,491.6c-.01,12.47-17.01,22.59-37.97,22.61-20.96.02-37.94-10.07-37.93-22.54v-12.96s75.91-.07,75.91-.07c0,0,0,5.42-.01,12.96Z" style="fill: url(#linear-gradient-11);"/>
      <ellipse cx="569.38" cy="478.67" rx="37.95" ry="22.58" transform="translate(-.87 1.04) rotate(-.1)" style="fill: url(#linear-gradient-12);"/>
      <polygon points="561.03 475.8 548.19 475.81 548.19 472.05 537.94 477.95 548.18 483.83 548.18 480.07 561.03 480.06 561.03 475.8" style="fill: url(#linear-gradient-13);"/>
      <polygon points="577.73 480.05 590.58 480.04 590.57 483.8 600.82 477.89 590.58 472.01 590.58 475.77 577.74 475.78 577.73 480.05" style="fill: url(#linear-gradient-14);"/>
      <polygon points="567.24 481.1 567.23 489.3 567.23 490.16 563.46 490.16 569.36 500.36 575.29 490.15 571.51 490.15 571.51 489.29 571.52 481.09 567.24 481.1" style="fill: url(#linear-gradient-15);"/>
      <polygon points="571.17 474.75 571.18 466.2 571.18 465.48 574.32 465.48 569.4 456.98 564.46 465.49 567.61 465.48 567.61 466.2 567.6 474.75 571.17 474.75" style="fill: url(#linear-gradient-16);"/>
    </g>
  </g>
  <g id="Router-2" data-name="Router">
    <g>
      <path d="m607.32,43.57c-.01,12.47-17.01,22.59-37.97,22.61-20.96.02-37.94-10.07-37.93-22.54v-12.96s75.91-.07,75.91-.07c0,0,0,5.42-.01,12.96Z" style="fill: url(#linear-gradient-17);"/>
      <ellipse cx="569.38" cy="30.65" rx="37.95" ry="22.58" transform="translate(-.06 1.04) rotate(-.1)" style="fill: url(#linear-gradient-18);"/>
      <polygon points="561.03 27.78 548.19 27.79 548.19 24.03 537.94 29.93 548.18 35.81 548.18 32.05 561.03 32.04 561.03 27.78" style="fill: url(#linear-gradient-19);"/>
      <polygon points="577.73 32.03 590.58 32.01 590.57 35.77 600.82 29.87 590.58 23.99 590.58 27.75 577.74 27.76 577.73 32.03" style="fill: url(#linear-gradient-20);"/>
      <polygon points="567.24 33.08 567.23 41.28 567.23 42.14 563.46 42.14 569.36 52.34 575.29 42.13 571.51 42.13 571.51 41.27 571.52 33.07 567.24 33.08" style="fill: url(#linear-gradient-21);"/>
      <polygon points="571.17 26.73 571.18 18.17 571.18 17.46 574.32 17.46 569.4 8.96 564.46 17.46 567.61 17.46 567.61 18.18 567.6 26.73 571.17 26.73" style="fill: url(#linear-gradient-22);"/>
    </g>
  </g>
  <g id="Router-3" data-name="Router">
    <g>
      <path d="m413.04,267.82c-.01,12.47-17.01,22.59-37.97,22.61-20.96.02-37.94-10.07-37.93-22.54v-12.96s75.91-.07,75.91-.07c0,0,0,5.42-.01,12.96Z" style="fill: url(#linear-gradient-23);"/>
      <ellipse cx="375.1" cy="254.89" rx="37.95" ry="22.58" transform="translate(-.47 .69) rotate(-.1)" style="fill: url(#linear-gradient-24);"/>
      <polygon points="366.75 252.02 353.9 252.03 353.91 248.27 343.66 254.17 353.9 260.05 353.9 256.29 366.75 256.28 366.75 252.02" style="fill: url(#linear-gradient-25);"/>
      <polygon points="383.45 256.27 396.3 256.26 396.29 260.02 406.54 254.12 396.3 248.23 396.3 251.99 383.46 252 383.45 256.27" style="fill: url(#linear-gradient-26);"/>
      <polygon points="372.96 257.32 372.95 265.52 372.95 266.38 369.18 266.38 375.08 276.58 381.01 266.37 377.23 266.38 377.23 265.52 377.24 257.32 372.96 257.32" style="fill: url(#linear-gradient-27);"/>
      <polygon points="376.89 250.97 376.89 242.42 376.9 241.7 380.04 241.7 375.12 233.2 370.18 241.71 373.33 241.7 373.33 242.42 373.32 250.97 376.89 250.97" style="fill: url(#linear-gradient-28);"/>
    </g>
  </g>
  <g id="Router-4" data-name="Router">
    <g>
      <path d="m812.84,267.82c-.01,12.47-17.01,22.59-37.97,22.61-20.96.02-37.94-10.07-37.93-22.54,0-9.35.01-12.96.01-12.96l75.9-.07s0,5.42-.01,12.96Z" style="fill: url(#linear-gradient-29);"/>
      <ellipse cx="774.9" cy="254.89" rx="37.95" ry="22.58" transform="translate(-.47 1.42) rotate(-.1)" style="fill: url(#linear-gradient-30);"/>
      <polygon points="766.55 252.02 753.71 252.03 753.71 248.27 743.46 254.17 753.7 260.05 753.7 256.29 766.55 256.28 766.55 252.02" style="fill: url(#linear-gradient-31);"/>
      <polygon points="783.25 256.27 796.1 256.26 796.09 260.02 806.34 254.12 796.1 248.23 796.1 251.99 783.26 252 783.25 256.27" style="fill: url(#linear-gradient-32);"/>
      <polygon points="772.76 257.32 772.75 265.52 772.75 266.38 768.98 266.38 774.88 276.58 780.81 266.37 777.03 266.38 777.03 265.52 777.04 257.32 772.76 257.32" style="fill: url(#linear-gradient-33);"/>
      <polygon points="776.69 250.97 776.7 242.42 776.7 241.7 779.84 241.7 774.92 233.2 769.98 241.71 773.13 241.7 773.13 242.42 773.12 250.97 776.69 250.97" style="fill: url(#linear-gradient-34);"/>
    </g>
  </g>
</svg>